<svg width="239" height="80" viewBox="0 0 239 80" fill="none" xmlns="http://www.w3.org/2000/svg">
<g filter="url(#filter0_d_4062_8)">
<rect x="6.2251" y="0.0249023" width="233.823" height="51" rx="10" transform="rotate(6.42281 6.2251 0.0249023)" fill="#8D735C"/>
<rect x="6.66603" y="0.577696" width="232.823" height="50" rx="9.5" transform="rotate(6.42281 6.66603 0.577696)" stroke="black"/>
</g>
<mask id="path-3-outside-1_4062_8" maskUnits="userSpaceOnUse" x="35.1344" y="14.3326" width="173.678" height="53.4381" fill="black">
<rect fill="white" x="35.1344" y="14.3326" width="173.678" height="53.4381"/>
<path d="M40.4607 40.3434C37.0832 41.2119 39.3206 34.3604 39.1843 32.5888C39.7525 29.0927 40.2947 25.5629 40.4684 22.0768C40.2484 20.9598 41.5878 19.7097 42.6989 20.245C45.4456 20.0519 48.1833 20.4021 50.7144 21.4215C54.0559 22.726 54.5267 28.5025 50.8434 29.6343C55.7599 31.8661 57.0239 36.1713 52.1997 39.365C48.6187 41.1148 44.2752 41.4968 40.4607 40.3434ZM41.3129 37.7002C44.488 38.6508 48.0724 38.2927 51.0011 36.9131C52.3696 35.9086 53.2184 34.4747 51.5586 33.2643C49.9652 32.2439 48.316 31.1861 46.4413 30.9463L46.5603 30.9616C45.1732 30.6934 43.7479 30.7228 42.2967 30.7186C41.8732 33.084 41.5725 35.4348 41.3129 37.7002ZM42.6545 27.9214C45.1998 27.8841 48.0123 28.1228 50.2932 26.8419C51.1697 26.1374 50.6528 24.7405 49.9811 24.08C49.1227 23.698 48.1597 23.4236 47.2486 23.2163C45.8836 23.0114 44.5705 22.8737 43.2902 22.9519C42.9916 24.5771 42.8639 26.2847 42.6545 27.9214ZM62.5191 43.9212C59.6668 43.2841 57.8326 40.5997 57.2375 37.9225C56.843 35.3316 57.5351 32.7586 57.8548 30.2589C58.0299 28.8901 58.1234 27.4503 58.2763 26.0181C58.44 24.7386 58.2051 22.3192 60.0988 22.4102C61.7538 22.7127 61.2241 24.4898 61.0794 25.6206C60.9573 27.9943 60.597 30.3375 60.2849 32.7776C60.0053 34.2541 59.8188 35.7122 59.8741 37.171C60.2416 38.7907 61.0959 40.6239 62.8433 41.1499L62.754 41.1385C62.9288 41.1911 63.0699 41.2696 63.2187 41.2887L63.0997 41.2734L63.3339 41.3336C70.5097 43.4008 70.4409 32.3528 71.1613 27.6663C71.2046 26.8553 71.315 25.9923 71.4773 25.1965C71.8506 23.4598 74.4503 23.9435 74.17 25.6619C73.6658 28.894 73.5301 32.0826 72.9481 35.214C71.9837 40.6254 68.7013 45.952 62.5191 43.9212ZM80.5091 45.8292C79.8409 43.9593 80.6773 41.677 80.8316 39.7611C80.9662 38.2358 81.451 36.5739 80.249 35.3313C78.913 32.7711 77.294 30.2957 76.193 27.5538C76.076 26.813 75.7325 25.9525 76.3594 25.3068C76.8186 24.7909 77.7418 24.667 78.2837 25.1598C78.8774 25.7196 78.629 26.7162 79.0885 27.3798C79.7649 28.9483 80.758 30.4061 81.5611 31.9303C81.9382 32.7649 82.2635 33.5324 82.8085 34.2372C84.8884 31.6906 87.2057 29.4162 89.3971 26.9443C90.5099 25.5744 92.6666 27.3927 91.4607 28.7809C88.8254 31.6498 86.1161 34.3881 83.7631 37.414C83.7257 40.0708 83.0001 42.6697 82.9329 45.3226C82.7807 46.5129 81.1053 46.843 80.5091 45.8292ZM108.494 53.1895C106.773 52.6971 107.638 50.6604 107.538 49.3168C105.2 48.4431 102.842 46.5386 102.15 44.1514C102.057 42.7483 103.953 42.1137 104.649 43.2916C105.285 44.7037 106.417 45.786 107.836 46.512C108.016 44.6297 108.327 42.6733 108.571 40.7688C106.386 39.6425 103.316 37.1629 104.608 34.3944C105.429 32.2311 107.532 30.6855 109.788 30.3087C110.13 29.0519 109.869 26.8409 110.946 25.9807C111.539 25.6028 112.394 25.7727 112.832 26.3731C113.342 27.5876 112.616 29.007 112.601 30.3056C114.802 31.071 117.551 32.5115 117.987 35.017C118.118 36.1225 117.521 37.7097 116.168 37.4156C115.205 37.1412 114.966 36.173 115.199 35.2955C114.681 34.1405 113.25 33.5038 112.158 33.0616L111.857 35.4125C111.794 36.6142 111.675 37.7785 111.519 38.9986C113.01 39.401 114.385 40.0003 115.938 41.1062C116.877 41.801 117.567 42.5547 117.619 43.8014C118.162 47.8328 113.587 49.7881 110.283 49.8494C110.212 51.1106 110.477 53.5338 108.494 53.1895ZM107.405 34.7522C106.579 36.0076 107.659 36.7809 108.413 37.5124C108.602 37.6878 108.884 37.8449 108.884 37.8449C109.086 36.2678 109.213 34.8021 109.411 33.2547C108.566 33.4792 108.085 33.6899 107.405 34.7522ZM110.48 47.1224C111.962 46.8885 113.913 46.5332 114.746 45.2183C115.091 44.4155 114.765 43.8899 114.179 43.2705C113.381 42.4124 112.378 41.9816 111.169 41.7363L110.48 47.1224ZM122.325 49.8473C121.575 50.5075 120.271 50.0684 120.132 49.0224C119.964 46.5512 120.474 43.9851 120.63 41.5855C120.954 38.8142 120.753 36.127 121.226 33.3748C119.765 30.3751 126.611 30.7669 128.241 30.7939C135.169 30.7728 138.464 37.8784 133.62 42.8842C130.818 45.399 126.551 45.1858 123.047 44.6771C122.91 45.7484 122.862 46.8311 122.852 47.8581C122.824 48.5501 122.989 49.3878 122.325 49.8473ZM123.905 33.7174C123.432 36.4696 123.684 39.2239 123.393 41.9692C126.22 42.3308 129.795 42.7578 132.064 40.6285C133.71 38.6313 133.564 35.2856 130.988 34.1396C128.981 33.278 126.692 33.4388 124.545 33.6783C124.303 33.6776 124.113 33.744 123.905 33.7174ZM144.851 54.6644C141.647 54.6478 138.7 52.1536 137.488 49.3371C135.64 43.6869 138.221 36.2745 143.839 33.9687C145.258 33.5151 147.415 32.4905 148.573 33.8483C151.202 34.3359 152.743 35.2892 153.644 37.9449C155.24 42.0203 154.541 46.7701 152.565 50.6306C151.159 53.1122 147.624 54.5049 144.851 54.6644ZM139.936 42.9662C139.434 45.4727 139.287 48.7506 141.645 50.4132C143.803 52.9274 147.308 51.7728 149.545 50.1233C152.119 46.551 152.577 41.3168 150.43 37.5338C149.696 36.6535 148.184 36.8836 147.491 35.9179C143.599 35.8434 140.672 39.3403 139.936 42.9662ZM167.838 58.6028C166.658 57.1817 166.083 55.2934 165.545 53.5914C164.69 52 163.965 50.3346 163.367 48.6249C162.162 48.5917 160.845 48.4837 159.565 48.3201C159.31 50.3138 158.988 52.3595 158.882 54.3723C158.768 55.265 158.769 56.2027 158.116 56.8148C156.926 57.8421 155.189 56.2892 156.074 55.0414C156.232 53.0958 156.353 51.2058 156.716 49.3166C157.359 45.4671 157.345 41.5637 157.839 37.6952C156.459 36.4298 157.803 34.908 159.491 35.1845C159.7 35.2112 159.826 35.1669 160.035 35.1935L159.886 35.1745C163.369 35.1361 167.306 35.0953 170.307 37.1728C172.638 39.0438 173.584 42.522 172.579 45.4178C171.293 47.4309 168.393 47.8765 166.203 48.4433C166.658 49.6205 167.116 50.7679 167.782 51.9419C168.337 53.2831 168.612 54.6793 169.338 55.8609C169.544 56.3713 169.83 56.7405 169.948 57.2395C170.156 58.4457 168.769 59.3571 167.838 58.6028ZM160.63 37.8707C160.295 40.4893 160.057 43.0599 159.908 45.6419C163.36 46.0834 167.17 46.0869 170.171 44.142C171.193 38.2842 164.965 37.7901 160.63 37.8707ZM185.201 59.614C183.551 57.3766 182.413 54.6905 180.991 52.331C180.41 51.1981 180.123 49.8912 179.311 48.9102C178.346 49.6033 177.702 50.8517 176.558 51.2801C176.459 52.0538 176.517 52.787 176.422 53.5309C176.109 54.7915 176.306 56.087 175.841 57.3582C175.475 58.0977 174.369 58.2285 173.749 57.635C172.729 56.6274 173.895 53.4195 173.721 51.9455C174.004 49.2597 174.596 46.5227 174.939 43.8445L175.54 39.1428C175.657 38.4622 176.41 38.0141 177.035 38.094C178.575 38.3515 178.18 40.0248 178.013 41.0923C177.754 43.1158 177.487 45.1988 177.139 47.2109C180.426 44.4556 183.738 41.492 187.547 39.6201C188.216 39.5848 188.922 40.2194 188.946 40.9785C188.938 42.2176 187.426 42.6896 186.617 43.3422C184.813 44.4421 183.123 45.829 181.475 47.1303C182.16 48.1556 182.83 49.2999 183.162 50.4916C184.617 53.067 185.837 55.8241 187.553 58.2514C188.449 59.7573 186 61.168 185.201 59.614ZM197.646 61.085C195.396 60.7064 192.936 60.7849 190.735 60.0195C189.513 59.4095 189.681 57.8583 189.978 56.7168C190.083 55.1877 190.311 53.6441 190.598 52.1082C191.014 48.3809 191.055 44.5148 192.486 41.129C193.564 39.0892 202.402 41.3993 204.694 41.6924C205.813 41.9264 206.042 43.6796 205.07 44.1903C203.989 44.5966 202.749 43.8934 201.573 43.864C199.323 43.4855 196.995 43.0062 194.632 43.0366C194.21 44.9183 193.791 46.7702 193.641 48.6563C196.527 49.0255 199.53 49.1979 202.382 49.8349C204.096 50.3868 203.344 52.9522 201.712 52.4712C200.693 52.1595 199.704 52.0934 198.68 52.0532C196.951 51.8622 195.188 51.4553 193.35 51.4016C193.05 53.5106 192.843 55.6012 192.595 57.7773C194.946 58.078 197.319 58.2002 199.659 58.5902C200.685 58.8424 201.829 58.4141 202.667 59.1868C203.176 59.7054 203.21 60.6172 202.688 61.1553C201.279 62.0033 199.276 61.112 197.646 61.085Z"/>
</mask>
<path d="M40.4607 40.3434C37.0832 41.2119 39.3206 34.3604 39.1843 32.5888C39.7525 29.0927 40.2947 25.5629 40.4684 22.0768C40.2484 20.9598 41.5878 19.7097 42.6989 20.245C45.4456 20.0519 48.1833 20.4021 50.7144 21.4215C54.0559 22.726 54.5267 28.5025 50.8434 29.6343C55.7599 31.8661 57.0239 36.1713 52.1997 39.365C48.6187 41.1148 44.2752 41.4968 40.4607 40.3434ZM41.3129 37.7002C44.488 38.6508 48.0724 38.2927 51.0011 36.9131C52.3696 35.9086 53.2184 34.4747 51.5586 33.2643C49.9652 32.2439 48.316 31.1861 46.4413 30.9463L46.5603 30.9616C45.1732 30.6934 43.7479 30.7228 42.2967 30.7186C41.8732 33.084 41.5725 35.4348 41.3129 37.7002ZM42.6545 27.9214C45.1998 27.8841 48.0123 28.1228 50.2932 26.8419C51.1697 26.1374 50.6528 24.7405 49.9811 24.08C49.1227 23.698 48.1597 23.4236 47.2486 23.2163C45.8836 23.0114 44.5705 22.8737 43.2902 22.9519C42.9916 24.5771 42.8639 26.2847 42.6545 27.9214ZM62.5191 43.9212C59.6668 43.2841 57.8326 40.5997 57.2375 37.9225C56.843 35.3316 57.5351 32.7586 57.8548 30.2589C58.0299 28.8901 58.1234 27.4503 58.2763 26.0181C58.44 24.7386 58.2051 22.3192 60.0988 22.4102C61.7538 22.7127 61.2241 24.4898 61.0794 25.6206C60.9573 27.9943 60.597 30.3375 60.2849 32.7776C60.0053 34.2541 59.8188 35.7122 59.8741 37.171C60.2416 38.7907 61.0959 40.6239 62.8433 41.1499L62.754 41.1385C62.9288 41.1911 63.0699 41.2696 63.2187 41.2887L63.0997 41.2734L63.3339 41.3336C70.5097 43.4008 70.4409 32.3528 71.1613 27.6663C71.2046 26.8553 71.315 25.9923 71.4773 25.1965C71.8506 23.4598 74.4503 23.9435 74.17 25.6619C73.6658 28.894 73.5301 32.0826 72.9481 35.214C71.9837 40.6254 68.7013 45.952 62.5191 43.9212ZM80.5091 45.8292C79.8409 43.9593 80.6773 41.677 80.8316 39.7611C80.9662 38.2358 81.451 36.5739 80.249 35.3313C78.913 32.7711 77.294 30.2957 76.193 27.5538C76.076 26.813 75.7325 25.9525 76.3594 25.3068C76.8186 24.7909 77.7418 24.667 78.2837 25.1598C78.8774 25.7196 78.629 26.7162 79.0885 27.3798C79.7649 28.9483 80.758 30.4061 81.5611 31.9303C81.9382 32.7649 82.2635 33.5324 82.8085 34.2372C84.8884 31.6906 87.2057 29.4162 89.3971 26.9443C90.5099 25.5744 92.6666 27.3927 91.4607 28.7809C88.8254 31.6498 86.1161 34.3881 83.7631 37.414C83.7257 40.0708 83.0001 42.6697 82.9329 45.3226C82.7807 46.5129 81.1053 46.843 80.5091 45.8292ZM108.494 53.1895C106.773 52.6971 107.638 50.6604 107.538 49.3168C105.2 48.4431 102.842 46.5386 102.15 44.1514C102.057 42.7483 103.953 42.1137 104.649 43.2916C105.285 44.7037 106.417 45.786 107.836 46.512C108.016 44.6297 108.327 42.6733 108.571 40.7688C106.386 39.6425 103.316 37.1629 104.608 34.3944C105.429 32.2311 107.532 30.6855 109.788 30.3087C110.13 29.0519 109.869 26.8409 110.946 25.9807C111.539 25.6028 112.394 25.7727 112.832 26.3731C113.342 27.5876 112.616 29.007 112.601 30.3056C114.802 31.071 117.551 32.5115 117.987 35.017C118.118 36.1225 117.521 37.7097 116.168 37.4156C115.205 37.1412 114.966 36.173 115.199 35.2955C114.681 34.1405 113.25 33.5038 112.158 33.0616L111.857 35.4125C111.794 36.6142 111.675 37.7785 111.519 38.9986C113.01 39.401 114.385 40.0003 115.938 41.1062C116.877 41.801 117.567 42.5547 117.619 43.8014C118.162 47.8328 113.587 49.7881 110.283 49.8494C110.212 51.1106 110.477 53.5338 108.494 53.1895ZM107.405 34.7522C106.579 36.0076 107.659 36.7809 108.413 37.5124C108.602 37.6878 108.884 37.8449 108.884 37.8449C109.086 36.2678 109.213 34.8021 109.411 33.2547C108.566 33.4792 108.085 33.6899 107.405 34.7522ZM110.48 47.1224C111.962 46.8885 113.913 46.5332 114.746 45.2183C115.091 44.4155 114.765 43.8899 114.179 43.2705C113.381 42.4124 112.378 41.9816 111.169 41.7363L110.48 47.1224ZM122.325 49.8473C121.575 50.5075 120.271 50.0684 120.132 49.0224C119.964 46.5512 120.474 43.9851 120.63 41.5855C120.954 38.8142 120.753 36.127 121.226 33.3748C119.765 30.3751 126.611 30.7669 128.241 30.7939C135.169 30.7728 138.464 37.8784 133.62 42.8842C130.818 45.399 126.551 45.1858 123.047 44.6771C122.91 45.7484 122.862 46.8311 122.852 47.8581C122.824 48.5501 122.989 49.3878 122.325 49.8473ZM123.905 33.7174C123.432 36.4696 123.684 39.2239 123.393 41.9692C126.22 42.3308 129.795 42.7578 132.064 40.6285C133.71 38.6313 133.564 35.2856 130.988 34.1396C128.981 33.278 126.692 33.4388 124.545 33.6783C124.303 33.6776 124.113 33.744 123.905 33.7174ZM144.851 54.6644C141.647 54.6478 138.7 52.1536 137.488 49.3371C135.64 43.6869 138.221 36.2745 143.839 33.9687C145.258 33.5151 147.415 32.4905 148.573 33.8483C151.202 34.3359 152.743 35.2892 153.644 37.9449C155.24 42.0203 154.541 46.7701 152.565 50.6306C151.159 53.1122 147.624 54.5049 144.851 54.6644ZM139.936 42.9662C139.434 45.4727 139.287 48.7506 141.645 50.4132C143.803 52.9274 147.308 51.7728 149.545 50.1233C152.119 46.551 152.577 41.3168 150.43 37.5338C149.696 36.6535 148.184 36.8836 147.491 35.9179C143.599 35.8434 140.672 39.3403 139.936 42.9662ZM167.838 58.6028C166.658 57.1817 166.083 55.2934 165.545 53.5914C164.69 52 163.965 50.3346 163.367 48.6249C162.162 48.5917 160.845 48.4837 159.565 48.3201C159.31 50.3138 158.988 52.3595 158.882 54.3723C158.768 55.265 158.769 56.2027 158.116 56.8148C156.926 57.8421 155.189 56.2892 156.074 55.0414C156.232 53.0958 156.353 51.2058 156.716 49.3166C157.359 45.4671 157.345 41.5637 157.839 37.6952C156.459 36.4298 157.803 34.908 159.491 35.1845C159.7 35.2112 159.826 35.1669 160.035 35.1935L159.886 35.1745C163.369 35.1361 167.306 35.0953 170.307 37.1728C172.638 39.0438 173.584 42.522 172.579 45.4178C171.293 47.4309 168.393 47.8765 166.203 48.4433C166.658 49.6205 167.116 50.7679 167.782 51.9419C168.337 53.2831 168.612 54.6793 169.338 55.8609C169.544 56.3713 169.83 56.7405 169.948 57.2395C170.156 58.4457 168.769 59.3571 167.838 58.6028ZM160.63 37.8707C160.295 40.4893 160.057 43.0599 159.908 45.6419C163.36 46.0834 167.17 46.0869 170.171 44.142C171.193 38.2842 164.965 37.7901 160.63 37.8707ZM185.201 59.614C183.551 57.3766 182.413 54.6905 180.991 52.331C180.41 51.1981 180.123 49.8912 179.311 48.9102C178.346 49.6033 177.702 50.8517 176.558 51.2801C176.459 52.0538 176.517 52.787 176.422 53.5309C176.109 54.7915 176.306 56.087 175.841 57.3582C175.475 58.0977 174.369 58.2285 173.749 57.635C172.729 56.6274 173.895 53.4195 173.721 51.9455C174.004 49.2597 174.596 46.5227 174.939 43.8445L175.54 39.1428C175.657 38.4622 176.41 38.0141 177.035 38.094C178.575 38.3515 178.18 40.0248 178.013 41.0923C177.754 43.1158 177.487 45.1988 177.139 47.2109C180.426 44.4556 183.738 41.492 187.547 39.6201C188.216 39.5848 188.922 40.2194 188.946 40.9785C188.938 42.2176 187.426 42.6896 186.617 43.3422C184.813 44.4421 183.123 45.829 181.475 47.1303C182.16 48.1556 182.83 49.2999 183.162 50.4916C184.617 53.067 185.837 55.8241 187.553 58.2514C188.449 59.7573 186 61.168 185.201 59.614ZM197.646 61.085C195.396 60.7064 192.936 60.7849 190.735 60.0195C189.513 59.4095 189.681 57.8583 189.978 56.7168C190.083 55.1877 190.311 53.6441 190.598 52.1082C191.014 48.3809 191.055 44.5148 192.486 41.129C193.564 39.0892 202.402 41.3993 204.694 41.6924C205.813 41.9264 206.042 43.6796 205.07 44.1903C203.989 44.5966 202.749 43.8934 201.573 43.864C199.323 43.4855 196.995 43.0062 194.632 43.0366C194.21 44.9183 193.791 46.7702 193.641 48.6563C196.527 49.0255 199.53 49.1979 202.382 49.8349C204.096 50.3868 203.344 52.9522 201.712 52.4712C200.693 52.1595 199.704 52.0934 198.68 52.0532C196.951 51.8622 195.188 51.4553 193.35 51.4016C193.05 53.5106 192.843 55.6012 192.595 57.7773C194.946 58.078 197.319 58.2002 199.659 58.5902C200.685 58.8424 201.829 58.4141 202.667 59.1868C203.176 59.7054 203.21 60.6172 202.688 61.1553C201.279 62.0033 199.276 61.112 197.646 61.085Z" fill="white"/>
<path d="M40.4607 40.3434L41.0395 38.429L40.5042 38.2672L39.9626 38.4065L40.4607 40.3434ZM39.1843 32.5888L37.2102 32.268L37.1718 32.5039L37.1902 32.7423L39.1843 32.5888ZM40.4684 22.0768L42.4659 22.1763L42.4782 21.9311L42.4307 21.6902L40.4684 22.0768ZM42.6989 20.245L41.8308 22.0468L42.3093 22.2773L42.8391 22.2401L42.6989 20.245ZM50.7144 21.4215L49.9672 23.2767L49.9771 23.2807L49.987 23.2846L50.7144 21.4215ZM50.8434 29.6343L50.2559 27.7225L45.2094 29.2731L50.0167 31.4554L50.8434 29.6343ZM52.1997 39.365L53.0777 41.1619L53.1949 41.1047L53.3037 41.0327L52.1997 39.365ZM41.3129 37.7002L39.3259 37.4726L39.1354 39.136L40.7393 39.6162L41.3129 37.7002ZM51.0011 36.9131L51.8534 38.7224L52.0285 38.6399L52.1845 38.5254L51.0011 36.9131ZM51.5586 33.2643L52.737 31.6484L52.6881 31.6127L52.6371 31.5801L51.5586 33.2643ZM46.5603 30.9616L46.3066 32.9454L46.94 28.9979L46.5603 30.9616ZM42.2967 30.7186L42.3025 28.7186L40.6239 28.7138L40.328 30.3661L42.2967 30.7186ZM42.6545 27.9214L40.6707 27.6676L40.3781 29.955L42.6839 29.9212L42.6545 27.9214ZM50.2932 26.8419L51.2725 28.5857L51.417 28.5046L51.5462 28.4008L50.2932 26.8419ZM49.9811 24.08L51.3836 22.6541L51.1253 22.4L50.7942 22.2527L49.9811 24.08ZM47.2486 23.2163L47.6923 21.2661L47.6194 21.2495L47.5455 21.2384L47.2486 23.2163ZM43.2902 22.9519L43.1683 20.9556L41.606 21.051L41.3231 22.5905L43.2902 22.9519ZM39.9626 38.4065C39.8063 38.4466 39.9407 38.3751 40.2012 38.4821C40.492 38.6014 40.624 38.8109 40.653 38.8703C40.6658 38.8967 40.6244 38.8171 40.5999 38.5538C40.5769 38.3055 40.5767 37.9834 40.6027 37.5875C40.6556 36.7838 40.7996 35.8875 40.9421 34.9802C41.0101 34.5464 41.0794 34.0989 41.1262 33.6986C41.1698 33.3251 41.2112 32.8619 41.1784 32.4354L37.1902 32.7423C37.1895 32.7342 37.1923 32.77 37.187 32.8679C37.1819 32.9608 37.1711 33.0813 37.1533 33.234C37.117 33.5441 37.0602 33.9157 36.9904 34.3598C36.8573 35.2083 36.6786 36.3027 36.6113 37.3249C36.5503 38.2528 36.5387 39.56 37.0581 40.6244C37.3544 41.2316 37.8668 41.8477 38.6822 42.1824C39.4673 42.5047 40.2707 42.4574 40.9587 42.2804L39.9626 38.4065ZM41.1584 32.9096C41.726 29.4167 42.286 25.7867 42.4659 22.1763L38.4709 21.9772C38.3034 25.3392 37.7789 28.7686 37.2102 32.268L41.1584 32.9096ZM42.4307 21.6902C42.4651 21.8647 42.4268 21.9831 42.4111 22.0204C42.4025 22.0407 42.3957 22.0501 42.3943 22.052C42.3929 22.0539 42.3924 22.0543 42.3914 22.0552C42.3905 22.056 42.3834 22.0621 42.3667 22.0708C42.35 22.0794 42.3175 22.0937 42.2679 22.1043C42.1563 22.1281 41.991 22.1239 41.8308 22.0468L43.567 18.4432C42.0818 17.7277 40.626 18.2949 39.7775 19.0274C38.9514 19.7406 38.2198 21.0099 38.5061 22.4634L42.4307 21.6902ZM42.8391 22.2401C45.3264 22.0652 47.755 22.3858 49.9672 23.2767L51.4615 19.5663C48.6115 18.4185 45.5647 18.0386 42.5586 18.2499L42.8391 22.2401ZM49.987 23.2846C50.7242 23.5723 51.364 24.4887 51.415 25.6783C51.4641 26.8224 50.9669 27.504 50.2559 27.7225L51.4308 31.546C54.4032 30.6327 55.5123 27.8603 55.4114 25.507C55.3124 23.1994 54.0461 20.5752 51.4417 19.5585L49.987 23.2846ZM50.0167 31.4554C52.1767 32.4359 53.0498 33.6572 53.2083 34.506C53.3353 35.1865 53.1172 36.359 51.0957 37.6973L53.3037 41.0327C56.1064 39.1773 57.6684 36.6003 57.1403 33.7719C56.6437 31.1117 54.4266 29.0644 51.6701 27.8131L50.0167 31.4554ZM51.3216 37.5681C48.1839 39.1013 44.3602 39.433 41.0395 38.429L39.8818 42.2579C44.1901 43.5605 49.0535 43.1283 53.0777 41.1619L51.3216 37.5681ZM40.7393 39.6162C44.4173 40.7173 48.5086 40.2979 51.8534 38.7224L50.1488 35.1038C47.6361 36.2874 44.5587 36.5842 41.8865 35.7842L40.7393 39.6162ZM52.1845 38.5254C52.9938 37.9314 53.9874 36.9847 54.343 35.6993C54.5374 34.9967 54.5318 34.2122 54.2124 33.4396C53.9033 32.6923 53.3629 32.1048 52.737 31.6484L50.3802 34.8803C50.5842 35.0291 50.56 35.0748 50.5159 34.9681C50.4939 34.9147 50.4777 34.8478 50.4745 34.7761C50.4713 34.7065 50.4813 34.6563 50.4879 34.6326C50.4977 34.5971 50.4879 34.6589 50.364 34.8072C50.2448 34.95 50.0629 35.1208 49.8177 35.3008L52.1845 38.5254ZM52.6371 31.5801C51.1239 30.611 49.0942 29.2694 46.6951 28.9625L46.1876 32.9302C47.5379 33.1029 48.8064 33.8768 50.48 34.9486L52.6371 31.5801ZM46.1876 32.9302L46.3066 32.9454L46.8141 28.9777L46.6951 28.9625L46.1876 32.9302ZM46.94 28.9979C45.3226 28.6852 43.6701 28.7225 42.3025 28.7186L42.291 32.7186C43.8258 32.723 45.0237 32.7015 46.1807 32.9252L46.94 28.9979ZM40.328 30.3661C39.8935 32.7929 39.5872 35.1921 39.3259 37.4726L43.2999 37.9279C43.5577 35.6775 43.8528 33.3751 44.2654 31.0711L40.328 30.3661ZM42.6839 29.9212C43.8099 29.9047 45.3441 29.9533 46.7334 29.8416C48.1841 29.7248 49.7794 29.4242 51.2725 28.5857L49.3139 25.0981C48.5261 25.5405 47.5746 25.761 46.4126 25.8544C45.1892 25.9529 44.0445 25.9008 42.6252 25.9216L42.6839 29.9212ZM51.5462 28.4008C52.7618 27.4236 52.8717 26.0193 52.6791 25.0535C52.4929 24.1195 51.9896 23.2501 51.3836 22.6541L48.5787 25.5059C48.5945 25.5214 48.6389 25.5728 48.6842 25.6552C48.7291 25.7367 48.7499 25.8032 48.7563 25.8354C48.7633 25.8707 48.7437 25.8121 48.7766 25.6892C48.794 25.6242 48.8247 25.5477 48.8746 25.4698C48.925 25.391 48.9838 25.3284 49.0402 25.283L51.5462 28.4008ZM50.7942 22.2527C49.7683 21.7962 48.6649 21.4874 47.6923 21.2661L46.805 25.1665C47.6545 25.3597 48.477 25.5997 49.168 25.9072L50.7942 22.2527ZM47.5455 21.2384C46.1401 21.0275 44.6613 20.8644 43.1683 20.9556L43.4121 24.9482C44.4796 24.883 45.6271 24.9953 46.9518 25.1941L47.5455 21.2384ZM41.3231 22.5905C41.0129 24.2785 40.8606 26.1826 40.6707 27.6676L44.6384 28.1752C44.8671 26.3869 44.9702 24.8757 45.2573 23.3133L41.3231 22.5905ZM62.5191 43.9212L63.1432 42.021L63.0504 41.9906L62.955 41.9693L62.5191 43.9212ZM57.2375 37.9225L55.2603 38.2235L55.2705 38.2905L55.2851 38.3565L57.2375 37.9225ZM58.2763 26.0181L56.2925 25.7644L56.2898 25.785L56.2876 25.8058L58.2763 26.0181ZM60.0988 22.4102L60.4584 20.4428L60.3276 20.4189L60.1948 20.4125L60.0988 22.4102ZM61.0794 25.6206L59.0956 25.3668L59.086 25.4421L59.0821 25.5178L61.0794 25.6206ZM60.2849 32.7776L62.25 33.1497L62.2611 33.0908L62.2687 33.0314L60.2849 32.7776ZM59.8741 37.171L57.8756 37.2468L57.8826 37.4324L57.9237 37.6135L59.8741 37.171ZM62.8433 41.1499L62.5895 43.1337L63.4197 39.2348L62.8433 41.1499ZM62.754 41.1385L63.0078 39.1546L62.1776 43.0536L62.754 41.1385ZM63.0997 41.2734L63.3535 39.2896L62.6018 43.2105L63.0997 41.2734ZM63.3339 41.3336L63.8876 39.4118L63.8598 39.4038L63.8318 39.3966L63.3339 41.3336ZM71.1613 27.6663L73.1381 27.9702L73.1532 27.872L73.1585 27.7728L71.1613 27.6663ZM71.4773 25.1965L69.522 24.7761L69.5197 24.7864L69.5176 24.7968L71.4773 25.1965ZM74.17 25.6619L72.196 25.3399L72.1939 25.3536L74.17 25.6619ZM72.9481 35.214L70.9818 34.8486L70.9804 34.8558L70.9791 34.8631L72.9481 35.214ZM62.955 41.9693C61.1393 41.5637 59.6892 39.7349 59.1898 37.4885L55.2851 38.3565C55.976 41.4645 58.1944 45.0045 62.0831 45.8731L62.955 41.9693ZM59.2147 37.6215C59.0576 36.5898 59.1089 35.5082 59.2622 34.3102C59.3388 33.7109 59.4372 33.1083 59.5417 32.4697C59.6443 31.8431 59.7535 31.1785 59.8387 30.5127L55.871 30.0052C55.7963 30.5892 55.6991 31.1836 55.5943 31.8234C55.4915 32.4513 55.3815 33.1225 55.2945 33.8027C55.1204 35.1639 55.0229 36.6643 55.2603 38.2235L59.2147 37.6215ZM59.8387 30.5127C60.0131 29.1488 60.1275 27.5177 60.265 26.2305L56.2876 25.8058C56.1192 27.3829 56.0467 28.6314 55.871 30.0052L59.8387 30.5127ZM60.2602 26.2719C60.3096 25.8857 60.3357 25.3503 60.3582 25.0523C60.387 24.6697 60.4223 24.4013 60.4728 24.2096C60.5265 24.0059 60.5497 24.0786 60.4141 24.2071C60.2131 24.3977 59.9977 24.4077 60.0028 24.4079L60.1948 20.4125C59.2531 20.3673 58.3569 20.6456 57.6622 21.3042C57.033 21.9007 56.7495 22.6411 56.6048 23.1908C56.4568 23.7525 56.4018 24.3232 56.3695 24.7513C56.3308 25.2639 56.3249 25.5108 56.2925 25.7644L60.2602 26.2719ZM59.7393 24.3776C59.7724 24.3837 59.5821 24.3471 59.4067 24.1271C59.2589 23.9418 59.2646 23.8012 59.2721 23.8848C59.28 23.9725 59.2756 24.1349 59.2376 24.4195C59.2194 24.5554 59.1974 24.6937 59.1716 24.8555C59.1476 25.0065 59.1183 25.1893 59.0956 25.3668L63.0633 25.8744C63.0767 25.7692 63.0956 25.6491 63.1218 25.4853C63.1462 25.3323 63.1764 25.1438 63.2023 24.9494C63.2526 24.5733 63.3043 24.0604 63.2559 23.5247C63.2071 22.9849 63.0439 22.2727 62.5345 21.6337C61.9975 20.9601 61.2528 20.588 60.4584 20.4428L59.7393 24.3776ZM59.0821 25.5178C58.965 27.7919 58.622 30.0152 58.3011 32.5239L62.2687 33.0314C62.5721 30.6598 62.9495 28.1967 63.0768 25.7234L59.0821 25.5178ZM58.3198 32.4055C58.0274 33.9495 57.8121 35.574 57.8756 37.2468L61.8727 37.0952C61.8255 35.8504 61.9832 34.5587 62.25 33.1497L58.3198 32.4055ZM57.9237 37.6135C58.3191 39.3563 59.4051 42.2036 62.2668 43.065L63.4197 39.2348C62.7868 39.0442 62.1641 38.2252 61.8246 36.7285L57.9237 37.6135ZM63.0971 39.1661L63.0078 39.1546L62.5003 43.1223L62.5895 43.1337L63.0971 39.1661ZM62.1776 43.0536C62.1622 43.049 62.1581 43.047 62.1769 43.054C62.1866 43.0577 62.198 43.062 62.2176 43.0696C62.2345 43.0761 62.2619 43.0867 62.2898 43.0973C62.3862 43.1337 62.6436 43.2314 62.965 43.2725L63.4725 39.3048C63.5667 39.3169 63.6367 39.3354 63.6728 39.346C63.7064 39.3559 63.723 39.3628 63.7025 39.355C63.6925 39.3513 63.6816 39.3471 63.6596 39.3386C63.6404 39.3312 63.6124 39.3203 63.582 39.3089C63.5205 39.2858 63.4332 39.2543 63.3305 39.2234L62.1776 43.0536ZM63.4725 39.3048L63.3535 39.2896L62.8459 43.2573L62.965 43.2725L63.4725 39.3048ZM62.6018 43.2105L62.8361 43.2707L63.8318 39.3966L63.5976 39.3364L62.6018 43.2105ZM62.7803 43.2555C65.095 43.9223 67.1374 43.5782 68.739 42.2856C70.209 41.0992 71.0481 39.315 71.5766 37.6316C72.117 35.9101 72.4174 34.0096 72.6281 32.3167C72.853 30.5106 72.9603 29.1267 73.1381 27.9702L69.1846 27.3624C69.0021 28.5492 68.8479 30.3037 68.6588 31.8225C68.4556 33.4547 68.1896 35.0656 67.7602 36.4336C67.3188 37.8396 66.7847 38.7227 66.2268 39.1729C65.8007 39.5168 65.1608 39.7786 63.8876 39.4118L62.7803 43.2555ZM73.1585 27.7728C73.1965 27.0603 73.2944 26.2953 73.4369 25.5961L69.5176 24.7968C69.3356 25.6893 69.2127 26.6503 69.1642 27.5598L73.1585 27.7728ZM73.4326 25.6168C73.413 25.7079 73.3186 25.8952 73.1105 26.0179C72.9416 26.1174 72.7971 26.1167 72.7157 26.1021C72.6353 26.0877 72.4943 26.0377 72.3649 25.8776C72.2049 25.6798 72.1775 25.4535 72.1961 25.3399L76.1439 25.9838C76.3026 25.0111 76.0553 24.0799 75.4751 23.3624C74.9254 22.6826 74.1637 22.298 73.4218 22.165C72.6788 22.0317 71.832 22.1283 71.0794 22.5719C70.2876 23.0386 69.7282 23.8167 69.522 24.7761L73.4326 25.6168ZM72.1939 25.3536C71.9325 27.0294 71.7669 28.6928 71.5995 30.2638C71.4298 31.856 71.2572 33.367 70.9818 34.8486L74.9144 35.5795C75.2211 33.9296 75.4073 32.2806 75.577 30.6876C75.749 29.0734 75.9033 27.5265 76.1461 25.9701L72.1939 25.3536ZM70.9791 34.8631C70.5345 37.3579 69.5861 39.6032 68.2598 40.9607C67.6187 41.6168 66.9136 42.0435 66.1356 42.2382C65.3609 42.4321 64.3837 42.4285 63.1432 42.021L61.8949 45.8213C63.7455 46.4292 65.4971 46.5214 67.1066 46.1186C68.713 45.7166 70.0479 44.8543 71.1208 43.7561C73.2223 41.6053 74.3973 38.4816 74.9171 35.5649L70.9791 34.8631ZM80.5091 45.8292L78.6257 46.5021L78.6893 46.6801L78.7851 46.843L80.5091 45.8292ZM80.8316 39.7611L78.8394 39.5852L78.8387 39.5928L78.8381 39.6005L80.8316 39.7611ZM80.249 35.3313L78.4758 36.2566L78.61 36.5136L78.8115 36.7219L80.249 35.3313ZM76.193 27.5538L74.2175 27.8657L74.2527 28.0892L74.337 28.2991L76.193 27.5538ZM76.3594 25.3068L77.7943 26.7001L77.8245 26.6689L77.8534 26.6365L76.3594 25.3068ZM78.2837 25.1598L79.6557 23.7046L79.6426 23.6922L79.6292 23.6801L78.2837 25.1598ZM79.0885 27.3798L80.925 26.5878L80.8461 26.405L80.7328 26.2413L79.0885 27.3798ZM81.5611 31.9303L83.3836 31.1067L83.3587 31.0516L83.3305 30.998L81.5611 31.9303ZM82.8085 34.2372L81.2262 35.4606L82.7656 37.4515L84.3575 35.5024L82.8085 34.2372ZM89.3971 26.9443L90.8937 28.271L90.9222 28.2387L90.9494 28.2053L89.3971 26.9443ZM91.4607 28.7809L92.9336 30.1339L92.9524 30.1135L92.9706 30.0925L91.4607 28.7809ZM83.7631 37.414L82.1843 36.1863L81.7727 36.7156L81.7633 37.3859L83.7631 37.414ZM82.9329 45.3226L84.9168 45.5764L84.9297 45.4752L84.9323 45.3732L82.9329 45.3226ZM82.3925 45.1562C82.2266 44.6919 82.2089 44.053 82.3429 43.0873C82.409 42.6115 82.4968 42.1447 82.5922 41.5991C82.6828 41.0817 82.7785 40.5007 82.8252 39.9217L78.8381 39.6005C78.8076 39.9794 78.7409 40.4022 78.6521 40.9099C78.5682 41.3896 78.4597 41.9695 78.3809 42.5374C78.2252 43.6594 78.1235 45.0965 78.6257 46.5021L82.3925 45.1562ZM82.8239 39.9369C82.8545 39.5904 82.899 39.2929 82.9529 38.8326C83.0011 38.4203 83.0496 37.9247 83.0413 37.4081C83.024 36.331 82.7547 35.045 81.6864 33.9407L78.8115 36.7219C78.9453 36.8602 79.0346 37.0265 79.0418 37.4723C79.0457 37.7171 79.0229 38.0007 78.98 38.3678C78.9426 38.6869 78.8761 39.1691 78.8394 39.5852L82.8239 39.9369ZM82.0221 34.4061C80.5568 31.5981 79.1067 29.4428 78.049 26.8086L74.337 28.2991C75.4813 31.1486 77.2692 33.9442 78.4758 36.2566L82.0221 34.4061ZM78.1685 27.242C78.1472 27.1072 78.1225 26.98 78.1011 26.8744C78.0904 26.8216 78.0794 26.7683 78.0699 26.7222C78.0599 26.6741 78.0512 26.6314 78.0429 26.59C78.0081 26.4152 77.9968 26.3301 77.994 26.2808C77.9916 26.2385 78.0005 26.2914 77.9704 26.3933C77.9351 26.5125 77.8689 26.6233 77.7943 26.7001L74.9246 23.9135C74.0916 24.7713 73.9589 25.7786 74.0005 26.5085C74.0198 26.8477 74.0772 27.1569 74.1201 27.372C74.1725 27.6351 74.1965 27.7329 74.2175 27.8657L78.1685 27.242ZM77.8534 26.6365C77.7059 26.8023 77.5612 26.8383 77.48 26.846C77.3883 26.8548 77.1613 26.8424 76.9381 26.6395L79.6292 23.6801C78.8641 22.9843 77.9046 22.7876 77.1011 22.864C76.3081 22.9395 75.4722 23.2954 74.8655 23.9771L77.8534 26.6365ZM76.9116 26.6149C76.669 26.3862 76.6894 26.1308 76.7657 26.5717C76.7893 26.7086 76.8388 27.0338 76.9162 27.3328C77.0005 27.6586 77.1478 28.0903 77.4441 28.5183L80.7328 26.2413C80.7994 26.3375 80.8054 26.3957 80.7886 26.3305C80.7647 26.2385 80.753 26.1552 80.7071 25.89C80.6443 25.5268 80.4921 24.4932 79.6557 23.7046L76.9116 26.6149ZM77.252 28.1718C77.6382 29.0673 78.1038 29.9064 78.5448 30.671C79.0035 31.4662 79.4139 32.1457 79.7917 32.8626L83.3305 30.998C82.9052 30.1908 82.4175 29.3792 82.0097 28.6724C81.5844 27.9349 81.2152 27.2608 80.925 26.5878L77.252 28.1718ZM79.7385 32.7539C80.0822 33.5144 80.5063 34.5294 81.2262 35.4606L84.3907 33.0139C84.0207 32.5354 83.7943 32.0154 83.3836 31.1067L79.7385 32.7539ZM84.3575 35.5024C86.4279 32.9673 88.5547 30.9094 90.8937 28.271L87.9005 25.6175C85.8567 27.923 83.3489 30.4138 81.2594 32.9721L84.3575 35.5024ZM90.9494 28.2053C90.9173 28.2449 90.8446 28.3159 90.7235 28.3744C90.603 28.4325 90.4759 28.4579 90.3614 28.4581C90.1486 28.4584 90.0323 28.3776 89.9891 28.3402C89.9441 28.3012 89.8529 28.2008 89.8242 28.0031C89.8089 27.8974 89.8155 27.7811 89.8491 27.6697C89.8827 27.5584 89.931 27.4922 89.9508 27.4694L92.9706 30.0925C93.6393 29.3227 93.9195 28.3698 93.7827 27.4282C93.654 26.542 93.1802 25.8123 92.6077 25.3165C92.0369 24.8221 91.2481 24.4569 90.3557 24.4581C89.4017 24.4595 88.4939 24.8841 87.8447 25.6832L90.9494 28.2053ZM89.9878 27.4279C87.4199 30.2234 84.6043 33.0741 82.1843 36.1863L85.3419 38.6417C87.6278 35.7022 90.2309 33.0762 92.9336 30.1339L89.9878 27.4279ZM81.7633 37.3859C81.7468 38.5609 81.5777 39.7468 81.3808 41.0768C81.1901 42.3643 80.9708 43.8016 80.9336 45.272L84.9323 45.3732C84.9622 44.1907 85.1393 43.0021 85.3376 41.6627C85.5296 40.3659 85.7421 38.9239 85.7629 37.4422L81.7633 37.3859ZM80.9491 45.0689C80.971 44.8975 81.058 44.7308 81.18 44.6122C81.2891 44.5061 81.4013 44.4605 81.4875 44.4429C81.6336 44.413 82.0121 44.4396 82.2331 44.8154L78.7851 46.843C79.6022 48.2326 81.1166 48.601 82.2874 48.3621C83.4675 48.1212 84.7115 47.1815 84.9168 45.5764L80.9491 45.0689ZM108.494 53.1895L107.944 55.1123L108.047 55.1417L108.152 55.16L108.494 53.1895ZM107.538 49.3168L109.532 49.1679L109.437 47.8914L108.238 47.4434L107.538 49.3168ZM102.15 44.1514L100.154 44.2833L100.168 44.5001L100.229 44.7088L102.15 44.1514ZM104.649 43.2916L106.473 42.4703L106.427 42.3693L106.371 42.2739L104.649 43.2916ZM107.836 46.512L106.925 48.2926L109.546 49.6331L109.827 46.7027L107.836 46.512ZM108.571 40.7688L110.555 41.0226L110.732 39.633L109.487 38.9911L108.571 40.7688ZM104.608 34.3944L106.42 35.24L106.451 35.1732L106.477 35.1041L104.608 34.3944ZM109.788 30.3087L110.117 32.2813L111.381 32.0703L111.718 30.8342L109.788 30.3087ZM110.946 25.9807L109.871 24.2942L109.782 24.3513L109.699 24.4175L110.946 25.9807ZM112.832 26.3731L114.676 25.5987L114.586 25.3838L114.448 25.1954L112.832 26.3731ZM112.601 30.3056L110.601 30.2826L110.585 31.7218L111.944 32.1946L112.601 30.3056ZM117.987 35.017L119.973 34.782L119.966 34.728L119.957 34.6744L117.987 35.017ZM116.168 37.4156L115.62 39.339L115.681 39.3565L115.743 39.37L116.168 37.4156ZM115.199 35.2955L117.132 35.8093L117.314 35.1243L117.024 34.4776L115.199 35.2955ZM112.158 33.0616L112.908 31.2077L110.503 30.2344L110.174 32.8078L112.158 33.0616ZM111.857 35.4125L109.873 35.1587L109.864 35.233L109.86 35.3078L111.857 35.4125ZM111.519 38.9986L109.535 38.7448L109.314 40.475L110.998 40.9295L111.519 38.9986ZM115.938 41.1062L117.127 39.4982L117.113 39.4877L117.098 39.4773L115.938 41.1062ZM117.619 43.8014L115.621 43.8851L115.625 43.9771L115.637 44.0683L117.619 43.8014ZM110.283 49.8494L110.245 47.8497L108.389 47.8841L108.286 49.7376L110.283 49.8494ZM107.405 34.7522L109.076 35.8515L109.082 35.8412L109.089 35.8308L107.405 34.7522ZM108.413 37.5124L107.019 38.9472L107.036 38.9634L107.053 38.9792L108.413 37.5124ZM108.884 37.8449L107.912 39.5926L110.493 41.0289L110.868 38.0987L108.884 37.8449ZM109.411 33.2547L111.395 33.5084L111.772 30.558L108.898 31.3217L109.411 33.2547ZM110.48 47.1224L108.496 46.8686L108.158 49.5137L110.792 49.0979L110.48 47.1224ZM114.746 45.2183L116.435 46.2891L116.521 46.1542L116.584 46.0073L114.746 45.2183ZM114.179 43.2705L112.714 44.6321L112.72 44.6387L112.726 44.6453L114.179 43.2705ZM111.169 41.7363L111.567 39.7763L109.458 39.3482L109.185 41.4825L111.169 41.7363ZM109.044 51.2666C109.027 51.2617 109.079 51.2742 109.159 51.334C109.244 51.3969 109.315 51.4794 109.364 51.5648C109.448 51.7099 109.411 51.7627 109.408 51.5416C109.405 51.3185 109.432 51.0601 109.477 50.6255C109.514 50.2636 109.573 49.7096 109.532 49.1679L105.543 49.4658C105.553 49.5958 105.541 49.8003 105.498 50.2135C105.463 50.554 105.4 51.0875 105.408 51.6031C105.416 52.1206 105.492 52.8589 105.901 53.5664C106.353 54.3486 107.077 54.8641 107.944 55.1123L109.044 51.2666ZM108.238 47.4434C106.24 46.6969 104.524 45.156 104.071 43.594L100.229 44.7088C101.161 47.9212 104.159 50.1893 106.838 51.1903L108.238 47.4434ZM104.145 44.0195C104.154 44.1514 104.111 44.3134 104.014 44.4455C103.929 44.5602 103.83 44.619 103.747 44.6472C103.666 44.675 103.533 44.6952 103.365 44.6436C103.171 44.5841 103.011 44.4514 102.927 44.3092L106.371 42.2739C105.445 40.7084 103.715 40.4332 102.46 40.8601C101.205 41.2868 100.038 42.5281 100.154 44.2833L104.145 44.0195ZM102.825 44.1129C103.678 46.0053 105.171 47.3955 106.925 48.2926L108.747 44.7314C107.662 44.1766 106.892 43.4021 106.473 42.4703L102.825 44.1129ZM109.827 46.7027C110.004 44.8575 110.3 43.0148 110.555 41.0226L106.587 40.515C106.355 42.3317 106.029 44.4018 105.845 46.3213L109.827 46.7027ZM109.487 38.9911C108.538 38.5018 107.492 37.7591 106.852 36.9534C106.236 36.1791 106.215 35.6798 106.42 35.24L102.795 33.5488C101.709 35.8775 102.576 38.0023 103.72 39.4414C104.838 40.8492 106.419 41.9095 107.654 42.5465L109.487 38.9911ZM106.477 35.1041C107.016 33.6859 108.474 32.5558 110.117 32.2813L109.458 28.336C106.59 28.8151 103.842 30.7763 102.738 33.6847L106.477 35.1041ZM111.718 30.8342C111.85 30.3461 111.911 29.8272 111.951 29.4257C111.998 28.965 112.023 28.631 112.073 28.2678C112.12 27.9195 112.174 27.6954 112.228 27.5545C112.279 27.4207 112.29 27.4672 112.194 27.5439L109.699 24.4175C108.482 25.3887 108.221 26.9153 108.11 27.7242C108.048 28.1783 108.006 28.6865 107.972 29.0207C107.932 29.4141 107.896 29.6428 107.858 29.7832L111.718 30.8342ZM112.021 27.6672C111.831 27.7888 111.652 27.7911 111.545 27.7693C111.436 27.7468 111.311 27.6821 111.215 27.5507L114.448 25.1954C113.423 23.7875 111.402 23.3182 109.871 24.2942L112.021 27.6672ZM110.988 27.1474C111.004 27.187 111.053 27.3478 110.944 27.9558C110.919 28.096 110.89 28.2418 110.856 28.4106C110.823 28.5722 110.784 28.76 110.749 28.9487C110.679 29.3232 110.607 29.7871 110.601 30.2826L114.601 30.3285C114.606 29.8995 114.717 29.5829 114.882 28.6598C115.013 27.9298 115.169 26.7737 114.676 25.5987L110.988 27.1474ZM111.944 32.1946C112.945 32.5428 113.966 33.0113 114.749 33.604C115.531 34.1953 115.916 34.7818 116.016 35.3596L119.957 34.6744C119.622 32.7467 118.414 31.3602 117.162 30.4135C115.912 29.4682 114.457 28.8338 113.258 28.4166L111.944 32.1946ZM116.001 35.252C116.007 35.3076 116.007 35.4049 115.985 35.5154C115.963 35.6273 115.932 35.6907 115.923 35.7047C115.915 35.7187 115.968 35.6226 116.132 35.5392C116.215 35.4966 116.308 35.4677 116.402 35.4565C116.495 35.4454 116.562 35.4546 116.592 35.4612L115.743 39.37C116.505 39.5355 117.27 39.4492 117.951 39.1015C118.603 38.7687 119.051 38.2619 119.344 37.7777C119.906 36.8508 120.084 35.7192 119.973 34.782L116.001 35.252ZM116.716 35.4922C116.76 35.5048 116.848 35.5423 116.938 35.6259C117.025 35.7071 117.074 35.7935 117.097 35.8532C117.119 35.9082 117.116 35.9328 117.116 35.9157C117.116 35.8992 117.118 35.8615 117.132 35.8093L113.266 34.7818C113.067 35.5311 113.032 36.4412 113.372 37.3103C113.739 38.2494 114.508 39.0224 115.62 39.339L116.716 35.4922ZM117.024 34.4776C116.542 33.4014 115.696 32.6912 114.974 32.2282C114.246 31.7604 113.463 31.4324 112.908 31.2077L111.407 34.9155C111.945 35.133 112.424 35.3445 112.814 35.5943C113.21 35.849 113.338 36.0347 113.374 36.1135L117.024 34.4776ZM110.174 32.8078L109.873 35.1587L113.841 35.6662L114.142 33.3154L110.174 32.8078ZM109.86 35.3078C109.8 36.445 109.687 37.5571 109.535 38.7448L113.503 39.2523C113.663 37.9999 113.788 36.7834 113.854 35.5171L109.86 35.3078ZM110.998 40.9295C112.271 41.273 113.428 41.7736 114.777 42.7351L117.098 39.4773C115.343 38.227 113.75 37.529 112.04 37.0677L110.998 40.9295ZM114.748 42.7142C115.144 43.0069 115.349 43.2142 115.463 43.3801C115.552 43.5092 115.611 43.6471 115.621 43.8851L119.617 43.7176C119.527 41.5698 118.249 40.3279 117.127 39.4982L114.748 42.7142ZM115.637 44.0683C115.779 45.1209 115.33 45.9472 114.278 46.6541C113.163 47.4034 111.584 47.8249 110.245 47.8497L110.32 51.849C112.285 51.8126 114.646 51.2259 116.509 49.9743C118.435 48.6803 120.002 46.5133 119.601 43.5345L115.637 44.0683ZM108.286 49.7376C108.274 49.9389 108.27 50.1518 108.267 50.3327C108.264 50.5262 108.261 50.6984 108.254 50.8712C108.239 51.232 108.21 51.4663 108.172 51.6103C108.13 51.7685 108.136 51.5952 108.372 51.4117C108.673 51.1777 108.932 51.2356 108.837 51.219L108.152 55.16C109.047 55.3155 110.017 55.1996 110.828 54.5686C111.574 53.9882 111.89 53.1949 112.039 52.6326C112.191 52.0563 112.233 51.4698 112.25 51.0323C112.26 50.8059 112.263 50.5846 112.266 50.4055C112.27 50.2139 112.273 50.0752 112.279 49.9611L108.286 49.7376ZM105.734 33.6529C105.362 34.219 105.117 34.8701 105.108 35.5866C105.1 36.3001 105.328 36.8949 105.595 37.3464C105.85 37.7789 106.166 38.1213 106.405 38.3609C106.575 38.5319 106.957 38.887 107.019 38.9472L109.806 36.0776C109.695 35.9695 109.576 35.8596 109.486 35.775C109.388 35.683 109.309 35.6082 109.238 35.5372C109.168 35.4671 109.119 35.4134 109.084 35.3712C109.049 35.329 109.037 35.3097 109.038 35.3111C109.044 35.3209 109.11 35.4413 109.108 35.6338C109.105 35.8295 109.035 35.9131 109.076 35.8515L105.734 33.6529ZM107.053 38.9792C107.271 39.1813 107.499 39.3368 107.63 39.4218C107.704 39.4698 107.769 39.5091 107.816 39.5375C107.84 39.5518 107.861 39.5637 107.877 39.5729C107.885 39.5775 107.892 39.5815 107.898 39.5848C107.901 39.5865 107.904 39.5879 107.906 39.5892C107.907 39.5899 107.908 39.5905 107.909 39.5911C107.91 39.5914 107.91 39.5916 107.911 39.5919C107.911 39.592 107.911 39.5921 107.911 39.5923C107.911 39.5923 107.912 39.5924 107.912 39.5925C107.912 39.5925 107.912 39.5926 108.884 37.8449C109.857 36.0972 109.857 36.0973 109.857 36.0974C109.857 36.0974 109.857 36.0975 109.857 36.0976C109.858 36.0977 109.858 36.0978 109.858 36.0979C109.858 36.0982 109.859 36.0984 109.859 36.0986C109.86 36.099 109.861 36.0994 109.861 36.0997C109.862 36.1004 109.863 36.101 109.864 36.1015C109.866 36.1024 109.867 36.1028 109.867 36.1028C109.866 36.1027 109.863 36.101 109.858 36.0978C109.847 36.0912 109.829 36.0804 109.809 36.0671C109.751 36.0297 109.744 36.0189 109.772 36.0456L107.053 38.9792ZM110.868 38.0987C110.972 37.2876 111.056 36.5078 111.138 35.7533C111.22 34.9932 111.299 34.2594 111.395 33.5084L107.427 33.0009C107.325 33.7973 107.242 34.5701 107.161 35.324C107.079 36.0835 106.999 36.8251 106.901 37.5912L110.868 38.0987ZM108.898 31.3217C108.437 31.4441 107.823 31.6222 107.214 32.0408C106.6 32.4624 106.138 33.0213 105.721 33.6736L109.089 35.8308C109.352 35.4209 109.471 35.3433 109.478 35.3378C109.491 35.3294 109.54 35.2898 109.925 35.1876L108.898 31.3217ZM110.792 49.0979C111.527 48.9819 112.56 48.8112 113.539 48.4554C114.51 48.1028 115.68 47.4799 116.435 46.2891L113.057 44.1474C112.978 44.2715 112.757 44.4837 112.173 44.696C111.598 44.905 110.915 45.029 110.168 45.1469L110.792 49.0979ZM116.584 46.0073C116.932 45.1976 116.997 44.3388 116.693 43.4962C116.431 42.7734 115.952 42.2345 115.631 41.8958L112.726 44.6453C112.845 44.7705 112.908 44.8473 112.942 44.8946C112.974 44.9393 112.955 44.9229 112.93 44.8551C112.918 44.8197 112.905 44.7739 112.896 44.7198C112.888 44.6653 112.885 44.6113 112.888 44.5607C112.893 44.4569 112.918 44.4076 112.908 44.4293L116.584 46.0073ZM115.644 41.909C114.465 40.6404 113.019 40.071 111.567 39.7763L110.771 43.6963C111.737 43.8923 112.298 44.1845 112.714 44.6321L115.644 41.909ZM109.185 41.4825L108.496 46.8686L112.464 47.3762L113.153 41.99L109.185 41.4825ZM122.325 49.8473L121.187 48.203L121.091 48.2693L121.004 48.3463L122.325 49.8473ZM120.132 49.0224L118.137 49.1579L118.141 49.2215L118.149 49.2848L120.132 49.0224ZM120.63 41.5855L118.643 41.353L118.637 41.4044L118.634 41.4559L120.63 41.5855ZM121.226 33.3748L123.198 33.7136L123.307 33.0784L123.024 32.4989L121.226 33.3748ZM128.241 30.7939L128.207 32.7936L128.227 32.7939L128.247 32.7939L128.241 30.7939ZM133.62 42.8842L134.956 44.3725L135.008 44.3255L135.057 44.275L133.62 42.8842ZM123.047 44.6771L123.334 42.6979L121.321 42.4056L121.063 44.4234L123.047 44.6771ZM122.852 47.8581L124.85 47.939L124.852 47.9087L124.852 47.8783L122.852 47.8581ZM123.905 33.7174L124.158 31.7335L122.258 31.4905L121.934 33.3786L123.905 33.7174ZM123.393 41.9692L121.405 41.7586L121.199 43.7047L123.14 43.953L123.393 41.9692ZM132.064 40.6285L133.432 42.0867L133.526 41.9993L133.607 41.9008L132.064 40.6285ZM130.988 34.1396L131.801 32.3123L131.789 32.307L131.777 32.3018L130.988 34.1396ZM124.545 33.6783L124.539 35.6783L124.653 35.6786L124.766 35.666L124.545 33.6783ZM121.004 48.3463C121.256 48.1243 121.535 48.1418 121.679 48.1938C121.842 48.2526 122.073 48.4403 122.115 48.7601L118.149 49.2848C118.507 51.9831 121.747 53.021 123.647 51.3484L121.004 48.3463ZM122.128 48.8869C122.055 47.8224 122.127 46.697 122.25 45.4775C122.366 44.3213 122.545 42.9574 122.626 41.715L118.634 41.4559C118.559 42.6132 118.405 43.7321 118.27 45.0767C118.141 46.3579 118.041 47.7512 118.137 49.1579L122.128 48.8869ZM122.616 41.8179C122.79 40.3321 122.823 38.8671 122.871 37.5456C122.92 36.1895 122.986 34.9464 123.198 33.7136L119.255 33.036C118.994 34.5554 118.923 36.032 118.874 37.4004C118.823 38.8033 118.794 40.0675 118.643 41.353L122.616 41.8179ZM123.024 32.4989C122.969 32.3849 123.056 32.5016 123.009 32.7613C122.958 33.0416 122.803 33.2005 122.757 33.2389C122.735 33.2575 122.796 33.2025 123.023 33.1245C123.238 33.0507 123.527 32.9817 123.886 32.9249C125.399 32.6859 127.28 32.7783 128.207 32.7936L128.274 28.7942C127.571 28.7825 125.215 28.6655 123.262 28.9738C122.343 29.119 121.102 29.4111 120.197 30.1656C119.689 30.5887 119.226 31.2088 119.074 32.0418C118.926 32.8541 119.119 33.6148 119.428 34.2507L123.024 32.4989ZM128.247 32.7939C130.991 32.7855 132.79 34.1562 133.523 35.7776C134.245 37.3771 134.076 39.5371 132.183 41.4933L135.057 44.275C138.008 41.2254 138.614 37.3298 137.168 34.1304C135.732 30.9528 132.419 28.7812 128.235 28.7939L128.247 32.7939ZM132.284 41.3958C131.296 42.2824 129.98 42.7559 128.385 42.9257C126.78 43.0966 125.033 42.9444 123.334 42.6979L122.76 46.6564C124.565 46.9185 126.704 47.1273 128.809 46.9032C130.924 46.678 133.142 46.0008 134.956 44.3725L132.284 41.3958ZM121.063 44.4234C120.913 45.6001 120.863 46.7673 120.852 47.8379L124.852 47.8783C124.862 46.8949 124.907 45.8967 125.031 44.9309L121.063 44.4234ZM120.854 47.7771C120.848 47.9088 120.848 48.0328 120.848 48.1353C120.849 48.1869 120.849 48.2378 120.85 48.2825C120.85 48.329 120.851 48.3694 120.851 48.4089C120.852 48.5766 120.848 48.6491 120.843 48.6862C120.839 48.7168 120.844 48.6462 120.901 48.5334C120.967 48.4027 121.07 48.2837 121.187 48.203L123.464 51.4917C124.428 50.8241 124.724 49.8715 124.811 49.1937C124.851 48.8773 124.852 48.5819 124.851 48.3836C124.85 48.1403 124.846 48.0497 124.85 47.939L120.854 47.7771ZM121.934 33.3786C121.67 34.911 121.614 36.4148 121.581 37.7989C121.548 39.2235 121.539 40.4899 121.405 41.7586L125.382 42.1798C125.539 40.7032 125.549 39.2198 125.58 37.8929C125.612 36.5255 125.666 35.2759 125.876 34.0561L121.934 33.3786ZM123.14 43.953C124.527 44.1305 126.323 44.359 128.087 44.2274C129.871 44.0942 131.842 43.5794 133.432 42.0867L130.695 39.1702C130.017 39.8069 129.066 40.1432 127.789 40.2385C126.491 40.3354 125.087 40.1695 123.647 39.9854L123.14 43.953ZM133.607 41.9008C134.781 40.4764 135.314 38.5909 135.094 36.8182C134.867 34.9947 133.818 33.2097 131.801 32.3123L130.175 35.9668C130.734 36.2155 131.046 36.6763 131.125 37.3115C131.21 37.9974 130.993 38.7833 130.521 39.3561L133.607 41.9008ZM131.777 32.3018C129.228 31.2072 126.44 31.4546 124.323 31.6906L124.766 35.666C126.945 35.4231 128.735 35.3487 130.199 35.9774L131.777 32.3018ZM124.55 31.6783C124.398 31.6778 124.266 31.6881 124.166 31.6985C124.08 31.7074 123.98 31.721 123.96 31.7235C123.919 31.7287 123.931 31.7262 123.962 31.7248C123.998 31.723 124.068 31.7219 124.158 31.7335L123.651 35.7012C124.028 35.7495 124.348 35.7064 124.464 35.6916C124.628 35.6708 124.58 35.6784 124.539 35.6783L124.55 31.6783ZM144.851 54.6644L144.841 56.6644L144.904 56.6647L144.966 56.6611L144.851 54.6644ZM137.488 49.3371L135.587 49.9588L135.615 50.0447L135.651 50.1278L137.488 49.3371ZM143.839 33.9687L143.23 32.0637L143.154 32.0881L143.08 32.1185L143.839 33.9687ZM148.573 33.8483L147.05 35.1455L147.51 35.6855L148.208 35.8148L148.573 33.8483ZM153.644 37.9449L151.75 38.587L151.765 38.6309L151.781 38.6741L153.644 37.9449ZM152.565 50.6306L154.305 51.6166L154.326 51.5796L154.346 51.5418L152.565 50.6306ZM139.936 42.9662L137.976 42.5683L137.975 42.5734L139.936 42.9662ZM141.645 50.4132L143.162 49.1104L143 48.9219L142.797 48.7786L141.645 50.4132ZM149.545 50.1233L150.732 51.7331L150.985 51.547L151.168 51.2925L149.545 50.1233ZM150.43 37.5338L152.169 36.5465L152.081 36.3905L151.966 36.2527L150.43 37.5338ZM147.491 35.9179L149.116 34.7518L148.532 33.9374L147.529 33.9182L147.491 35.9179ZM144.862 52.6644C142.647 52.6529 140.308 50.8296 139.325 48.5463L135.651 50.1278C137.093 53.4777 140.648 56.6426 144.841 56.6644L144.862 52.6644ZM139.389 48.7153C138.624 46.3764 138.761 43.5899 139.726 41.1289C140.689 38.6721 142.4 36.7211 144.598 35.8189L143.08 32.1185C139.66 33.5221 137.271 36.4303 136.002 39.6686C134.733 42.9028 134.504 46.6476 135.587 49.9588L139.389 48.7153ZM144.448 35.8737C144.654 35.8078 144.867 35.7336 145.061 35.6659C145.263 35.5954 145.451 35.5297 145.642 35.4668C146.027 35.3394 146.352 35.2487 146.632 35.2022C146.917 35.1549 147.057 35.1709 147.102 35.181C147.117 35.1844 147.106 35.1838 147.084 35.1708C147.06 35.1568 147.049 35.1436 147.05 35.1455L150.095 32.5511C148.837 31.0754 147.104 31.069 145.976 31.2563C144.926 31.4308 143.706 31.9116 143.23 32.0637L144.448 35.8737ZM148.208 35.8148C149.385 36.0331 150.075 36.3157 150.543 36.6731C150.977 37.0046 151.392 37.5324 151.75 38.587L155.538 37.3027C154.995 35.7016 154.189 34.425 152.97 33.494C151.785 32.589 150.389 32.1511 148.937 31.8818L148.208 35.8148ZM151.781 38.6741C153.117 42.0837 152.573 46.2267 150.785 49.7194L154.346 51.5418C156.51 47.3135 157.363 41.9569 155.506 37.2157L151.781 38.6741ZM150.825 49.6446C150.389 50.4144 149.535 51.1463 148.352 51.7169C147.184 52.2802 145.864 52.6029 144.736 52.6677L144.966 56.6611C146.612 56.5665 148.445 56.113 150.09 55.3197C151.719 54.5336 153.335 53.3284 154.305 51.6166L150.825 49.6446ZM137.975 42.5734C137.704 43.9237 137.496 45.6272 137.739 47.2944C137.986 48.9939 138.732 50.8068 140.492 52.0478L142.797 48.7786C142.199 48.357 141.84 47.6997 141.697 46.7179C141.549 45.7039 141.665 44.5152 141.897 43.359L137.975 42.5734ZM140.127 51.716C141.738 53.5919 143.881 54.059 145.817 53.8138C147.677 53.5782 149.428 52.6944 150.732 51.7331L148.359 48.5135C147.425 49.2017 146.306 49.7199 145.314 49.8455C144.399 49.9614 143.71 49.7487 143.162 49.1104L140.127 51.716ZM151.168 51.2925C154.159 47.1411 154.735 41.0666 152.169 36.5465L148.691 38.5211C150.42 41.567 150.08 45.9609 147.923 48.9541L151.168 51.2925ZM151.966 36.2527C151.146 35.2703 149.931 34.9701 149.54 34.8483C148.896 34.6478 149.016 34.613 149.116 34.7518L145.866 37.0839C146.659 38.1885 147.882 38.5215 148.35 38.6674C149.072 38.892 148.979 38.917 148.894 38.8148L151.966 36.2527ZM147.529 33.9182C142.308 33.8184 138.821 38.4045 137.976 42.5683L141.896 43.364C142.523 40.2761 144.89 37.8685 147.453 37.9175L147.529 33.9182ZM167.838 58.6028L166.298 59.8799L166.425 60.0325L166.579 60.1573L167.838 58.6028ZM165.545 53.5914L167.452 52.9882L167.395 52.8097L167.307 52.6448L165.545 53.5914ZM163.367 48.6249L165.255 47.9647L164.8 46.6637L163.422 46.6257L163.367 48.6249ZM159.565 48.3201L159.819 46.3362L157.835 46.0825L157.581 48.0663L159.565 48.3201ZM158.882 54.3723L160.866 54.626L160.875 54.5521L160.879 54.4777L158.882 54.3723ZM158.116 56.8148L159.423 58.3287L159.454 58.3019L159.484 58.2739L158.116 56.8148ZM156.074 55.0414L157.705 56.1989L158.023 55.751L158.068 55.2035L156.074 55.0414ZM156.716 49.3166L158.68 49.6936L158.685 49.67L158.688 49.6464L156.716 49.3166ZM157.839 37.6952L159.823 37.949L159.955 36.921L159.191 36.2208L157.839 37.6952ZM159.491 35.1845L159.168 37.1582L159.203 37.1639L159.238 37.1684L159.491 35.1845ZM159.886 35.1745L159.864 33.1746L159.632 37.1583L159.886 35.1745ZM170.307 37.1728L171.558 35.613L171.503 35.5687L171.445 35.5285L170.307 37.1728ZM172.579 45.4178L174.264 46.4943L174.391 46.2961L174.468 46.0738L172.579 45.4178ZM166.203 48.4433L165.702 46.5071L163.529 47.0695L164.337 49.1634L166.203 48.4433ZM167.782 51.9419L169.631 51.178L169.583 51.0629L169.522 50.9546L167.782 51.9419ZM169.338 55.8609L171.191 55.1095L171.129 54.9556L171.042 54.814L169.338 55.8609ZM169.948 57.2395L171.918 56.8986L171.908 56.8392L171.894 56.7805L169.948 57.2395ZM160.63 37.8707L160.593 35.871L158.865 35.9031L158.646 37.6169L160.63 37.8707ZM159.908 45.6419L157.911 45.5268L157.804 47.3891L159.654 47.6257L159.908 45.6419ZM170.171 44.142L171.259 45.8203L171.991 45.3456L172.141 44.4856L170.171 44.142ZM169.377 57.3256C168.496 56.2641 168.022 54.7908 167.452 52.9882L163.638 54.1945C164.145 55.7961 164.821 58.0992 166.298 59.8799L169.377 57.3256ZM167.307 52.6448C166.504 51.1506 165.821 49.5815 165.255 47.9647L161.479 49.2852C162.11 51.0877 162.876 52.8494 163.783 54.5379L167.307 52.6448ZM163.422 46.6257C162.291 46.5945 161.041 46.4926 159.819 46.3362L159.312 50.3039C160.649 50.4749 162.032 50.5889 163.312 50.6242L163.422 46.6257ZM157.581 48.0663C157.337 49.9805 156.996 52.1553 156.885 54.2668L160.879 54.4777C160.98 52.5636 161.284 50.6472 161.549 48.5738L157.581 48.0663ZM156.898 54.1185C156.881 54.2504 156.867 54.3788 156.855 54.4928C156.842 54.6123 156.831 54.7113 156.819 54.8114C156.796 55.0113 156.775 55.1492 156.75 55.2573C156.703 55.464 156.675 55.4238 156.748 55.3557L159.484 58.2739C160.209 57.5937 160.507 56.7786 160.652 56.1403C160.775 55.5966 160.832 54.8879 160.866 54.626L156.898 54.1185ZM156.809 55.3009C156.91 55.2136 157.095 55.1374 157.3 55.1508C157.471 55.1619 157.579 55.228 157.638 55.2801C157.696 55.3313 157.784 55.4368 157.818 55.6225C157.86 55.8464 157.8 56.0661 157.705 56.1989L154.443 53.884C153.271 55.5356 153.946 57.359 154.995 58.2825C156.052 59.2128 157.916 59.6297 159.423 58.3287L156.809 55.3009ZM158.068 55.2035C158.23 53.2042 158.343 51.449 158.68 49.6936L154.752 48.9396C154.363 50.9627 154.235 52.9874 154.081 54.8794L158.068 55.2035ZM158.688 49.6464C159.027 47.6201 159.19 45.5991 159.328 43.6555C159.469 41.6854 159.585 39.8132 159.823 37.949L155.856 37.4415C155.599 39.4457 155.475 41.4595 155.339 43.3706C155.2 45.3082 155.048 47.1636 154.743 48.9868L158.688 49.6464ZM159.191 36.2208C159.112 36.1489 159.228 36.2219 159.26 36.4684C159.294 36.7228 159.208 36.9361 159.12 37.0544C159.043 37.1579 158.984 37.1713 159.007 37.1632C159.021 37.1579 159.076 37.1432 159.168 37.1582L159.815 33.2108C158.353 32.9714 156.798 33.4721 155.909 34.6689C155.447 35.2913 155.178 36.105 155.295 36.992C155.411 37.8711 155.876 38.6088 156.488 39.1696L159.191 36.2208ZM159.238 37.1684C159.539 37.2069 159.784 37.1907 159.868 37.1863C159.952 37.1819 159.874 37.1893 159.781 37.1774L160.288 33.2097C159.987 33.1711 159.742 33.1874 159.658 33.1918C159.575 33.1962 159.652 33.1888 159.745 33.2007L159.238 37.1684ZM160.288 33.2097L160.14 33.1907L159.632 37.1583L159.781 37.1774L160.288 33.2097ZM159.908 37.1744C163.542 37.1343 166.784 37.1668 169.168 38.8172L171.445 35.5285C167.827 33.0238 163.196 33.1379 159.864 33.1746L159.908 37.1744ZM169.055 38.7327C170.696 40.0494 171.431 42.627 170.689 44.7617L174.468 46.0738C175.738 42.4169 174.58 38.0381 171.558 35.613L169.055 38.7327ZM170.893 44.3412C170.589 44.8171 170.016 45.2303 169.029 45.5998C168 45.9848 166.952 46.1837 165.702 46.5071L166.705 50.3795C167.645 50.1361 169.141 49.8289 170.431 49.3461C171.763 48.8477 173.282 48.0316 174.264 46.4943L170.893 44.3412ZM164.337 49.1634C164.794 50.3458 165.297 51.615 166.043 52.9292L169.522 50.9546C168.935 49.9208 168.522 48.8952 168.069 47.7232L164.337 49.1634ZM165.934 52.7058C166.18 53.3026 166.343 53.8542 166.604 54.6124C166.845 55.3098 167.152 56.1239 167.633 56.9078L171.042 54.814C170.797 54.4163 170.604 53.9415 170.387 53.31C170.19 52.7395 169.938 51.9224 169.631 51.178L165.934 52.7058ZM167.484 56.6123C167.631 56.9759 167.825 57.3271 167.896 57.4665C167.99 57.6491 167.999 57.6916 168.001 57.6984L171.894 56.7805C171.778 56.2884 171.586 55.8967 171.456 55.6425C171.303 55.3449 171.251 55.2564 171.191 55.1095L167.484 56.6123ZM167.977 57.5803C167.928 57.3004 168.081 57.0763 168.23 56.9798C168.309 56.9282 168.434 56.8765 168.604 56.8776C168.79 56.8789 168.97 56.9462 169.096 57.0483L166.579 60.1573C167.83 61.1702 169.375 61.0066 170.411 60.3328C171.433 59.6676 172.175 58.3848 171.918 56.8986L167.977 57.5803ZM158.646 37.6169C158.305 40.2812 158.063 42.898 157.911 45.5268L161.905 45.757C162.051 43.2218 162.284 40.6975 162.614 38.1244L158.646 37.6169ZM159.654 47.6257C163.19 48.078 167.626 48.175 171.259 45.8203L169.083 42.4636C166.715 43.9988 163.529 44.0888 160.162 43.6581L159.654 47.6257ZM172.141 44.4856C172.459 42.6673 172.246 41.0353 171.448 39.6701C170.661 38.3243 169.444 37.4762 168.198 36.9415C165.793 35.9099 162.762 35.8307 160.593 35.871L160.667 39.8703C162.833 39.8301 165.083 39.9577 166.621 40.6174C167.345 40.9284 167.765 41.2971 167.994 41.6889C168.212 42.0614 168.395 42.6878 168.201 43.7984L172.141 44.4856ZM185.201 59.614L186.979 58.6992L186.906 58.5564L186.811 58.4272L185.201 59.614ZM180.991 52.331L179.211 53.2436L179.242 53.3046L179.278 53.3634L180.991 52.331ZM179.311 48.9102L180.852 47.6349L179.662 46.1971L178.145 47.2854L179.311 48.9102ZM176.558 51.2801L175.857 49.4072L174.728 49.8302L174.575 51.0263L176.558 51.2801ZM176.422 53.5309L178.363 54.0121L178.391 53.8997L178.405 53.7847L176.422 53.5309ZM175.841 57.3582L177.633 58.247L177.682 58.1485L177.72 58.0454L175.841 57.3582ZM173.749 57.635L172.344 59.0581L172.355 59.0689L172.366 59.0796L173.749 57.635ZM173.721 51.9455L171.732 51.7358L171.709 51.9583L171.735 52.1804L173.721 51.9455ZM175.54 39.1428L173.569 38.8031L173.562 38.8459L173.556 38.889L175.54 39.1428ZM177.035 38.094L177.365 36.1214L177.327 36.1151L177.289 36.1102L177.035 38.094ZM178.013 41.0923L176.037 40.7835L176.032 40.811L176.029 40.8385L178.013 41.0923ZM177.139 47.2109L175.169 46.87L174.237 52.2544L178.424 48.7435L177.139 47.2109ZM187.547 39.6201L187.441 37.6228L187.032 37.6444L186.664 37.8252L187.547 39.6201ZM188.946 40.9785L190.946 40.9903L190.946 40.953L190.945 40.9157L188.946 40.9785ZM186.617 43.3422L187.658 45.0498L187.77 44.9815L187.872 44.8991L186.617 43.3422ZM181.475 47.1303L180.235 45.5605L178.785 46.7056L179.812 48.2419L181.475 47.1303ZM183.162 50.4916L181.235 51.0275L181.3 51.2628L181.42 51.4753L183.162 50.4916ZM187.553 58.2514L189.271 57.2286L189.231 57.1611L189.186 57.0969L187.553 58.2514ZM186.811 58.4272C186.075 57.4293 185.433 56.3034 184.773 55.0728C184.134 53.8818 183.449 52.5354 182.704 51.2986L179.278 53.3634C179.955 54.4861 180.55 55.6625 181.248 56.9638C181.925 58.2255 182.677 59.5614 183.591 60.8008L186.811 58.4272ZM182.77 51.4184C182.528 50.9452 182.385 50.5193 182.084 49.7957C181.82 49.1595 181.454 48.3619 180.852 47.6349L177.771 50.1856C177.981 50.4396 178.164 50.7858 178.391 51.3316C178.582 51.7899 178.873 52.5839 179.211 53.2436L182.77 51.4184ZM178.145 47.2854C177.453 47.7818 176.843 48.5065 176.543 48.8256C176.141 49.2537 175.963 49.3672 175.857 49.4072L177.26 53.153C178.297 52.7646 179.012 52.0397 179.46 51.5633C180.009 50.9777 180.203 50.7318 180.477 50.5351L178.145 47.2854ZM174.575 51.0263C174.51 51.5281 174.499 52.0027 174.489 52.3636C174.479 52.7546 174.47 53.0222 174.438 53.2772L178.405 53.7847C178.468 53.2957 178.478 52.8247 178.488 52.4698C178.498 52.0847 178.507 51.8057 178.542 51.5339L174.575 51.0263ZM174.48 53.0497C174.273 53.8865 174.236 54.7401 174.194 55.2914C174.148 55.9143 174.093 56.3157 173.963 56.6711L177.72 58.0454C178.055 57.1295 178.134 56.2476 178.183 55.5897C178.238 54.8603 178.258 54.4359 178.363 54.0121L174.48 53.0497ZM174.05 56.4695C174.219 56.1276 174.508 56.029 174.637 56.0125C174.765 55.9963 174.957 56.0222 175.133 56.1905L172.366 59.0796C173.162 59.8413 174.216 60.0986 175.143 59.9804C176.072 59.862 177.097 59.3283 177.633 58.247L174.05 56.4695ZM175.155 56.2119C175.41 56.4638 175.356 56.6628 175.333 56.3703C175.313 56.1191 175.334 55.7458 175.402 55.2189C175.434 54.9662 175.473 54.7055 175.515 54.4262C175.556 54.1548 175.601 53.8602 175.638 53.5754C175.708 53.0496 175.783 52.3515 175.707 51.7105L171.735 52.1804C171.746 52.2764 171.741 52.5321 171.673 53.0538C171.641 53.2928 171.603 53.5454 171.56 53.8294C171.518 54.1054 171.473 54.408 171.434 54.7114C171.359 55.2967 171.291 56.0065 171.345 56.6861C171.396 57.3246 171.579 58.3025 172.344 59.0581L175.155 56.2119ZM175.71 52.1551C175.844 50.8787 176.054 49.5765 176.28 48.2215C176.503 46.8849 176.745 45.4848 176.923 44.0983L172.955 43.5907C172.79 44.8823 172.564 46.1898 172.335 47.5627C172.109 48.9173 171.881 50.3264 171.732 51.7358L175.71 52.1551ZM176.923 44.0983L177.524 39.3966L173.556 38.889L172.955 43.5907L176.923 44.0983ZM177.511 39.4825C177.458 39.7931 177.281 39.9482 177.206 39.9979C177.141 40.0409 177.009 40.1069 176.781 40.0779L177.289 36.1102C176.437 36.0012 175.615 36.2513 174.989 36.6685C174.352 37.0924 173.74 37.8119 173.569 38.8031L177.511 39.4825ZM176.705 40.0666C176.717 40.0686 176.668 40.0619 176.587 40.0186C176.501 39.973 176.41 39.903 176.332 39.8102C176.178 39.6273 176.172 39.4803 176.179 39.5366C176.187 39.597 176.189 39.7317 176.161 39.9767C176.13 40.2381 176.09 40.4452 176.037 40.7835L179.989 41.401C180.044 41.0491 180.266 39.9835 180.149 39.0422C180.083 38.5146 179.898 37.8342 179.39 37.2319C178.856 36.5986 178.134 36.2499 177.365 36.1214L176.705 40.0666ZM176.029 40.8385C175.769 42.8699 175.508 44.9088 175.169 46.87L179.11 47.5519C179.467 45.4889 179.739 43.3617 179.997 41.346L176.029 40.8385ZM178.424 48.7435C181.801 45.9125 184.893 43.1532 188.429 41.4149L186.664 37.8252C182.584 39.8308 179.05 42.9987 175.854 45.6783L178.424 48.7435ZM187.652 41.6173C187.332 41.6342 187.162 41.4999 187.113 41.4534C187.053 41.3962 186.954 41.2656 186.947 41.0414L190.945 40.9157C190.914 39.9323 190.45 39.1048 189.864 38.5494C189.289 38.0046 188.432 37.5707 187.441 37.6228L187.652 41.6173ZM186.946 40.9668C186.948 40.6267 187.208 40.5395 186.894 40.7713C186.742 40.8836 186.563 40.9919 186.282 41.1626C186.044 41.3073 185.684 41.5253 185.361 41.7852L187.872 44.8991C187.954 44.8328 188.087 44.747 188.36 44.581C188.59 44.4409 188.942 44.2314 189.27 43.9893C189.916 43.5122 190.936 42.5694 190.946 40.9903L186.946 40.9668ZM185.576 41.6345C183.641 42.8138 181.834 44.2984 180.235 45.5605L182.714 48.7001C184.412 47.3595 185.984 46.0705 187.658 45.0498L185.576 41.6345ZM179.812 48.2419C180.47 49.2254 180.992 50.1534 181.235 51.0275L185.089 49.9556C184.669 48.4464 183.851 47.0858 183.137 46.0187L179.812 48.2419ZM181.42 51.4753C182.738 53.8078 184.135 56.881 185.92 59.4059L189.186 57.0969C187.539 54.7672 186.495 52.3262 184.903 49.5078L181.42 51.4753ZM185.834 59.2742C185.806 59.2266 185.764 59.1315 185.751 58.9972C185.738 58.864 185.758 58.7387 185.796 58.6358C185.864 58.4469 185.97 58.3727 186.012 58.3484C186.053 58.3249 186.185 58.2615 186.407 58.3041C186.528 58.3272 186.658 58.3802 186.775 58.4684C186.892 58.5569 186.954 58.6492 186.979 58.6992L183.422 60.5288C183.896 61.4502 184.708 62.0516 185.656 62.2328C186.534 62.4009 187.372 62.1821 188.013 61.8119C188.655 61.441 189.255 60.8288 189.556 60.0004C189.878 59.1131 189.8 58.117 189.271 57.2286L185.834 59.2742ZM197.646 61.085L197.314 63.0573L197.463 63.0822L197.613 63.0847L197.646 61.085ZM190.735 60.0195L189.842 61.8091L189.957 61.8664L190.078 61.9085L190.735 60.0195ZM189.978 56.7168L191.914 57.2207L191.961 57.04L191.974 56.8536L189.978 56.7168ZM190.598 52.1082L192.564 52.4758L192.578 52.4034L192.586 52.3302L190.598 52.1082ZM192.486 41.129L190.718 40.1948L190.678 40.271L190.644 40.3503L192.486 41.129ZM204.694 41.6924L205.103 39.7347L205.026 39.7186L204.947 39.7086L204.694 41.6924ZM205.07 44.1903L205.774 46.0624L205.89 46.0187L205.999 45.9611L205.07 44.1903ZM201.573 43.864L201.241 45.8363L201.381 45.8598L201.523 45.8634L201.573 43.864ZM194.632 43.0366L194.606 41.0368L193.026 41.0571L192.68 42.5988L194.632 43.0366ZM193.641 48.6563L191.647 48.4972L191.495 50.3982L193.387 50.6401L193.641 48.6563ZM202.382 49.8349L202.995 47.9312L202.907 47.903L202.818 47.883L202.382 49.8349ZM201.712 52.4712L201.127 54.3837L201.136 54.3867L201.146 54.3897L201.712 52.4712ZM198.68 52.0532L198.461 54.0411L198.531 54.0489L198.602 54.0517L198.68 52.0532ZM193.35 51.4016L193.408 49.4025L191.622 49.3503L191.37 51.1199L193.35 51.4016ZM192.595 57.7773L190.608 57.5508L190.384 59.5109L192.341 59.7612L192.595 57.7773ZM199.659 58.5902L200.136 56.648L200.063 56.6299L199.988 56.6174L199.659 58.5902ZM202.667 59.1868L204.096 57.7869L204.06 57.7504L204.023 57.7158L202.667 59.1868ZM202.688 61.1553L203.719 62.8688L203.942 62.7349L204.123 62.5486L202.688 61.1553ZM197.978 59.1127C196.773 58.91 195.439 58.8197 194.382 58.7083C193.247 58.5888 192.269 58.4353 191.392 58.1305L190.078 61.9085C191.403 62.3692 192.754 62.5591 193.963 62.6863C195.248 62.8217 196.269 62.8814 197.314 63.0573L197.978 59.1127ZM191.628 58.23C191.662 58.2469 191.725 58.2966 191.768 58.3672C191.8 58.4199 191.784 58.4238 191.772 58.3266C191.76 58.228 191.759 58.0773 191.785 57.8707C191.809 57.6679 191.855 57.4476 191.914 57.2207L188.043 56.2128C187.873 56.8635 187.682 57.827 187.802 58.8083C187.93 59.8655 188.458 61.1182 189.842 61.8091L191.628 58.23ZM191.974 56.8536C192.071 55.4268 192.286 53.9647 192.564 52.4758L188.632 51.7406C188.336 53.3236 188.095 54.9486 187.983 56.5799L191.974 56.8536ZM192.586 52.3302C192.817 50.2632 192.898 48.6466 193.145 46.7483C193.376 44.9735 193.714 43.3625 194.329 41.9077L190.644 40.3503C189.828 42.2813 189.43 44.2962 189.178 46.2328C188.943 48.0457 188.796 50.2258 188.61 51.8862L192.586 52.3302ZM194.255 42.0632C194.076 42.4008 193.834 42.4638 193.931 42.4273C194.022 42.3931 194.246 42.3376 194.655 42.3111C195.467 42.2586 196.585 42.3429 197.864 42.5175C199.121 42.6891 200.428 42.9324 201.591 43.1575C202.7 43.372 203.783 43.5923 204.44 43.6763L204.947 39.7086C204.458 39.646 203.578 39.4676 202.351 39.2303C201.179 39.0036 199.779 38.7419 198.405 38.5543C197.054 38.3697 195.617 38.2406 194.397 38.3195C193.79 38.3587 193.129 38.4551 192.522 38.6838C191.92 38.9103 191.166 39.3473 190.718 40.1948L194.255 42.0632ZM204.284 43.6501C204.062 43.6036 203.893 43.4762 203.798 43.3568C203.714 43.2523 203.693 43.1657 203.686 43.1196C203.68 43.0741 203.676 42.9861 203.727 42.8624C203.784 42.723 203.914 42.5384 204.14 42.4196L205.999 45.9611C207.467 45.1904 207.799 43.6308 207.646 42.5556C207.49 41.4624 206.726 40.074 205.103 39.7347L204.284 43.6501ZM204.366 42.3183C204.41 42.3015 204.334 42.3561 203.782 42.2362C203.657 42.209 203.529 42.1784 203.374 42.1417C203.227 42.1067 203.056 42.066 202.881 42.0286C202.534 41.9545 202.097 41.8765 201.623 41.8646L201.523 45.8634C201.858 45.8718 202.112 45.9668 202.932 46.1449C203.565 46.2824 204.649 46.4854 205.774 46.0624L204.366 42.3183ZM201.905 41.8917C199.761 41.5312 197.198 41.0034 194.606 41.0368L194.657 45.0365C196.791 45.009 198.884 45.4397 201.241 45.8363L201.905 41.8917ZM192.68 42.5988C192.264 44.4534 191.811 46.4454 191.647 48.4972L195.634 48.8154C195.772 47.0949 196.155 45.3832 196.583 43.4745L192.68 42.5988ZM193.387 50.6401C196.468 51.0342 199.21 51.1757 201.946 51.7868L202.818 47.883C199.85 47.2201 196.587 47.0169 193.894 46.6725L193.387 50.6401ZM201.769 51.7386C201.687 51.7123 201.516 51.6046 201.417 51.3935C201.338 51.224 201.352 51.0883 201.372 51.0132C201.392 50.9415 201.453 50.7975 201.639 50.6739C201.738 50.6082 201.86 50.5587 201.992 50.5395C202.125 50.5202 202.225 50.5375 202.277 50.5528L201.146 54.3897C202.106 54.6724 203.073 54.5236 203.853 54.0057C204.585 53.5191 205.034 52.7895 205.231 52.0676C205.429 51.3423 205.411 50.4919 205.042 49.7011C204.653 48.8688 203.934 48.2335 202.995 47.9312L201.769 51.7386ZM202.297 50.5588C201.013 50.1657 199.8 50.0956 198.759 50.0547L198.602 54.0517C199.607 54.0911 200.373 54.1532 201.127 54.3837L202.297 50.5588ZM198.9 50.0653C198.085 49.9754 197.295 49.8387 196.351 49.6978C195.444 49.5624 194.449 49.4328 193.408 49.4025L193.292 53.4008C194.089 53.424 194.895 53.5247 195.761 53.654C196.59 53.7777 197.546 53.94 198.461 54.0411L198.9 50.0653ZM191.37 51.1199C191.065 53.2656 190.851 55.4135 190.608 57.5508L194.582 58.0039C194.835 55.7889 195.035 53.7556 195.33 51.6833L191.37 51.1199ZM192.341 59.7612C193.554 59.9163 194.78 60.0262 195.934 60.1405C197.107 60.2567 198.23 60.3795 199.33 60.563L199.988 56.6174C198.749 56.4109 197.515 56.2776 196.328 56.16C195.123 56.0406 193.987 55.9391 192.849 55.7935L192.341 59.7612ZM199.181 60.5324C199.641 60.6452 200.068 60.6715 200.388 60.6804C200.548 60.6848 200.707 60.6853 200.829 60.686C200.961 60.6868 201.061 60.688 201.153 60.6917C201.522 60.7067 201.423 60.7596 201.312 60.6577L204.023 57.7158C203.073 56.8412 201.983 56.722 201.314 56.695C201.147 56.6882 200.984 56.6869 200.853 56.6861C200.711 56.6853 200.605 56.6849 200.5 56.6819C200.29 56.6761 200.19 56.6613 200.136 56.648L199.181 60.5324ZM201.239 60.5866C201.102 60.4463 201.066 60.3005 201.065 60.2019C201.063 60.0973 201.097 59.9223 201.253 59.7619L204.123 62.5486C205.444 61.1874 205.32 59.0356 204.096 57.7869L201.239 60.5866ZM201.656 59.4417C201.579 59.4881 201.332 59.5775 200.52 59.4666C200.119 59.4119 199.767 59.3407 199.256 59.2545C198.799 59.1773 198.245 59.0946 197.679 59.0852L197.613 63.0847C197.862 63.0888 198.17 63.1277 198.59 63.1987C198.958 63.2607 199.5 63.3644 199.979 63.4299C200.928 63.5594 202.387 63.6704 203.719 62.8688L201.656 59.4417Z" fill="black" mask="url(#path-3-outside-1_4062_8)"/>
<g filter="url(#filter1_d_4062_8)">
<ellipse cx="16.3322" cy="9" rx="7.21808" ry="7.81169" transform="rotate(10.5377 16.3322 9)" fill="url(#paint0_linear_4062_8)"/>
<path d="M21.9539 10.0457C21.2955 13.5847 18.1751 15.7628 15.1779 15.2052C12.1807 14.6477 10.0523 11.4932 10.7106 7.95426C11.3689 4.4153 14.4893 2.23723 17.4865 2.79476C20.4837 3.3523 22.6122 6.50677 21.9539 10.0457Z" stroke="black" stroke-width="3"/>
</g>
<g filter="url(#filter2_d_4062_8)">
<ellipse cx="14.63" cy="7.88878" rx="5.05266" ry="5.46818" transform="rotate(10.5377 14.63 7.88878)" fill="url(#paint1_linear_4062_8)"/>
<path d="M18.1227 8.53849C17.7011 10.805 15.7257 12.1288 13.9043 11.79C12.0829 11.4512 10.7156 9.50557 11.1373 7.23906C11.5589 4.97255 13.5343 3.6487 15.3557 3.98752C17.1771 4.32634 18.5444 6.27198 18.1227 8.53849Z" stroke="black" stroke-width="3"/>
</g>
<defs>
<filter id="filter0_d_4062_8" x="1.57501" y="1.0799" width="235.95" height="78.7264" filterUnits="userSpaceOnUse" color-interpolation-filters="sRGB">
<feFlood flood-opacity="0" result="BackgroundImageFix"/>
<feColorMatrix in="SourceAlpha" type="matrix" values="0 0 0 0 0 0 0 0 0 0 0 0 0 0 0 0 0 0 127 0" result="hardAlpha"/>
<feOffset dy="4"/>
<feComposite in2="hardAlpha" operator="out"/>
<feColorMatrix type="matrix" values="0 0 0 0 0 0 0 0 0 0 0 0 0 0 0 0 0 0 1 0"/>
<feBlend mode="normal" in2="BackgroundImageFix" result="effect1_dropShadow_4062_8"/>
<feBlend mode="normal" in="SourceGraphic" in2="effect1_dropShadow_4062_8" result="shape"/>
</filter>
<filter id="filter1_d_4062_8" x="9.0921" y="1.20618" width="16.4802" height="17.5876" filterUnits="userSpaceOnUse" color-interpolation-filters="sRGB">
<feFlood flood-opacity="0" result="BackgroundImageFix"/>
<feColorMatrix in="SourceAlpha" type="matrix" values="0 0 0 0 0 0 0 0 0 0 0 0 0 0 0 0 0 0 127 0" result="hardAlpha"/>
<feOffset dx="2" dy="2"/>
<feComposite in2="hardAlpha" operator="out"/>
<feColorMatrix type="matrix" values="0 0 0 0 0 0 0 0 0 0 0 0 0 0 0 0 0 0 0.5 0"/>
<feBlend mode="normal" in2="BackgroundImageFix" result="effect1_dropShadow_4062_8"/>
<feBlend mode="normal" in="SourceGraphic" in2="effect1_dropShadow_4062_8" result="shape"/>
</filter>
<filter id="filter2_d_4062_8" x="5.56189" y="2.43311" width="18.1362" height="18.9113" filterUnits="userSpaceOnUse" color-interpolation-filters="sRGB">
<feFlood flood-opacity="0" result="BackgroundImageFix"/>
<feColorMatrix in="SourceAlpha" type="matrix" values="0 0 0 0 0 0 0 0 0 0 0 0 0 0 0 0 0 0 127 0" result="hardAlpha"/>
<feOffset dy="4"/>
<feGaussianBlur stdDeviation="2"/>
<feComposite in2="hardAlpha" operator="out"/>
<feColorMatrix type="matrix" values="0 0 0 0 0 0 0 0 0 0 0 0 0 0 0 0 0 0 0.25 0"/>
<feBlend mode="normal" in2="BackgroundImageFix" result="effect1_dropShadow_4062_8"/>
<feBlend mode="normal" in="SourceGraphic" in2="effect1_dropShadow_4062_8" result="shape"/>
</filter>
<linearGradient id="paint0_linear_4062_8" x1="16.3322" y1="1.18831" x2="16.3322" y2="16.8117" gradientUnits="userSpaceOnUse">
<stop stop-color="#C7DEDD"/>
<stop offset="0.5" stop-color="#8BB6BD"/>
<stop offset="1" stop-color="#48727C"/>
</linearGradient>
<linearGradient id="paint1_linear_4062_8" x1="9.57735" y1="7.88878" x2="19.6827" y2="7.88878" gradientUnits="userSpaceOnUse">
<stop stop-color="#DEECEC"/>
<stop offset="1" stop-color="#487382"/>
</linearGradient>
</defs>
</svg>
