<svg width="38" height="40" viewBox="0 0 38 40" fill="none" xmlns="http://www.w3.org/2000/svg">
<path fill-rule="evenodd" clip-rule="evenodd" d="M22.8932 14.2676C24.277 13.6567 26.0378 12.7574 27.8008 11.5252C28.1725 12.2086 28.2132 12.805 28.0217 13.2866C27.886 13.626 27.6302 13.9212 27.2939 14.156C26.9298 14.4098 26.475 14.5946 25.9722 14.6945C25.0183 14.8847 23.9046 14.7736 22.8932 14.2676ZM23.1331 20.5274L24.9649 21.4642C21.2247 23.3202 20.2078 26.7667 19 30.1235C17.7923 26.7667 16.7753 23.3202 13.0352 21.4642L14.867 20.5274C15.0442 20.4681 15.1957 20.3606 15.2997 20.2205C15.4037 20.0803 15.455 19.9145 15.4461 19.747C15.2783 16.6032 16.237 15.213 17.5302 14.3401C17.994 14.0274 18.5004 13.8704 19 13.8704C19.4996 13.8704 20.0059 14.0274 20.4699 14.3401C21.7631 15.213 22.7219 16.6032 22.554 19.747C22.5452 19.9145 22.5964 20.0803 22.7004 20.2205C22.8044 20.3606 22.9559 20.4681 23.1331 20.5274ZM19 0C21.1174 0.0503331 23.2402 0.41428 25.0824 1.12228C26.3581 1.6132 27.5485 2.26165 28.6264 3.03708C29.1131 3.38714 29.5139 3.72532 29.9555 4.11463C31.1463 4.15108 32.8866 2.9798 33.6945 1.88382C32.3041 5.91981 25.959 10.686 21.5662 12.5097C21.5644 12.509 21.5632 12.5081 21.5618 12.5073C20.7735 11.9743 19.8868 11.7079 19 11.7079C18.1132 11.7079 17.2267 11.9743 16.4383 12.5073C16.437 12.508 16.4357 12.5092 16.4339 12.5097C12.041 10.686 5.69607 5.91981 4.3056 1.88382C5.1134 2.9798 6.85371 4.15108 8.04453 4.11463C8.48621 3.72545 8.88702 3.38714 9.37363 3.03708C10.4515 2.26165 11.6419 1.6132 12.9176 1.12228C14.76 0.41428 16.8827 0.0503331 19 0ZM15.1068 14.2676C13.7231 13.6567 11.9622 12.7574 10.1994 11.5252C9.82767 12.2086 9.78695 12.805 9.97831 13.2866C10.1142 13.626 10.3699 13.9212 10.706 14.156C11.0704 14.4098 11.5252 14.5946 12.0279 14.6945C12.9818 14.8847 14.0954 14.7736 15.1068 14.2676Z" fill="black"/>
<path fill-rule="evenodd" clip-rule="evenodd" d="M29.7315 10.0154C30.702 9.14823 31.5572 8.18843 32.2448 7.33197L32.594 7.91394C33.7184 9.9055 34.3025 11.8891 34.3025 14.1213L34.3001 17.6636L34.3212 19.4999C34.4027 24.008 35.5044 28.5691 38 32.7431L32.7785 29.0153L29.0839 34.3235L25.2024 31.0884L19 40L12.7976 31.0885L8.91628 34.3236L5.22168 29.0154L0 32.7432C2.49563 28.5692 3.59733 24.0081 3.67891 19.5L3.70002 17.6637L3.69761 14.1215C3.69761 11.8891 4.28164 9.9055 5.40625 7.91407L5.75534 7.3321C6.44296 8.18857 7.29796 9.14823 8.26862 10.0155L7.96552 10.5729C7.37668 11.6555 7.1817 12.8661 7.64041 14.0173C7.93612 14.7588 8.47581 15.3947 9.17157 15.8802C9.84713 16.3516 10.6466 16.6694 11.4837 16.8362C12.029 16.9449 12.5845 16.9897 13.1364 16.9744C13.0076 17.6208 12.9514 18.2911 12.9477 18.9741L8.02222 21.4929L11.8231 23.3793C12.1269 23.5301 12.4161 23.7029 12.6878 23.8958C15.8214 26.3869 17.7054 33.7562 19.0002 37.3557C20.295 33.7562 22.1789 26.3869 25.3127 23.8958C25.5843 23.7028 25.8735 23.5301 26.1773 23.3793L29.9782 21.4929L25.0526 18.9741C25.0489 18.2911 24.9927 17.6208 24.8639 16.9744C25.4158 16.9897 25.9713 16.9449 26.5166 16.8362C27.3537 16.6694 28.1533 16.3516 28.8287 15.8802C29.5243 15.3947 30.0642 14.7588 30.3597 14.0173C30.8186 12.8661 30.6235 11.6557 30.0348 10.5729L29.7317 10.0155L29.7315 10.0154Z" fill="black"/>
</svg>
