<svg width="89" height="93" viewBox="0 0 89 93" fill="none" xmlns="http://www.w3.org/2000/svg">
<g filter="url(#filter0_d_4058_9030)">
<circle cx="46.5" cy="42.5" r="42.5" fill="#FFC7C2"/>
<circle cx="46.5" cy="42.5" r="41" stroke="black" stroke-width="3"/>
</g>
<g clip-path="url(#clip0_4058_9030)">
<path fill-rule="evenodd" clip-rule="evenodd" d="M40.4632 18.2253C37.3732 19.872 34.8451 21.2655 34.8457 21.3222C34.8471 21.4685 42.2618 25.3102 42.525 25.3008C42.6447 25.2967 43.5131 24.8877 44.4548 24.3921L46.1671 23.491L48.0371 24.4745L49.9071 25.458L52.9695 24.0502C57.584 21.9289 58.0633 21.6964 57.9881 21.6183C57.8885 21.5147 56.2333 20.605 51.7429 18.1865C49.5727 17.0175 47.4664 15.8714 47.062 15.6395C46.6577 15.4076 46.2717 15.221 46.2043 15.2247C46.1369 15.2283 43.5533 16.5786 40.4632 18.2253ZM26.9105 25.4052L23.6938 27.105V34.5652C23.6938 38.6684 23.736 42.0254 23.7878 42.0254C23.8395 42.0254 25.4221 41.3235 27.3047 40.4657L30.7275 38.9061V31.0425L32.4002 31.9748C33.6891 32.6925 34.9788 33.4088 36.2693 34.1237L38.4656 35.3403L39.443 34.8882C40.0559 34.6041 40.6676 34.3174 41.2781 34.0278C41.7499 33.8031 42.9079 33.2695 43.8514 32.8418C44.7949 32.414 45.6684 31.9838 45.7922 31.8857C45.9567 31.7555 43.9506 30.6213 38.3721 27.6906C34.1672 25.4815 30.5919 23.681 30.427 23.6897C30.2621 23.6983 28.6797 24.4702 26.9105 25.4052ZM58.5679 25.8825C56.3771 26.8943 54.5831 27.7626 54.5811 27.8121C54.5792 27.8616 55.7732 28.5879 57.2347 29.426C58.696 30.2642 59.8917 30.9948 59.8917 31.0498C59.8917 31.1047 58.5985 31.7457 57.0182 32.4746C55.4376 33.2033 51.4427 35.049 48.1403 36.5763L37.075 41.6933C34.2916 42.9806 31.7826 44.1409 31.4996 44.2721C25.8142 46.9051 24.2515 47.6357 24.0369 47.7611C23.8211 47.8874 23.7722 48.621 23.7338 52.3027L23.688 56.6939L26.5645 58.1934L29.4409 59.6928L33.4295 57.8512C35.6233 56.8384 37.4181 55.9566 37.4181 55.8917C37.4181 55.827 37.0127 55.5567 36.5175 55.291C36.022 55.0252 34.9992 54.4369 34.2444 53.9833C33.4896 53.5297 32.737 53.1136 32.5717 53.0584C32.4065 53.0034 32.2738 52.9071 32.2765 52.8443C32.2792 52.7817 34.0356 51.9282 36.1794 50.9474C40.3431 49.0429 43.5296 47.575 50.3705 44.41C53.4295 42.9951 56.4888 41.581 59.5486 40.1678C62.2377 38.926 65.3643 37.4757 66.4966 36.9449L68.5552 35.9799L68.601 31.5387L68.647 27.0977L65.7295 25.5656C64.1248 24.7231 62.7532 24.0358 62.6813 24.0384C62.6095 24.0407 60.7584 24.8705 58.5679 25.8825ZM67.7736 41.9047C67.3437 42.1195 66.4945 42.5218 65.8865 42.7985C65.2785 43.0752 64.1248 43.6078 63.3228 43.9822L61.8646 44.6626L61.8313 48.5616C61.8129 50.706 61.7358 52.451 61.6598 52.4397C61.4872 52.4134 58.7542 50.9794 56.0069 49.4734C54.024 48.3865 53.8995 48.3433 53.4336 48.5794C53.1642 48.716 51.5542 49.4547 49.8558 50.2213C48.1574 50.9878 46.7125 51.665 46.6445 51.7263C46.5767 51.7875 49.9949 53.6829 54.2407 55.9385L61.9602 60.0395L65.2578 58.2943C67.0713 57.3346 68.6134 56.4592 68.6844 56.349C68.8442 56.1015 68.8305 41.4801 68.6705 41.4999C68.6072 41.5077 68.2035 41.6899 67.7736 41.9047ZM49.5127 59.0665C48.9407 59.3181 48.3689 59.57 47.7972 59.8223C46.0708 60.5864 46.4091 60.6118 44.3553 59.5658C42.9873 58.8691 42.3977 58.6541 42.1417 58.7585C41.9497 58.8367 40.2975 59.5972 38.4698 60.4484C36.6422 61.2996 35.0834 61.996 35.0059 61.996C34.2391 61.996 35.5139 62.7753 40.4331 65.3139L46.2021 68.2908L48.6294 67.0648C49.9644 66.3905 52.6571 65.0402 54.6133 64.0642C56.5694 63.088 58.1457 62.2639 58.1162 62.2328C58.0864 62.2019 56.4474 61.3408 54.4737 60.3194L50.8852 58.4625L49.5127 59.0665Z" fill="black"/>
</g>
<defs>
<filter id="filter0_d_4058_9030" x="0" y="0" width="89" height="93" filterUnits="userSpaceOnUse" color-interpolation-filters="sRGB">
<feFlood flood-opacity="0" result="BackgroundImageFix"/>
<feColorMatrix in="SourceAlpha" type="matrix" values="0 0 0 0 0 0 0 0 0 0 0 0 0 0 0 0 0 0 127 0" result="hardAlpha"/>
<feOffset dx="-4" dy="8"/>
<feComposite in2="hardAlpha" operator="out"/>
<feColorMatrix type="matrix" values="0 0 0 0 0 0 0 0 0 0 0 0 0 0 0 0 0 0 1 0"/>
<feBlend mode="normal" in2="BackgroundImageFix" result="effect1_dropShadow_4058_9030"/>
<feBlend mode="normal" in="SourceGraphic" in2="effect1_dropShadow_4058_9030" result="shape"/>
</filter>
<clipPath id="clip0_4058_9030">
<rect width="45.1562" height="53.125" fill="white" transform="translate(23.688 15.1934)"/>
</clipPath>
</defs>
</svg>
