<svg width="409" height="142" viewBox="0 0 409 142" fill="none" xmlns="http://www.w3.org/2000/svg">
<mask id="path-1-outside-1_4111_645" maskUnits="userSpaceOnUse" x="0" y="31" width="405" height="94" fill="black">
<rect fill="white" y="31" width="405" height="94"/>
<path d="M14.4868 118C10.4748 115.404 6.69882 111.628 5.40082 106.908C3.51282 101.244 0.91682 90.624 10.7108 92.748C16.6108 95.58 13.0708 103.84 18.1448 107.38C22.7468 112.218 32.6588 108.088 37.2608 105.964C40.2108 102.66 41.2728 98.412 41.5088 94.046C44.4588 77.29 41.5088 60.18 42.3348 43.424C43.0428 36.462 53.7808 37.76 52.9548 44.604C52.2468 57.82 54.3708 70.918 53.3088 84.134C52.2468 94.518 52.3648 107.026 43.6328 114.578C36.1988 118.826 22.3928 123.074 14.4868 118ZM96.7771 120.36C84.2691 121.894 71.5251 113.634 65.3891 103.25C55.3591 82.128 61.7311 51.92 82.4991 40.12C87.8091 37.642 95.7151 32.568 100.907 37.288C111.409 37.878 117.899 40.828 122.737 50.74C130.997 65.844 130.643 84.724 124.861 100.772C120.613 111.156 107.515 118.354 96.7771 120.36ZM71.7611 77.172C71.0531 87.202 72.1151 100.064 82.1451 105.374C91.8211 114.106 104.919 107.852 112.825 100.3C121.085 85.078 120.259 64.428 109.993 50.74C106.689 47.672 100.907 49.324 97.7211 45.902C82.4991 47.554 72.8231 62.658 71.7611 77.172ZM138.51 117.764C136.386 113.044 137.566 106.554 137.094 101.244C137.92 88.5 137.92 75.874 137.094 63.366C137.448 56.994 132.492 37.76 142.758 38.586C150.192 39.884 146.18 48.734 147.242 54.162C148.894 72.098 148.068 90.27 148.068 108.678C148.068 110.92 148.304 113.044 148.068 115.168C147.832 119.888 141.342 121.54 138.51 117.764ZM213.686 118.354C210.618 116.702 209.32 113.28 207.196 110.566C203.066 106.554 200.47 101.598 197.048 97.35C187.254 84.96 176.516 73.514 167.194 61.006C166.604 79.178 166.368 97.35 167.194 115.404C167.43 122.602 156.692 123.074 156.22 116.23C156.22 112.218 155.984 108.442 155.984 104.43C155.984 89.208 155.984 74.222 156.22 59.472C155.984 53.218 155.158 47.436 155.512 41.3C155.984 37.76 160.232 35.4 163.418 37.17C168.728 40.71 170.616 47.672 174.392 52.392C185.248 68.44 199.762 82.01 210.854 98.058C211.208 84.488 209.556 71.036 209.32 57.466C210.146 51.094 205.072 36.698 214.394 35.636C218.406 35.636 220.766 39.648 219.468 43.188C219.704 48.97 220.058 54.87 220.176 60.652C220.53 73.042 221.828 85.55 221.592 98.058C221.12 104.784 225.486 121.658 213.686 118.354ZM296.007 119.534C284.561 118.472 276.065 108.914 272.407 98.766C269.575 88.854 270.991 78.47 270.991 68.558C270.991 63.13 270.637 57.466 270.519 51.802C270.519 46.728 268.395 37.406 275.829 36.816C282.437 37.17 281.257 44.368 281.257 48.852C281.965 58.174 281.729 67.496 281.729 77.172C281.375 83.072 281.375 88.854 282.319 94.518C284.561 100.654 288.809 107.38 295.889 108.56H295.535C296.243 108.678 296.833 108.914 297.423 108.914H296.951L297.895 109.032C326.923 113.516 321.141 70.446 321.613 51.802C321.377 48.616 321.377 45.194 321.613 42.008C322.203 35.046 332.587 35.636 332.351 42.48C331.997 55.342 333.059 67.85 332.351 80.358C331.289 101.952 321.141 124.372 296.007 119.534ZM365.378 121.54C354.05 118.944 344.256 111.51 340.48 100.536C336.822 94.636 346.144 88.736 349.684 94.636C352.988 103.486 356.528 106.908 365.378 110.684C379.42 116.23 405.026 89.68 380.482 86.14C369.036 84.37 354.994 84.724 347.678 73.986C336.822 60.534 346.144 40.12 361.838 36.226C374.346 31.506 386.382 37.288 394.406 47.2C408.802 63.366 391.81 70.918 389.332 60.18C388.86 55.46 384.612 52.628 381.544 49.678C375.408 43.424 365.85 44.486 359.36 49.088C351.218 54.988 352.28 68.794 362.192 71.98C361.838 71.98 361.602 71.862 361.366 71.862C374.7 77.29 396.53 71.862 401.014 90.152C404.554 108.914 382.488 124.254 365.378 121.54Z"/>
</mask>
<path d="M14.4868 118C10.4748 115.404 6.69882 111.628 5.40082 106.908C3.51282 101.244 0.91682 90.624 10.7108 92.748C16.6108 95.58 13.0708 103.84 18.1448 107.38C22.7468 112.218 32.6588 108.088 37.2608 105.964C40.2108 102.66 41.2728 98.412 41.5088 94.046C44.4588 77.29 41.5088 60.18 42.3348 43.424C43.0428 36.462 53.7808 37.76 52.9548 44.604C52.2468 57.82 54.3708 70.918 53.3088 84.134C52.2468 94.518 52.3648 107.026 43.6328 114.578C36.1988 118.826 22.3928 123.074 14.4868 118ZM96.7771 120.36C84.2691 121.894 71.5251 113.634 65.3891 103.25C55.3591 82.128 61.7311 51.92 82.4991 40.12C87.8091 37.642 95.7151 32.568 100.907 37.288C111.409 37.878 117.899 40.828 122.737 50.74C130.997 65.844 130.643 84.724 124.861 100.772C120.613 111.156 107.515 118.354 96.7771 120.36ZM71.7611 77.172C71.0531 87.202 72.1151 100.064 82.1451 105.374C91.8211 114.106 104.919 107.852 112.825 100.3C121.085 85.078 120.259 64.428 109.993 50.74C106.689 47.672 100.907 49.324 97.7211 45.902C82.4991 47.554 72.8231 62.658 71.7611 77.172ZM138.51 117.764C136.386 113.044 137.566 106.554 137.094 101.244C137.92 88.5 137.92 75.874 137.094 63.366C137.448 56.994 132.492 37.76 142.758 38.586C150.192 39.884 146.18 48.734 147.242 54.162C148.894 72.098 148.068 90.27 148.068 108.678C148.068 110.92 148.304 113.044 148.068 115.168C147.832 119.888 141.342 121.54 138.51 117.764ZM213.686 118.354C210.618 116.702 209.32 113.28 207.196 110.566C203.066 106.554 200.47 101.598 197.048 97.35C187.254 84.96 176.516 73.514 167.194 61.006C166.604 79.178 166.368 97.35 167.194 115.404C167.43 122.602 156.692 123.074 156.22 116.23C156.22 112.218 155.984 108.442 155.984 104.43C155.984 89.208 155.984 74.222 156.22 59.472C155.984 53.218 155.158 47.436 155.512 41.3C155.984 37.76 160.232 35.4 163.418 37.17C168.728 40.71 170.616 47.672 174.392 52.392C185.248 68.44 199.762 82.01 210.854 98.058C211.208 84.488 209.556 71.036 209.32 57.466C210.146 51.094 205.072 36.698 214.394 35.636C218.406 35.636 220.766 39.648 219.468 43.188C219.704 48.97 220.058 54.87 220.176 60.652C220.53 73.042 221.828 85.55 221.592 98.058C221.12 104.784 225.486 121.658 213.686 118.354ZM296.007 119.534C284.561 118.472 276.065 108.914 272.407 98.766C269.575 88.854 270.991 78.47 270.991 68.558C270.991 63.13 270.637 57.466 270.519 51.802C270.519 46.728 268.395 37.406 275.829 36.816C282.437 37.17 281.257 44.368 281.257 48.852C281.965 58.174 281.729 67.496 281.729 77.172C281.375 83.072 281.375 88.854 282.319 94.518C284.561 100.654 288.809 107.38 295.889 108.56H295.535C296.243 108.678 296.833 108.914 297.423 108.914H296.951L297.895 109.032C326.923 113.516 321.141 70.446 321.613 51.802C321.377 48.616 321.377 45.194 321.613 42.008C322.203 35.046 332.587 35.636 332.351 42.48C331.997 55.342 333.059 67.85 332.351 80.358C331.289 101.952 321.141 124.372 296.007 119.534ZM365.378 121.54C354.05 118.944 344.256 111.51 340.48 100.536C336.822 94.636 346.144 88.736 349.684 94.636C352.988 103.486 356.528 106.908 365.378 110.684C379.42 116.23 405.026 89.68 380.482 86.14C369.036 84.37 354.994 84.724 347.678 73.986C336.822 60.534 346.144 40.12 361.838 36.226C374.346 31.506 386.382 37.288 394.406 47.2C408.802 63.366 391.81 70.918 389.332 60.18C388.86 55.46 384.612 52.628 381.544 49.678C375.408 43.424 365.85 44.486 359.36 49.088C351.218 54.988 352.28 68.794 362.192 71.98C361.838 71.98 361.602 71.862 361.366 71.862C374.7 77.29 396.53 71.862 401.014 90.152C404.554 108.914 382.488 124.254 365.378 121.54Z" fill="white"/>
<path d="M14.4868 118L12.8571 120.519L12.8665 120.525L14.4868 118ZM5.40082 106.908L8.29344 106.113L8.2722 106.035L8.24687 105.959L5.40082 106.908ZM10.7108 92.748L12.009 90.0434L11.6912 89.8909L11.3466 89.8161L10.7108 92.748ZM18.1448 107.38L20.3185 105.312L20.1098 105.093L19.8614 104.92L18.1448 107.38ZM37.2608 105.964L38.518 108.688L39.0837 108.427L39.4986 107.962L37.2608 105.964ZM41.5088 94.046L38.5543 93.5258L38.5229 93.7037L38.5132 93.8841L41.5088 94.046ZM42.3348 43.424L39.3502 43.1205L39.3423 43.1982L39.3385 43.2763L42.3348 43.424ZM52.9548 44.604L49.9764 44.2445L49.9645 44.3437L49.9591 44.4435L52.9548 44.604ZM53.3088 84.134L56.2933 84.4392L56.2966 84.4068L56.2992 84.3743L53.3088 84.134ZM43.6328 114.578L45.1212 117.183L45.3746 117.038L45.5953 116.847L43.6328 114.578ZM16.1166 115.481C12.4021 113.078 9.31436 109.825 8.29344 106.113L2.5082 107.703C4.08328 113.431 8.54755 117.73 12.8571 120.519L16.1166 115.481ZM8.24687 105.959C7.29331 103.099 6.39774 99.6034 6.65724 97.2341C6.77988 96.1144 7.09988 95.7999 7.22248 95.7127C7.35436 95.6189 8.03319 95.237 10.075 95.6798L11.3466 89.8161C8.49145 89.197 5.82203 89.3461 3.7451 90.8232C1.65888 92.3068 0.909516 94.6031 0.692903 96.5809C0.273898 100.407 1.62033 105.053 2.55477 107.857L8.24687 105.959ZM9.41263 95.4526C10.8193 96.1278 11.2706 97.3067 11.7801 100.302C12.2015 102.779 12.6614 107.212 16.4283 109.84L19.8614 104.92C18.5542 104.008 18.2471 102.541 17.6951 99.2954C17.231 96.5673 16.5023 92.2002 12.009 90.0434L9.41263 95.4526ZM15.9711 109.448C19.39 113.042 24.4207 112.964 28.2658 112.229C32.2767 111.463 36.1854 109.764 38.518 108.688L36.0037 103.24C33.7342 104.288 30.3859 105.716 27.1398 106.336C23.7279 106.988 21.5017 106.556 20.3185 105.312L15.9711 109.448ZM39.4986 107.962C43.0893 103.941 44.2504 98.908 44.5044 94.2079L38.5132 93.8841C38.2952 97.916 37.3324 101.379 35.023 103.966L39.4986 107.962ZM44.4634 94.5662C45.9946 85.8687 45.9835 77.1451 45.7168 68.641C45.4473 60.0466 44.9261 51.7895 45.3312 43.5717L39.3385 43.2763C38.9176 51.8145 39.4583 60.4904 39.7198 68.829C39.9841 77.2579 39.973 85.4673 38.5543 93.5258L44.4634 94.5662ZM45.3194 43.7275C45.4107 42.8301 45.7683 42.4146 46.1067 42.1823C46.5162 41.9012 47.1482 41.7325 47.8743 41.8168C48.6005 41.901 49.1916 42.2122 49.5405 42.5897C49.8323 42.9053 50.0797 43.3888 49.9764 44.2445L55.9332 44.9635C56.2429 42.3971 55.4579 40.1519 53.9464 38.5169C52.4922 36.9437 50.5094 36.0822 48.5658 35.8567C46.6221 35.6312 44.4885 36.0156 42.7114 37.2354C40.8631 38.5039 39.613 40.5369 39.3502 43.1205L45.3194 43.7275ZM49.9591 44.4435C49.5954 51.2335 49.9603 57.9769 50.2679 64.5101C50.5782 71.1001 50.8322 77.5006 50.3185 83.8937L56.2992 84.3743C56.8475 77.5514 56.5705 70.7949 56.2613 64.2279C55.9494 57.6041 55.6063 51.1905 55.9505 44.7645L49.9591 44.4435ZM50.3244 83.8288C49.7676 89.2731 49.5626 94.6259 48.4187 99.7664C47.3007 104.79 45.3674 109.112 41.6704 112.309L45.5953 116.847C50.6303 112.492 53.0039 106.784 54.2754 101.07C55.5211 95.4721 55.7881 89.3789 56.2933 84.4392L50.3244 83.8288ZM42.1444 111.973C38.6958 113.944 33.7085 115.939 28.7094 116.831C23.6162 117.741 19.1128 117.404 16.1072 115.475L12.8665 120.525C17.7669 123.67 24.1195 123.746 29.7642 122.738C35.5032 121.713 41.1358 119.46 45.1212 117.183L42.1444 111.973ZM96.7771 120.36L97.1423 123.338L97.2356 123.326L97.328 123.309L96.7771 120.36ZM65.3891 103.25L62.6791 104.537L62.7373 104.659L62.8063 104.776L65.3891 103.25ZM82.4991 40.12L81.2304 37.4014L81.1215 37.4523L81.017 37.5116L82.4991 40.12ZM100.907 37.288L98.8891 39.5078L99.6764 40.2236L100.739 40.2833L100.907 37.288ZM122.737 50.74L120.041 52.0559L120.072 52.1184L120.105 52.1794L122.737 50.74ZM124.861 100.772L127.638 101.908L127.662 101.849L127.683 101.789L124.861 100.772ZM71.7611 77.172L68.7691 76.9531L68.7685 76.9608L71.7611 77.172ZM82.1451 105.374L84.155 103.147L83.8782 102.897L83.5487 102.723L82.1451 105.374ZM112.825 100.3L114.897 102.469L115.237 102.144L115.462 101.731L112.825 100.3ZM109.993 50.74L112.393 48.94L112.232 48.7247L112.034 48.5416L109.993 50.74ZM97.7211 45.902L99.9168 43.8577L98.8922 42.7573L97.3974 42.9195L97.7211 45.902ZM96.4119 117.382C85.3772 118.736 73.6648 111.358 67.9718 101.724L62.8063 104.776C69.3853 115.91 83.1609 125.052 97.1423 123.338L96.4119 117.382ZM68.0991 101.963C63.4132 92.0952 62.5209 79.9845 65.3042 68.9212C68.0858 57.8645 74.4582 48.1391 83.9811 42.7284L81.017 37.5116C69.7719 43.9009 62.5743 55.1795 59.4855 67.4573C56.3983 79.7285 57.335 93.2828 62.6791 104.537L68.0991 101.963ZM83.7677 42.8385C86.7565 41.4438 89.5967 39.7834 92.6105 38.8779C95.5124 38.006 97.455 38.2042 98.8891 39.5078L102.925 35.0682C99.1671 31.6518 94.5608 32.027 90.8841 33.1316C87.3195 34.2026 83.5517 36.3182 81.2304 37.4014L83.7677 42.8385ZM100.739 40.2833C105.781 40.5665 109.488 41.4032 112.443 43.1143C115.342 44.7933 117.812 47.4889 120.041 52.0559L125.433 49.4241C122.824 44.0791 119.631 40.3437 115.45 37.9222C111.324 35.5328 106.536 34.5995 101.075 34.2927L100.739 40.2833ZM120.105 52.1794C127.85 66.3424 127.611 84.2901 122.039 99.7551L127.683 101.789C133.676 85.1579 134.144 65.3456 125.369 49.3006L120.105 52.1794ZM122.084 99.6361C120.268 104.077 116.453 108.047 111.617 111.193C106.802 114.325 101.212 116.48 96.2262 117.411L97.328 123.309C103.08 122.234 109.408 119.787 114.889 116.223C120.348 112.672 125.206 107.851 127.638 101.908L122.084 99.6361ZM68.7685 76.9608C68.4041 82.1239 68.4728 88.2387 70.0365 93.8485C71.6133 99.5055 74.784 104.871 80.7414 108.025L83.5487 102.723C79.4762 100.567 77.1008 96.8465 75.8162 92.2375C74.5183 87.5813 74.4101 82.2501 74.7536 77.3832L68.7685 76.9608ZM80.1352 107.601C85.8814 112.787 92.6812 113.457 98.9004 111.848C105.008 110.267 110.695 106.484 114.897 102.469L110.753 98.1307C107.049 101.668 102.234 104.788 97.3973 106.039C92.672 107.262 88.0847 106.693 84.155 103.147L80.1352 107.601ZM115.462 101.731C124.233 85.5678 123.422 63.645 112.393 48.94L107.593 52.54C117.096 65.211 117.938 84.5882 110.188 98.8692L115.462 101.731ZM112.034 48.5416C109.606 46.2869 106.336 45.8526 104.334 45.4994C101.942 45.0772 100.728 44.7287 99.9168 43.8577L95.5254 47.9463C97.9005 50.4973 101.17 51.0338 103.291 51.4081C105.804 51.8514 107.076 52.1251 107.952 52.9384L112.034 48.5416ZM97.3974 42.9195C80.1928 44.7867 69.8912 61.6179 68.7691 76.9531L74.7531 77.3909C75.755 63.6981 84.8053 50.3213 98.0448 48.8845L97.3974 42.9195ZM138.51 117.764L135.775 118.995L135.911 119.298L136.11 119.564L138.51 117.764ZM137.094 101.244L134.101 101.05L134.086 101.28L134.106 101.51L137.094 101.244ZM137.094 63.366L134.099 63.1996L134.089 63.3817L134.101 63.5637L137.094 63.366ZM142.758 38.586L143.274 35.6307L143.137 35.6068L142.999 35.5957L142.758 38.586ZM147.242 54.162L150.23 53.8868L150.216 53.7353L150.187 53.586L147.242 54.162ZM148.068 115.168L145.087 114.837L145.077 114.927L145.072 115.018L148.068 115.168ZM141.246 116.533C140.455 114.776 140.212 112.509 140.183 109.694C140.156 107.136 140.331 103.773 140.083 100.978L134.106 101.51C134.33 104.025 134.15 106.562 134.183 109.756C134.213 112.694 134.441 116.032 135.775 118.995L141.246 116.533ZM140.088 101.438C140.922 88.566 140.923 75.8092 140.088 63.1683L134.101 63.5637C134.918 75.9388 134.918 88.434 134.101 101.05L140.088 101.438ZM140.09 63.5324C140.194 61.6531 139.914 58.9608 139.672 56.4069C139.416 53.7036 139.168 50.8861 139.209 48.325C139.252 45.6779 139.606 43.7749 140.22 42.6613C140.493 42.1659 140.765 41.9235 141.011 41.7899C141.256 41.6572 141.699 41.5105 142.518 41.5763L142.999 35.5957C141.251 35.455 139.603 35.7286 138.153 36.5146C136.704 37.2997 135.676 38.4742 134.965 39.7654C133.609 42.2249 133.256 45.3738 133.21 48.2285C133.162 51.1692 133.446 54.3032 133.698 56.9727C133.965 59.7914 134.172 61.8929 134.099 63.1996L140.09 63.5324ZM142.242 41.5413C143.417 41.7463 143.745 42.1428 143.902 42.3944C144.156 42.801 144.364 43.5412 144.39 44.8832C144.417 46.2347 144.267 47.6536 144.146 49.4156C144.036 51.0289 143.949 52.9542 144.298 54.738L150.187 53.586C150.005 52.6558 150.021 51.4393 150.132 49.8261C150.232 48.3615 150.422 46.469 150.389 44.7673C150.356 43.056 150.107 41.0011 148.99 39.2136C147.775 37.2711 145.817 36.0747 143.274 35.6307L142.242 41.5413ZM144.255 54.4371C145.89 72.1901 145.068 90.0862 145.068 108.678H151.068C151.068 90.4538 151.899 72.0059 150.23 53.8868L144.255 54.4371ZM145.068 108.678C145.068 109.848 145.132 111.083 145.158 112.049C145.186 113.084 145.182 113.983 145.087 114.837L151.05 115.499C151.191 114.229 151.186 113.004 151.156 111.885C151.123 110.698 151.068 109.75 151.068 108.678H145.068ZM145.072 115.018C145.032 115.82 144.504 116.485 143.495 116.752C142.461 117.026 141.471 116.712 140.91 115.964L136.11 119.564C138.381 122.592 142.052 123.34 145.031 122.552C148.034 121.757 150.869 119.236 151.065 115.318L145.072 115.018ZM213.686 118.354L212.264 120.995L212.557 121.153L212.878 121.243L213.686 118.354ZM207.196 110.566L209.559 108.717L209.433 108.556L209.287 108.414L207.196 110.566ZM197.048 97.35L194.695 99.2104L194.704 99.2212L194.712 99.232L197.048 97.35ZM167.194 61.006L169.6 59.2133L164.474 52.336L164.196 60.9086L167.194 61.006ZM167.194 115.404L170.193 115.306L170.192 115.286L170.191 115.267L167.194 115.404ZM156.22 116.23H153.22V116.333L153.228 116.436L156.22 116.23ZM156.22 59.472L159.22 59.52L159.221 59.4394L159.218 59.3589L156.22 59.472ZM155.512 41.3L152.539 40.9035L152.524 41.015L152.517 41.1272L155.512 41.3ZM163.418 37.17L165.083 34.6738L164.982 34.6065L164.875 34.5475L163.418 37.17ZM174.392 52.392L176.877 50.7111L176.81 50.6116L176.735 50.5179L174.392 52.392ZM210.854 98.058L208.387 99.7637L213.614 107.326L213.853 98.1362L210.854 98.058ZM209.32 57.466L206.345 57.0803L206.317 57.2984L206.321 57.5182L209.32 57.466ZM214.395 35.636V32.636H214.224L214.055 32.6553L214.395 35.636ZM219.468 43.188L216.652 42.1552L216.447 42.7148L216.471 43.3103L219.468 43.188ZM220.176 60.652L217.177 60.7132L217.177 60.7254L217.178 60.7377L220.176 60.652ZM221.592 98.058L224.585 98.268L224.591 98.1914L224.592 98.1146L221.592 98.058ZM215.109 115.713C214.192 115.219 213.427 114.407 212.551 113.147C212.105 112.504 211.698 111.85 211.199 111.073C210.721 110.331 210.18 109.511 209.559 108.717L204.834 112.415C205.275 112.978 205.693 113.604 206.152 114.318C206.589 114.998 207.096 115.811 207.624 116.57C208.695 118.112 210.113 119.837 212.264 120.995L215.109 115.713ZM209.287 108.414C207.43 106.61 205.879 104.556 204.313 102.324C202.796 100.16 201.179 97.6957 199.385 95.468L194.712 99.232C196.34 101.252 197.732 103.39 199.401 105.769C201.021 108.08 202.833 110.51 205.106 112.718L209.287 108.414ZM199.402 95.4896C194.463 89.2419 189.285 83.2304 184.231 77.2801C179.16 71.3095 174.199 65.3841 169.6 59.2133L164.789 62.7987C169.512 69.1359 174.581 75.1875 179.658 81.1644C184.752 87.1616 189.84 93.0681 194.695 99.2104L199.402 95.4896ZM164.196 60.9086C163.605 79.1143 163.366 97.3745 164.198 115.541L170.191 115.267C169.371 97.3255 169.604 79.2417 170.193 61.1034L164.196 60.9086ZM164.196 115.502C164.229 116.492 163.906 117.041 163.559 117.377C163.16 117.763 162.533 118.044 161.794 118.088C161.052 118.132 160.4 117.926 159.973 117.604C159.608 117.329 159.272 116.88 159.213 116.024L153.228 116.436C153.405 119.002 154.588 121.06 156.362 122.396C158.074 123.686 160.18 124.195 162.152 124.077C164.127 123.959 166.17 123.2 167.732 121.688C169.347 120.124 170.278 117.915 170.193 115.306L164.196 115.502ZM159.22 116.23C159.22 114.171 159.16 112.18 159.101 110.239C159.042 108.286 158.984 106.383 158.984 104.43H152.984C152.984 106.489 153.045 108.48 153.104 110.421C153.163 112.374 153.22 114.277 153.22 116.23H159.22ZM158.984 104.43C158.984 89.2036 158.985 74.2419 159.22 59.52L153.221 59.424C152.984 74.2021 152.984 89.2124 152.984 104.43H158.984ZM159.218 59.3589C158.966 52.6757 158.163 47.4471 158.508 41.4728L152.517 41.1272C152.154 47.4249 153.003 53.7603 153.223 59.5851L159.218 59.3589ZM158.486 41.6965C158.575 41.0271 159.058 40.3189 159.861 39.8901C160.651 39.4681 161.415 39.4889 161.962 39.7925L164.875 34.5475C162.236 33.0811 159.283 33.3968 157.035 34.5974C154.799 35.7911 152.922 38.0329 152.539 40.9035L158.486 41.6965ZM161.754 39.6661C163.806 41.034 165.321 43.1457 166.885 45.8432C168.333 48.3408 169.975 51.6726 172.05 54.2661L176.735 50.5179C175.034 48.3914 173.844 45.8822 172.076 42.8338C170.425 39.9853 168.341 36.846 165.083 34.6738L161.754 39.6661ZM171.908 54.0729C177.448 62.2633 183.904 69.795 190.261 77.1818C196.655 84.6121 202.947 91.8941 208.387 99.7637L213.322 96.3523C207.67 88.1738 201.159 80.6469 194.809 73.2682C188.422 65.846 182.193 58.5686 176.877 50.7111L171.908 54.0729ZM213.853 98.1362C214.034 91.2149 213.702 84.3511 213.304 77.5854C212.903 70.7843 212.437 64.1182 212.32 57.4138L206.321 57.5182C206.44 64.3838 206.918 71.2287 207.314 77.9385C207.712 84.6839 208.029 91.3311 207.856 97.9798L213.853 98.1362ZM212.296 57.8517C212.553 55.8646 212.344 53.4227 212.138 51.2339C211.916 48.8942 211.671 46.6449 211.671 44.5597C211.671 42.4336 211.939 40.9402 212.435 40.005C212.807 39.3047 213.358 38.7735 214.734 38.6167L214.055 32.6553C210.77 33.0295 208.46 34.696 207.135 37.1929C205.935 39.4547 205.671 42.1577 205.671 44.5597C205.671 47.0029 205.958 49.6137 206.164 51.7986C206.385 54.1343 206.501 55.8814 206.345 57.0803L212.296 57.8517ZM214.395 38.636C216.057 38.636 217.325 40.3183 216.652 42.1552L222.285 44.2208C224.208 38.9777 220.756 32.636 214.395 32.636V38.636ZM216.471 43.3103C216.71 49.1743 217.06 54.9678 217.177 60.7132L223.176 60.5908C223.057 54.7722 222.699 48.7657 222.466 43.0657L216.471 43.3103ZM217.178 60.7377C217.542 73.4843 218.828 85.5323 218.593 98.0014L224.592 98.1146C224.829 85.5677 223.519 72.5997 223.175 60.5663L217.178 60.7377ZM218.6 97.848C218.464 99.7882 218.674 102.385 218.824 104.723C218.983 107.215 219.097 109.628 218.901 111.683C218.695 113.848 218.198 114.928 217.742 115.371C217.536 115.572 216.866 116.129 214.495 115.465L212.878 121.243C216.407 122.231 219.616 121.917 221.925 119.674C223.984 117.672 224.638 114.733 224.874 112.252C225.121 109.66 224.969 106.8 224.811 104.34C224.644 101.726 224.485 99.6908 224.585 98.268L218.6 97.848ZM296.007 119.534L296.574 116.588L296.43 116.56L296.284 116.547L296.007 119.534ZM272.407 98.766L269.523 99.5902L269.55 99.6878L269.585 99.7833L272.407 98.766ZM270.519 51.802H267.519V51.8332L267.52 51.8645L270.519 51.802ZM275.829 36.816L275.99 33.8203L275.791 33.8096L275.592 33.8254L275.829 36.816ZM281.257 48.852H278.257V48.9658L278.266 49.0792L281.257 48.852ZM281.729 77.172L284.724 77.3517L284.729 77.2619V77.172H281.729ZM282.319 94.518L279.36 95.0112L279.406 95.2859L279.501 95.5476L282.319 94.518ZM295.889 108.56V111.56L296.382 105.601L295.889 108.56ZM295.535 108.56V105.56L295.042 111.519L295.535 108.56ZM296.951 108.914V105.914L296.579 111.891L296.951 108.914ZM297.895 109.032L298.353 106.067L298.31 106.061L298.267 106.055L297.895 109.032ZM321.613 51.802L324.612 51.8779L324.616 51.729L324.605 51.5804L321.613 51.802ZM321.613 42.008L318.624 41.7547L318.623 41.7705L318.621 41.7864L321.613 42.008ZM332.351 42.48L329.353 42.3766L329.353 42.387L329.352 42.3975L332.351 42.48ZM332.351 80.358L329.356 80.1885L329.355 80.1995L329.355 80.2106L332.351 80.358ZM296.284 116.547C286.425 115.632 278.663 107.274 275.229 97.7487L269.585 99.7833C273.467 110.554 282.698 121.312 295.73 122.521L296.284 116.547ZM275.292 97.9418C273.986 93.3707 273.637 88.6126 273.637 83.662C273.637 81.1862 273.724 78.7013 273.812 76.1709C273.9 73.6587 273.991 71.0978 273.991 68.558H267.991C267.991 70.9742 267.905 73.4283 267.816 75.9605C267.728 78.4747 267.637 81.0638 267.637 83.662C267.637 88.8594 267.997 94.2493 269.523 99.5902L275.292 97.9418ZM273.991 68.558C273.991 63.1375 273.632 57.1848 273.519 51.7395L267.52 51.8645C267.642 57.7472 267.991 63.1225 267.991 68.558H273.991ZM273.519 51.802C273.519 50.4331 273.374 48.6827 273.299 47.2471C273.218 45.6846 273.199 44.2521 273.361 43.0174C273.525 41.7641 273.84 41.0147 274.187 40.5906C274.447 40.2714 274.909 39.8984 276.067 39.8066L275.592 33.8254C273.032 34.0285 270.972 35.0421 269.54 36.7952C268.194 38.4436 267.646 40.4524 267.412 42.2376C267.175 44.0414 267.223 45.9276 267.307 47.5585C267.399 49.3163 267.519 50.6338 267.519 51.802H273.519ZM275.669 39.8117C276.741 39.8691 277.172 40.1704 277.375 40.368C277.627 40.6119 277.9 41.0655 278.092 41.9322C278.285 42.8049 278.345 43.8708 278.338 45.1126C278.335 45.7237 278.316 46.336 278.296 46.9693C278.277 47.5862 278.257 48.2368 278.257 48.852H284.257C284.257 48.3462 284.274 47.791 284.294 47.1546C284.313 46.5346 284.334 45.8461 284.338 45.1463C284.346 43.7663 284.289 42.1698 283.951 40.6383C283.611 39.1007 282.941 37.4082 281.555 36.0628C280.121 34.6711 278.221 33.9398 275.99 33.8203L275.669 39.8117ZM278.266 49.0792C278.962 58.252 278.729 67.3924 278.729 77.172H284.729C284.729 67.5996 284.968 58.096 284.249 48.6248L278.266 49.0792ZM278.735 76.9923C278.374 82.9953 278.363 89.0302 279.36 95.0112L285.278 94.0248C284.387 88.6778 284.376 83.1487 284.724 77.3517L278.735 76.9923ZM279.501 95.5476C281.808 101.861 286.594 110.052 295.396 111.519L296.382 105.601C291.024 104.708 287.314 99.4466 285.137 93.4884L279.501 95.5476ZM295.889 105.56H295.535V111.56H295.889V105.56ZM295.042 111.519C295.261 111.556 295.401 111.598 295.829 111.7C296.171 111.781 296.755 111.914 297.423 111.914V105.914C297.502 105.914 297.496 105.929 297.218 105.863C297.026 105.817 296.517 105.682 296.028 105.601L295.042 111.519ZM297.423 105.914H296.951V111.914H297.423V105.914ZM296.579 111.891L297.523 112.009L298.267 106.055L297.323 105.937L296.579 111.891ZM297.437 111.997C305.498 113.242 311.614 111.196 315.946 106.68C320.102 102.347 322.256 96.1015 323.416 89.6181C324.586 83.0758 324.812 75.8656 324.79 69.2301C324.767 62.4235 324.495 56.5159 324.612 51.8779L318.614 51.7261C318.496 56.4101 318.769 62.8778 318.79 69.2503C318.812 75.7939 318.582 82.5667 317.51 88.5619C316.427 94.616 314.555 99.4626 311.616 102.527C308.853 105.408 304.807 107.064 298.353 106.067L297.437 111.997ZM324.605 51.5804C324.38 48.5419 324.38 45.2681 324.605 42.2296L318.621 41.7864C318.374 45.1199 318.374 48.6901 318.621 52.0236L324.605 51.5804ZM324.602 42.2613C324.682 41.3237 325.047 40.8357 325.412 40.5525C325.831 40.2275 326.449 40.0281 327.141 40.063C327.836 40.0979 328.417 40.3582 328.781 40.707C329.093 41.0055 329.384 41.4906 329.353 42.3766L335.349 42.5834C335.437 40.0474 334.518 37.8922 332.93 36.3728C331.396 34.9036 329.388 34.1684 327.443 34.0705C325.495 33.9726 323.421 34.5034 321.734 35.8119C319.994 37.1623 318.839 39.2113 318.624 41.7547L324.602 42.2613ZM329.352 42.3975C329.173 48.9191 329.353 55.3493 329.485 61.615C329.617 67.9127 329.703 74.0627 329.356 80.1885L335.346 80.5275C335.708 74.1453 335.616 67.7873 335.483 61.4885C335.35 55.1577 335.176 48.9029 335.35 42.5625L329.352 42.3975ZM329.355 80.2106C328.84 90.6866 326.122 101.015 320.812 108.051C318.185 111.53 314.954 114.17 311.048 115.696C307.147 117.22 302.385 117.707 296.574 116.588L295.44 122.48C302.197 123.78 308.128 123.279 313.232 121.285C318.331 119.293 322.416 115.885 325.601 111.665C331.913 103.302 334.801 91.6234 335.348 80.5054L329.355 80.2106ZM365.378 121.54L364.708 124.464L364.808 124.487L364.908 124.503L365.378 121.54ZM340.48 100.536L343.317 99.5599L343.207 99.2414L343.03 98.9552L340.48 100.536ZM349.684 94.636L352.495 93.5867L352.398 93.3287L352.257 93.0925L349.684 94.636ZM365.378 110.684L364.201 113.443L364.238 113.459L364.276 113.474L365.378 110.684ZM380.482 86.14L380.024 89.1048L380.039 89.1071L380.054 89.1093L380.482 86.14ZM347.678 73.986L350.158 72.2968L350.089 72.1965L350.013 72.1019L347.678 73.986ZM361.838 36.226L362.561 39.1377L362.732 39.0952L362.897 39.0328L361.838 36.226ZM394.406 47.2L392.075 49.0876L392.119 49.1424L392.166 49.1951L394.406 47.2ZM389.332 60.18L386.347 60.4785L386.366 60.6685L386.409 60.8546L389.332 60.18ZM381.544 49.678L379.403 51.779L379.433 51.8102L379.465 51.8405L381.544 49.678ZM359.36 49.088L357.625 46.6408L357.612 46.6497L357.6 46.6587L359.36 49.088ZM362.192 71.98V74.98L363.11 69.1239L362.192 71.98ZM361.366 71.862V68.862L360.235 74.6406L361.366 71.862ZM401.014 90.152L403.962 89.5958L403.947 89.5163L403.928 89.4377L401.014 90.152ZM366.048 118.616C355.519 116.203 346.691 109.364 343.317 99.5599L337.643 101.512C341.822 113.656 352.582 121.685 364.708 124.464L366.048 118.616ZM343.03 98.9552C342.577 98.2244 342.589 97.6626 342.733 97.2134C342.904 96.6828 343.338 96.1096 343.995 95.6913C344.654 95.2716 345.326 95.1406 345.822 95.21C346.221 95.2661 346.684 95.466 347.112 96.1795L352.257 93.0925C350.915 90.856 348.885 89.5809 346.655 89.2682C344.521 88.9689 342.428 89.5754 340.771 90.6307C339.112 91.6874 337.68 93.3267 337.021 95.3773C336.336 97.5094 336.555 99.8976 337.931 102.117L343.03 98.9552ZM346.874 95.6853C348.601 100.311 350.497 103.816 353.317 106.671C356.122 109.511 359.634 111.495 364.201 113.443L366.556 107.925C362.273 106.097 359.589 104.482 357.586 102.454C355.597 100.442 354.072 97.8106 352.495 93.5867L346.874 95.6853ZM364.276 113.474C368.828 115.272 373.952 114.364 378.327 112.43C382.752 110.474 386.894 107.268 389.746 103.689C392.494 100.241 394.573 95.7374 393.335 91.4215C392.014 86.8128 387.48 84.1183 380.911 83.1707L380.054 89.1093C385.756 89.9317 387.226 91.8835 387.568 93.0752C387.993 94.5598 387.395 97.0112 385.054 99.9498C382.817 102.757 379.459 105.37 375.901 106.943C372.292 108.538 368.95 108.869 366.48 107.894L364.276 113.474ZM380.941 83.1752C378.028 82.7248 374.873 82.3988 371.932 82.0278C368.924 81.6484 366.012 81.2089 363.264 80.5169C357.792 79.1386 353.245 76.8283 350.158 72.2968L345.199 75.6752C349.428 81.8817 355.559 84.7634 361.799 86.3351C364.907 87.1181 368.109 87.5931 371.181 87.9807C374.321 88.3767 377.214 88.6702 380.024 89.1048L380.941 83.1752ZM350.013 72.1019C345.388 66.3714 344.979 59.0974 347.584 52.6447C350.206 46.1481 355.763 40.8243 362.561 39.1377L361.116 33.3143C352.219 35.5217 345.268 42.3519 342.02 50.3988C338.754 58.4896 339.112 68.1486 345.344 75.8701L350.013 72.1019ZM362.897 39.0328C373.788 34.9233 384.552 39.7949 392.075 49.0876L396.738 45.3124C388.213 34.7811 374.905 28.0887 360.779 33.4192L362.897 39.0328ZM392.166 49.1951C395.52 52.9615 396.78 55.9356 397.064 57.9729C397.34 59.9524 396.721 61.0544 396.153 61.5827C395.533 62.1601 394.748 62.3024 394.109 62.0981C393.56 61.9221 392.677 61.3331 392.255 59.5054L386.409 60.8546C387.226 64.3959 389.397 66.8896 392.28 67.8125C395.075 68.7071 398.103 67.9644 400.241 65.9753C402.431 63.9371 403.516 60.791 403.006 57.1435C402.505 53.5536 400.491 49.5215 396.647 45.2049L392.166 49.1951ZM392.317 59.8815C391.993 56.6332 390.364 54.1668 388.639 52.2551C387.779 51.3027 386.852 50.4406 385.997 49.6708C385.103 48.8658 384.344 48.2081 383.624 47.5155L379.465 51.8405C380.279 52.6229 381.201 53.4254 381.981 54.1286C382.801 54.867 383.54 55.5611 384.185 56.2754C385.468 57.6972 386.2 59.0068 386.347 60.4785L392.317 59.8815ZM383.686 47.577C376.159 39.9058 364.845 41.5212 357.625 46.6408L361.096 51.5352C366.856 47.4508 374.657 46.9422 379.403 51.779L383.686 47.577ZM357.6 46.6587C352.549 50.3188 350.438 56.3552 351.023 61.8683C351.613 67.4272 355.001 72.8196 361.274 74.8361L363.11 69.1239C359.472 67.9544 357.373 64.8508 356.989 61.2352C356.601 57.5738 358.029 53.7572 361.121 51.5172L357.6 46.6587ZM362.192 68.98C362.355 68.98 362.469 69.011 362.386 68.9924C362.372 68.9894 362.218 68.9536 362.082 68.9288C361.923 68.8999 361.671 68.862 361.366 68.862V74.862C361.18 74.862 361.046 74.8388 361.008 74.832C360.994 74.8294 360.965 74.8231 361.084 74.8496C361.266 74.89 361.675 74.98 362.192 74.98V68.98ZM360.235 74.6406C363.947 76.1516 368.138 76.8672 372.154 77.4106C376.301 77.9719 380.193 78.3456 383.895 79.1202C387.553 79.8855 390.63 80.9754 393.011 82.7478C395.312 84.4604 397.138 86.9396 398.101 90.8663L403.928 89.4377C402.649 84.2194 400.064 80.5184 396.594 77.935C393.204 75.4115 389.15 74.0897 385.123 73.2473C381.141 72.4141 376.795 71.984 372.958 71.4648C368.991 70.9278 365.453 70.2864 362.497 69.0834L360.235 74.6406ZM398.066 90.7082C399.57 98.6805 395.699 106.186 389.052 111.568C382.378 116.973 373.419 119.778 365.848 118.577L364.908 124.503C374.447 126.016 385.077 122.508 392.828 116.231C400.607 109.931 405.998 100.385 403.962 89.5958L398.066 90.7082Z" fill="black" mask="url(#path-1-outside-1_4111_645)"/>
</svg>
