<svg width="792" height="341" viewBox="0 0 792 341" fill="none" xmlns="http://www.w3.org/2000/svg">
<mask id="path-1-outside-1_29_32" maskUnits="userSpaceOnUse" x="30" y="94" width="765" height="222" fill="black">
<rect fill="white" x="30" y="94" width="765" height="222"/>
<path d="M71.5953 277.516C65.8533 284.041 54.1083 281.692 51.7593 272.818C47.5833 251.677 49.1493 228.97 47.8443 208.09C47.5833 183.817 42.8853 160.849 43.9293 136.576C28.0083 112.303 87.5163 108.127 101.61 106.561C161.379 98.731 197.658 156.412 161.379 204.958C139.977 229.753 102.915 232.624 72.1173 232.102C72.1173 241.498 72.9003 250.894 73.9443 259.768C74.4663 265.771 76.8153 272.818 71.5953 277.516ZM67.4193 136.576C66.3753 160.849 71.5953 184.339 72.1173 208.351C96.9123 208.351 128.232 208.09 145.458 187.21C157.464 168.157 152.505 139.447 129.015 132.4C110.745 127.18 91.1703 131.095 72.9003 135.532C70.8123 135.793 69.2463 136.576 67.4193 136.576ZM271.305 294.22C243.639 297.613 215.451 279.343 201.879 256.375C179.694 209.656 193.788 142.84 239.724 116.74C251.469 111.259 268.956 100.036 280.44 110.476C303.669 111.781 318.024 118.306 328.725 140.23C346.995 173.638 346.212 215.398 333.423 250.894C324.027 273.862 295.056 289.783 271.305 294.22ZM215.973 198.694C214.407 220.879 216.756 249.328 238.941 261.073C260.343 280.387 289.314 266.554 306.801 249.85C325.071 216.181 323.244 170.506 300.537 140.23C293.229 133.444 280.44 137.098 273.393 129.529C239.724 133.183 218.322 166.591 215.973 198.694ZM474.016 302.833C462.271 291.871 455.224 276.211 448.699 262.117C439.564 249.328 431.473 235.756 424.426 221.662C413.986 222.706 402.502 223.228 391.279 223.228C391.279 240.715 390.757 258.724 392.062 276.211C392.062 284.041 393.106 292.132 388.147 298.135C379.012 308.314 362.308 296.83 368.572 285.085C367.789 268.12 366.745 251.677 367.789 234.973C369.094 201.043 364.657 167.374 364.657 133.444C351.346 124.048 361.264 109.432 376.141 109.954C377.968 109.954 379.012 109.432 380.839 109.432H379.534C409.549 105.256 443.479 100.558 471.667 115.174C493.852 128.746 505.858 157.717 500.377 183.817C491.503 202.609 466.969 209.656 448.699 216.964C453.919 226.621 459.139 236.017 466.186 245.413C472.45 256.375 476.365 268.12 483.934 277.516C486.283 281.692 489.154 284.563 490.72 288.739C493.852 298.918 482.89 308.314 474.016 302.833ZM388.93 131.878C388.93 154.846 389.713 177.292 391.279 199.738C421.555 199.738 454.441 195.562 478.192 175.465C480.541 123.787 426.253 126.397 388.93 131.878ZM624.972 292.393C608.268 274.906 595.479 252.982 580.602 234.19C574.338 225.055 570.423 214.093 562.332 206.524C554.763 213.571 550.587 225.055 541.191 230.014C541.191 236.8 542.496 243.064 542.496 249.589C541.191 260.812 544.323 271.774 541.713 283.258C539.364 290.044 529.968 292.393 523.965 287.956C514.047 280.387 520.572 251.416 517.44 238.888C516.918 215.398 519.006 191.125 519.006 167.635V126.397C519.267 120.394 525.27 115.696 530.751 115.696C544.323 116.218 542.757 131.095 542.496 140.491C542.496 158.239 542.496 176.509 541.713 194.257C567.03 166.852 592.347 137.62 623.145 117.262C628.887 116.218 635.673 120.916 636.717 127.441C638.022 138.142 625.494 143.884 619.23 150.409C604.875 161.893 591.825 175.726 579.036 188.776C586.083 196.867 593.13 206.002 597.306 215.92C612.705 236.539 626.277 258.985 643.764 278.038C653.16 290.044 633.585 304.921 624.972 292.393ZM733.995 291.349C714.159 290.566 693.018 293.959 673.182 289.783C661.959 285.868 661.698 272.296 663.003 262.117C662.22 248.806 662.481 235.234 663.264 221.662C662.742 189.037 658.827 155.629 667.44 124.831C674.487 106.039 753.309 116.218 773.406 116.218C783.324 117.001 787.239 131.878 779.409 137.359C770.535 142.057 759.051 137.359 748.872 138.403C729.036 137.62 708.417 136.054 688.059 138.925C686.493 155.629 684.927 172.072 685.71 188.515C711.027 188.515 737.127 186.688 762.444 189.037C777.843 191.908 774.189 214.876 759.573 212.527C750.438 210.961 741.825 211.483 732.951 212.266C717.813 212.527 702.153 210.961 686.232 212.527C685.971 231.058 686.493 249.328 686.754 268.381C707.373 268.381 727.992 266.815 748.611 267.598C757.746 268.642 767.142 263.683 775.233 269.425C780.192 273.34 781.497 281.17 777.582 286.39C766.359 295.264 748.089 289.783 733.995 291.349Z"/>
</mask>
<path d="M71.5953 277.516C65.8533 284.041 54.1083 281.692 51.7593 272.818C47.5833 251.677 49.1493 228.97 47.8443 208.09C47.5833 183.817 42.8853 160.849 43.9293 136.576C28.0083 112.303 87.5163 108.127 101.61 106.561C161.379 98.731 197.658 156.412 161.379 204.958C139.977 229.753 102.915 232.624 72.1173 232.102C72.1173 241.498 72.9003 250.894 73.9443 259.768C74.4663 265.771 76.8153 272.818 71.5953 277.516ZM67.4193 136.576C66.3753 160.849 71.5953 184.339 72.1173 208.351C96.9123 208.351 128.232 208.09 145.458 187.21C157.464 168.157 152.505 139.447 129.015 132.4C110.745 127.18 91.1703 131.095 72.9003 135.532C70.8123 135.793 69.2463 136.576 67.4193 136.576ZM271.305 294.22C243.639 297.613 215.451 279.343 201.879 256.375C179.694 209.656 193.788 142.84 239.724 116.74C251.469 111.259 268.956 100.036 280.44 110.476C303.669 111.781 318.024 118.306 328.725 140.23C346.995 173.638 346.212 215.398 333.423 250.894C324.027 273.862 295.056 289.783 271.305 294.22ZM215.973 198.694C214.407 220.879 216.756 249.328 238.941 261.073C260.343 280.387 289.314 266.554 306.801 249.85C325.071 216.181 323.244 170.506 300.537 140.23C293.229 133.444 280.44 137.098 273.393 129.529C239.724 133.183 218.322 166.591 215.973 198.694ZM474.016 302.833C462.271 291.871 455.224 276.211 448.699 262.117C439.564 249.328 431.473 235.756 424.426 221.662C413.986 222.706 402.502 223.228 391.279 223.228C391.279 240.715 390.757 258.724 392.062 276.211C392.062 284.041 393.106 292.132 388.147 298.135C379.012 308.314 362.308 296.83 368.572 285.085C367.789 268.12 366.745 251.677 367.789 234.973C369.094 201.043 364.657 167.374 364.657 133.444C351.346 124.048 361.264 109.432 376.141 109.954C377.968 109.954 379.012 109.432 380.839 109.432H379.534C409.549 105.256 443.479 100.558 471.667 115.174C493.852 128.746 505.858 157.717 500.377 183.817C491.503 202.609 466.969 209.656 448.699 216.964C453.919 226.621 459.139 236.017 466.186 245.413C472.45 256.375 476.365 268.12 483.934 277.516C486.283 281.692 489.154 284.563 490.72 288.739C493.852 298.918 482.89 308.314 474.016 302.833ZM388.93 131.878C388.93 154.846 389.713 177.292 391.279 199.738C421.555 199.738 454.441 195.562 478.192 175.465C480.541 123.787 426.253 126.397 388.93 131.878ZM624.972 292.393C608.268 274.906 595.479 252.982 580.602 234.19C574.338 225.055 570.423 214.093 562.332 206.524C554.763 213.571 550.587 225.055 541.191 230.014C541.191 236.8 542.496 243.064 542.496 249.589C541.191 260.812 544.323 271.774 541.713 283.258C539.364 290.044 529.968 292.393 523.965 287.956C514.047 280.387 520.572 251.416 517.44 238.888C516.918 215.398 519.006 191.125 519.006 167.635V126.397C519.267 120.394 525.27 115.696 530.751 115.696C544.323 116.218 542.757 131.095 542.496 140.491C542.496 158.239 542.496 176.509 541.713 194.257C567.03 166.852 592.347 137.62 623.145 117.262C628.887 116.218 635.673 120.916 636.717 127.441C638.022 138.142 625.494 143.884 619.23 150.409C604.875 161.893 591.825 175.726 579.036 188.776C586.083 196.867 593.13 206.002 597.306 215.92C612.705 236.539 626.277 258.985 643.764 278.038C653.16 290.044 633.585 304.921 624.972 292.393ZM733.995 291.349C714.159 290.566 693.018 293.959 673.182 289.783C661.959 285.868 661.698 272.296 663.003 262.117C662.22 248.806 662.481 235.234 663.264 221.662C662.742 189.037 658.827 155.629 667.44 124.831C674.487 106.039 753.309 116.218 773.406 116.218C783.324 117.001 787.239 131.878 779.409 137.359C770.535 142.057 759.051 137.359 748.872 138.403C729.036 137.62 708.417 136.054 688.059 138.925C686.493 155.629 684.927 172.072 685.71 188.515C711.027 188.515 737.127 186.688 762.444 189.037C777.843 191.908 774.189 214.876 759.573 212.527C750.438 210.961 741.825 211.483 732.951 212.266C717.813 212.527 702.153 210.961 686.232 212.527C685.971 231.058 686.493 249.328 686.754 268.381C707.373 268.381 727.992 266.815 748.611 267.598C757.746 268.642 767.142 263.683 775.233 269.425C780.192 273.34 781.497 281.17 777.582 286.39C766.359 295.264 748.089 289.783 733.995 291.349Z" fill="black"/>
<path d="M71.5953 277.516L64.2366 269.34L63.7606 269.768L63.3374 270.249L71.5953 277.516ZM51.7593 272.818L40.9678 274.95L41.0357 275.294L41.1255 275.633L51.7593 272.818ZM47.8443 208.09L36.8449 208.208L36.848 208.492L36.8657 208.776L47.8443 208.09ZM43.9293 136.576L54.9191 137.049L55.0714 133.507L53.1272 130.543L43.9293 136.576ZM101.61 106.561L102.825 117.494L102.932 117.482L103.039 117.468L101.61 106.561ZM161.379 204.958L169.706 212.146L169.959 211.853L170.191 211.543L161.379 204.958ZM72.1173 232.102L72.3037 221.104L61.1173 220.914V232.102H72.1173ZM73.9443 259.768L84.9029 258.815L84.8884 258.649L84.8689 258.483L73.9443 259.768ZM67.4193 136.576V125.576H56.8822L56.4294 136.103L67.4193 136.576ZM72.1173 208.351L61.1199 208.59L61.3538 219.351H72.1173V208.351ZM145.458 187.21L153.943 194.21L154.39 193.668L154.765 193.074L145.458 187.21ZM129.015 132.4L132.176 121.864L132.107 121.843L132.037 121.823L129.015 132.4ZM72.9003 135.532L74.2646 146.447L74.8869 146.369L75.4962 146.221L72.9003 135.532ZM63.3374 270.249C63.3824 270.198 63.4296 270.192 63.3672 270.21C63.2674 270.239 63.0581 270.263 62.8005 270.206C62.5469 270.149 62.4175 270.052 62.3923 270.029C62.3848 270.023 62.3938 270.03 62.4054 270.049C62.419 270.071 62.4093 270.065 62.393 270.003L41.1255 275.633C45.8202 293.369 68.5449 297.633 79.8531 284.783L63.3374 270.249ZM62.5507 270.686C60.6455 261.041 60.0102 250.82 59.7212 240.061C59.4415 229.652 59.49 218.078 58.8228 207.404L36.8657 208.776C37.5035 218.982 37.4215 229.202 37.7291 240.652C38.0273 251.751 38.697 263.454 40.9678 274.95L62.5507 270.686ZM58.8436 207.972C58.7072 195.281 57.4083 182.922 56.352 171.334C55.2784 159.558 54.4315 148.386 54.9191 137.049L32.9394 136.103C32.3831 149.039 33.3631 161.488 34.4428 173.332C35.5398 185.365 36.7204 196.626 36.8449 208.208L58.8436 207.972ZM53.1272 130.543C52.0125 128.843 52.2724 128.419 52.2428 128.971C52.2069 129.639 51.8692 129.819 52.2994 129.356C53.6957 127.854 57.5527 125.668 64.595 123.613C78.0684 119.682 95.1652 118.345 102.825 117.494L100.396 95.6283C93.9613 96.3432 74.2571 97.8769 58.4332 102.494C50.827 104.713 41.9112 108.219 36.1871 114.376C33.0572 117.743 30.5723 122.244 30.2744 127.792C29.9827 133.225 31.8658 138.24 34.7313 142.609L53.1272 130.543ZM103.039 117.468C128.996 114.067 148.6 124.873 158.145 140.384C167.62 155.781 168.203 177.452 152.568 198.373L170.191 211.543C190.835 183.918 191.417 152.475 176.881 128.853C162.414 105.344 133.993 91.2247 100.181 95.6542L103.039 117.468ZM153.052 197.77C144.347 207.856 132.118 213.903 117.729 217.322C103.282 220.754 87.4045 221.36 72.3037 221.104L71.9308 243.1C87.628 243.366 105.68 242.797 122.815 238.726C140.006 234.641 157.01 226.855 169.706 212.146L153.052 197.77ZM61.1173 232.102C61.1173 242.083 61.9476 251.941 63.0196 261.053L84.8689 258.483C83.8529 249.847 83.1173 240.913 83.1173 232.102H61.1173ZM62.9856 260.721C63.1459 262.564 63.4616 264.628 63.6295 265.878C63.8303 267.372 63.923 268.356 63.923 269.131C63.923 269.871 63.8313 270.038 63.8794 269.903C63.9648 269.665 64.1373 269.429 64.2366 269.34L78.9539 285.692C84.7084 280.513 85.923 274.03 85.923 269.131C85.923 266.807 85.6568 264.61 85.4335 262.948C85.1773 261.041 85.0037 259.974 84.9029 258.815L62.9856 260.721ZM56.4294 136.103C55.8699 149.111 56.9956 161.747 58.2401 173.7C59.5077 185.876 60.8713 197.159 61.1199 208.59L83.1147 208.112C82.8412 195.531 81.3338 183.063 80.1219 171.422C78.8869 159.56 77.9246 148.314 78.4091 137.049L56.4294 136.103ZM72.1173 219.351C84.3691 219.351 99.4897 219.32 113.83 216.387C128.285 213.432 143.141 207.303 153.943 194.21L136.973 180.21C130.549 187.997 121.132 192.439 109.422 194.834C97.5973 197.252 84.6604 197.351 72.1173 197.351V219.351ZM154.765 193.074C162.386 180.98 164.626 165.93 161.203 152.572C157.711 138.942 148.124 126.648 132.176 121.864L125.854 142.936C133.396 145.199 138.034 150.783 139.892 158.033C141.82 165.556 140.537 174.387 136.152 181.346L154.765 193.074ZM132.037 121.823C110.644 115.711 88.4098 120.446 70.3043 124.843L75.4962 146.221C93.9307 141.744 110.846 138.649 125.993 142.977L132.037 121.823ZM71.5359 124.617C69.6096 124.858 67.8598 125.359 67.3013 125.504C66.4883 125.715 66.8173 125.576 67.4193 125.576L67.4193 147.576C69.8483 147.576 71.8738 147.046 72.8224 146.8C74.0257 146.488 74.1029 146.467 74.2646 146.447L71.5359 124.617ZM271.305 294.22L272.644 305.138L272.986 305.096L273.325 305.033L271.305 294.22ZM201.879 256.375L191.943 261.093L192.156 261.543L192.409 261.971L201.879 256.375ZM239.724 116.74L235.072 106.772L234.673 106.958L234.29 107.176L239.724 116.74ZM280.44 110.476L273.041 118.615L275.928 121.24L279.823 121.459L280.44 110.476ZM328.725 140.23L318.84 145.055L318.952 145.284L319.074 145.508L328.725 140.23ZM333.423 250.894L343.604 255.059L343.693 254.843L343.772 254.623L333.423 250.894ZM215.973 198.694L205.002 197.891L205.001 197.905L205 197.919L215.973 198.694ZM238.941 261.073L246.311 252.907L245.296 251.991L244.088 251.351L238.941 261.073ZM306.801 249.85L314.399 257.804L315.647 256.613L316.469 255.096L306.801 249.85ZM300.537 140.23L309.337 133.63L308.745 132.841L308.022 132.169L300.537 140.23ZM273.393 129.529L281.444 122.033L277.687 117.998L272.206 118.593L273.393 129.529ZM269.966 283.302C247.702 286.032 223.297 270.998 211.349 250.779L192.409 261.971C207.605 287.688 239.576 309.194 272.644 305.138L269.966 283.302ZM211.816 251.657C201.93 230.838 199.989 205.101 205.924 181.509C211.853 157.942 225.348 137.56 245.158 126.304L234.29 107.176C208.165 122.02 191.644 148.096 184.589 176.142C177.539 204.162 179.643 235.193 191.943 261.093L211.816 251.657ZM244.376 126.708C251.472 123.396 257.079 120.055 263.345 118.172C269.2 116.413 271.559 117.269 273.041 118.615L287.84 102.337C277.837 93.2434 265.711 94.4902 257.015 97.1028C248.73 99.5921 239.721 104.603 235.072 106.772L244.376 126.708ZM279.823 121.459C290.67 122.068 298.085 123.849 303.768 127.14C309.247 130.313 314.185 135.519 318.84 145.055L338.61 135.405C332.564 123.017 324.974 113.998 314.794 108.102C304.816 102.323 293.439 100.189 281.057 99.4933L279.823 121.459ZM319.074 145.508C335.457 175.466 335.093 213.807 323.074 247.165L343.772 254.623C357.331 216.989 358.533 171.81 338.376 134.952L319.074 145.508ZM323.242 246.729C319.671 255.457 311.993 263.623 301.75 270.285C291.584 276.897 279.757 281.451 269.285 283.407L273.325 305.033C286.604 302.552 301.138 296.927 313.745 288.727C326.274 280.578 337.779 269.299 343.604 255.059L323.242 246.729ZM205 197.919C204.179 209.555 204.302 223.65 207.954 236.752C211.655 250.027 219.246 263.093 233.794 270.795L244.088 251.351C236.451 247.308 231.776 240.277 229.147 230.845C226.469 221.24 226.201 210.018 226.946 199.469L205 197.919ZM231.572 269.239C245.603 281.902 262.252 283.458 277.095 279.618C291.529 275.883 304.741 267.03 314.399 257.804L299.203 241.896C291.375 249.374 281.357 255.79 271.584 258.319C262.219 260.742 253.682 259.558 246.311 252.907L231.572 269.239ZM316.469 255.096C336.612 217.977 334.841 167.635 309.337 133.63L291.737 146.83C311.647 173.377 313.53 214.385 297.133 244.604L316.469 255.096ZM308.022 132.169C301.522 126.134 292.834 125.056 288.779 124.34C283.29 123.372 282.1 122.738 281.444 122.033L265.342 137.025C271.734 143.889 280.461 145.213 284.956 146.006C290.884 147.052 292.244 147.54 293.052 148.291L308.022 132.169ZM272.206 118.593C231.268 123.036 207.572 162.777 205.002 197.891L226.944 199.497C229.072 170.405 248.18 143.33 274.58 140.465L272.206 118.593ZM474.016 302.833L466.511 310.875L467.308 311.619L468.236 312.192L474.016 302.833ZM448.699 262.117L458.682 257.496L458.249 256.561L457.651 255.723L448.699 262.117ZM424.426 221.662L434.265 216.743L430.875 209.962L423.332 210.717L424.426 221.662ZM391.279 223.228V212.228H380.279V223.228H391.279ZM392.062 276.211H403.062V275.801L403.032 275.392L392.062 276.211ZM388.147 298.135L396.334 305.482L396.485 305.314L396.628 305.141L388.147 298.135ZM368.572 285.085L378.278 290.261L379.7 287.596L379.561 284.578L368.572 285.085ZM367.789 234.973L378.768 235.659L378.776 235.528L378.781 235.396L367.789 234.973ZM364.657 133.444H375.657V127.744L371.001 124.457L364.657 133.444ZM376.141 109.954L375.756 120.947L375.949 120.954H376.141V109.954ZM379.534 109.432L378.019 98.5369L379.534 120.432V109.432ZM471.667 115.174L477.408 105.791L477.076 105.588L476.731 105.409L471.667 115.174ZM500.377 183.817L510.324 188.514L510.877 187.344L511.143 186.078L500.377 183.817ZM448.699 216.964L444.614 206.751L433.153 211.335L439.023 222.195L448.699 216.964ZM466.186 245.413L475.737 239.955L475.397 239.361L474.986 238.813L466.186 245.413ZM483.934 277.516L493.522 272.123L493.074 271.327L492.501 270.615L483.934 277.516ZM490.72 288.739L501.234 285.504L501.137 285.187L501.02 284.877L490.72 288.739ZM388.93 131.878L387.332 120.995L377.93 122.375V131.878H388.93ZM391.279 199.738L380.306 200.504L381.02 210.738H391.279L391.279 199.738ZM478.192 175.465L485.298 183.862L488.963 180.761L489.181 175.964L478.192 175.465ZM481.522 294.791C471.656 285.583 465.45 272.116 458.682 257.496L438.717 266.738C444.999 280.306 452.887 298.159 466.511 310.875L481.522 294.791ZM457.651 255.723C448.868 243.428 441.07 230.353 434.265 216.743L414.588 226.581C421.877 241.159 430.261 255.228 439.748 268.511L457.651 255.723ZM423.332 210.717C413.299 211.72 402.184 212.228 391.279 212.228V234.228C402.821 234.228 414.674 233.692 425.521 232.607L423.332 210.717ZM380.279 223.228C380.279 240.274 379.747 259 381.093 277.03L403.032 275.392C401.767 258.448 402.279 241.156 402.279 223.228H380.279ZM381.062 276.211C381.062 281.149 381.308 283.739 381.015 286.811C380.772 289.351 380.23 290.448 379.667 291.129L396.628 305.141C401.024 299.819 402.44 293.869 402.915 288.906C403.339 284.474 403.062 279.103 403.062 276.211H381.062ZM379.961 290.788C379.734 291.041 379.616 291.086 379.641 291.074C379.66 291.065 379.684 291.062 379.671 291.063C379.597 291.068 379.222 291.041 378.747 290.719C378.266 290.394 378.16 290.093 378.174 290.137C378.189 290.185 378.208 290.286 378.198 290.4C378.187 290.521 378.16 290.483 378.278 290.261L358.867 279.909C352.473 291.897 358.388 303.51 366.423 308.944C374.506 314.41 387.341 315.503 396.334 305.482L379.961 290.788ZM379.561 284.578C378.764 267.317 377.771 251.615 378.768 235.659L356.811 234.287C355.72 251.739 356.815 268.923 357.584 285.592L379.561 284.578ZM378.781 235.396C379.456 217.865 378.643 200.51 377.696 183.594C376.74 166.531 375.657 150.021 375.657 133.444H353.657C353.657 150.797 354.793 168.086 355.73 184.823C356.675 201.707 357.428 218.151 356.798 234.55L378.781 235.396ZM371.001 124.457C369.299 123.256 369.29 122.589 369.379 122.924C369.479 123.302 369.325 123.536 369.42 123.366C369.564 123.109 370.068 122.461 371.22 121.87C372.332 121.3 373.875 120.881 375.756 120.947L376.527 98.9608C365.648 98.579 355.238 103.691 350.238 112.593C347.658 117.187 346.591 122.804 348.11 128.548C349.618 134.25 353.361 138.934 358.314 142.431L371.001 124.457ZM376.141 120.954C378.148 120.954 379.738 120.646 380.458 120.516C381.174 120.385 381.019 120.432 380.839 120.432V98.432C378.833 98.432 377.243 98.7395 376.523 98.8704C375.807 99.0005 375.962 98.954 376.141 98.954V120.954ZM380.839 98.432H379.534V120.432H380.839V98.432ZM381.05 120.327C411.889 116.036 442.08 112.223 466.604 124.939L476.731 105.409C444.879 88.8929 407.21 94.4755 378.019 98.5369L381.05 120.327ZM465.927 124.557C483.958 135.588 494.183 159.793 489.612 181.556L511.143 186.078C517.534 155.641 503.747 121.904 477.408 105.791L465.927 124.557ZM490.431 179.12C487.473 185.384 481.563 190.415 472.931 194.967C464.083 199.633 454.565 202.77 444.614 206.751L452.785 227.177C461.104 223.849 472.988 219.809 483.193 214.427C493.614 208.931 504.408 201.042 510.324 188.514L490.431 179.12ZM439.023 222.195C444.257 231.879 449.807 241.908 457.386 252.013L474.986 238.813C468.471 230.126 463.582 221.363 458.376 211.733L439.023 222.195ZM456.636 250.871C459.55 255.97 461.759 260.953 464.709 266.924C467.502 272.577 470.802 278.748 475.368 284.417L492.501 270.615C489.498 266.888 487.056 262.488 484.433 257.179C481.967 252.188 479.087 245.818 475.737 239.955L456.636 250.871ZM474.347 282.909C475.837 285.557 477.616 287.987 478.547 289.345C479.629 290.924 480.119 291.797 480.421 292.601L501.02 284.877C499.756 281.505 498.027 278.854 496.695 276.91C495.212 274.745 494.381 273.651 493.522 272.123L474.347 282.909ZM480.207 291.974C480.26 292.146 480.268 292.262 480.267 292.336C480.266 292.414 480.253 292.499 480.221 292.597C480.151 292.814 479.988 293.072 479.751 293.273C479.512 293.476 479.386 293.467 479.491 293.454C479.552 293.447 479.644 293.447 479.741 293.468C479.843 293.49 479.864 293.516 479.797 293.474L468.236 312.192C477.402 317.853 487.538 315.522 493.99 310.044C500.377 304.621 504.25 295.305 501.234 285.504L480.207 291.974ZM377.93 131.878C377.93 155.099 378.722 177.8 380.306 200.504L402.253 198.972C400.705 176.784 399.93 154.593 399.93 131.878H377.93ZM391.279 210.738C422.022 210.738 458.384 206.636 485.298 183.862L471.087 167.068C450.499 184.488 421.089 188.738 391.279 188.738L391.279 210.738ZM489.181 175.964C489.858 161.072 486.472 148.813 479.2 139.37C472.003 130.026 461.931 124.649 451.458 121.659C431.02 115.825 406.001 118.253 387.332 120.995L390.529 142.761C409.183 140.022 429.969 138.404 445.419 142.814C452.89 144.947 458.282 148.265 461.77 152.794C465.183 157.225 467.701 164.019 467.204 174.965L489.181 175.964ZM624.972 292.393L634.037 286.161L633.537 285.434L632.927 284.795L624.972 292.393ZM580.602 234.19L571.53 240.411L571.744 240.722L571.978 241.018L580.602 234.19ZM562.332 206.524L569.847 198.491L562.35 191.478L554.837 198.473L562.332 206.524ZM541.191 230.014L536.057 220.286L530.191 223.382V230.014H541.191ZM542.496 249.589L553.423 250.86L553.496 250.226V249.589H542.496ZM541.713 283.258L552.108 286.856L552.306 286.285L552.44 285.696L541.713 283.258ZM523.965 287.956L517.292 296.7L517.359 296.752L517.427 296.802L523.965 287.956ZM517.44 238.888L506.443 239.132L506.47 240.362L506.769 241.556L517.44 238.888ZM519.006 126.397L508.017 125.919L508.006 126.158V126.397H519.006ZM530.751 115.696L531.174 104.704L530.963 104.696H530.751V115.696ZM542.496 140.491L531.501 140.186L531.496 140.338V140.491H542.496ZM541.713 194.257L530.724 193.772L529.399 223.797L549.793 201.721L541.713 194.257ZM623.145 117.262L621.178 106.439L618.96 106.843L617.08 108.086L623.145 117.262ZM636.717 127.441L647.636 126.109L647.612 125.906L647.579 125.703L636.717 127.441ZM619.23 150.409L626.102 158.999L626.666 158.548L627.166 158.027L619.23 150.409ZM579.036 188.776L571.18 181.077L564.066 188.336L570.741 196.001L579.036 188.776ZM597.306 215.92L587.168 220.189L587.689 221.426L588.493 222.502L597.306 215.92ZM643.764 278.038L652.427 271.259L652.161 270.918L651.868 270.6L643.764 278.038ZM632.927 284.795C625.145 276.648 618.146 267.33 611.057 257.393C604.112 247.657 596.893 237.046 589.227 227.362L571.978 241.018C579.189 250.126 585.802 259.873 593.147 270.169C600.348 280.264 608.096 290.651 617.018 299.991L632.927 284.795ZM589.674 227.969C586.869 223.877 584.858 219.805 581.691 214.291C578.784 209.229 575.126 203.429 569.847 198.491L554.818 214.557C557.63 217.188 559.975 220.653 562.614 225.248C564.993 229.391 568.072 235.368 571.53 240.411L589.674 227.969ZM554.837 198.473C550.018 202.96 546.112 209.044 543.537 212.602C540.479 216.826 538.339 219.082 536.057 220.286L546.326 239.742C553.44 235.987 558.086 230.022 561.357 225.502C565.111 220.316 567.078 217.135 569.828 214.575L554.837 198.473ZM530.191 230.014C530.191 234.044 530.58 237.841 530.9 241.005C531.236 244.334 531.496 246.975 531.496 249.589H553.496C553.496 245.678 553.104 241.925 552.788 238.794C552.455 235.498 552.191 232.77 552.191 230.014H530.191ZM531.57 248.318C530.782 255.092 531.342 261.815 531.609 266.904C531.898 272.386 531.928 276.678 530.987 280.82L552.44 285.696C554.109 278.354 553.878 271.423 553.579 265.747C553.26 259.678 552.905 255.309 553.423 250.86L531.57 248.318ZM531.319 279.66C531.425 279.351 531.602 279.154 531.685 279.085C531.74 279.037 531.675 279.109 531.445 279.169C531.218 279.228 530.974 279.236 530.773 279.202C530.589 279.171 530.515 279.118 530.504 279.11L517.427 296.802C523.402 301.219 530.751 302.078 536.974 300.463C543.208 298.844 549.505 294.378 552.108 286.856L531.319 279.66ZM530.639 279.212C531.294 279.712 530.605 279.647 529.969 276.605C529.379 273.785 529.158 269.997 529.158 265.282C529.158 262.983 529.208 260.623 529.263 258.171C529.318 255.764 529.378 253.24 529.386 250.815C529.403 246.207 529.261 240.816 528.112 236.22L506.769 241.556C507.186 243.224 507.403 246.152 507.387 250.737C507.379 252.908 507.325 255.198 507.269 257.675C507.214 260.108 507.158 262.702 507.158 265.282C507.158 270.321 507.361 275.978 508.435 281.11C509.463 286.021 511.678 292.416 517.292 296.7L530.639 279.212ZM528.438 238.644C528.185 227.266 528.563 215.624 529.02 203.682C529.472 191.842 530.006 179.643 530.006 167.635H508.006C508.006 179.117 507.496 190.799 507.036 202.841C506.579 214.781 506.174 227.02 506.443 239.132L528.438 238.644ZM530.006 167.635V126.397L508.006 126.397V167.635H530.006ZM529.996 126.875C529.983 127.167 529.901 127.342 529.887 127.369C529.882 127.378 529.943 127.266 530.13 127.104C530.318 126.941 530.534 126.814 530.721 126.739C530.913 126.663 530.934 126.696 530.751 126.696V104.696C525.018 104.696 519.656 107.066 515.712 110.487C511.718 113.952 508.305 119.288 508.017 125.919L529.996 126.875ZM530.329 126.688C531.584 126.736 531.392 127.015 530.907 126.569C530.585 126.273 530.845 126.285 531.156 127.5C531.474 128.736 531.656 130.483 531.68 132.842C531.706 135.291 531.577 137.439 531.501 140.186L553.492 140.796C553.594 137.11 554.231 128.91 552.466 122.032C551.505 118.287 549.629 113.895 545.791 110.369C541.79 106.693 536.705 104.917 531.174 104.704L530.329 126.688ZM531.496 140.491C531.496 158.283 531.495 176.308 530.724 193.772L552.703 194.742C553.498 176.71 553.496 158.195 553.496 140.491H531.496ZM549.793 201.721C575.55 173.84 599.803 145.877 629.211 126.438L617.08 108.086C584.891 129.363 558.511 159.864 533.633 186.793L549.793 201.721ZM625.113 128.085C624.744 128.152 624.581 128.089 624.665 128.112C624.75 128.135 624.955 128.213 625.203 128.394C625.447 128.573 625.631 128.776 625.743 128.949C625.849 129.111 625.858 129.192 625.856 129.179L647.579 125.703C646.532 119.16 642.706 113.937 638.183 110.632C633.729 107.377 627.599 105.272 621.178 106.439L625.113 128.085ZM625.798 128.773C625.812 128.884 626.14 129.738 623.209 132.542C621.767 133.921 620.092 135.248 617.93 136.973C615.983 138.525 613.449 140.548 611.295 142.791L627.166 158.027C628.144 157.008 629.525 155.865 631.648 154.172C633.556 152.65 636.105 150.65 638.416 148.44C642.988 144.066 648.928 136.699 647.636 126.109L625.798 128.773ZM612.359 141.819C597.349 153.827 583.725 168.276 571.18 181.077L586.893 196.475C599.925 183.176 612.401 169.959 626.102 158.999L612.359 141.819ZM570.741 196.001C577.607 203.883 583.696 211.941 587.168 220.189L607.444 211.651C602.565 200.063 594.56 189.851 587.331 181.551L570.741 196.001ZM588.493 222.502C602.974 241.892 617.729 265.939 635.66 285.476L651.868 270.6C634.826 252.031 622.437 231.186 606.12 209.338L588.493 222.502ZM635.102 284.817C635.346 285.129 635.316 285.208 635.28 285.048C635.245 284.893 635.258 284.754 635.271 284.697C635.278 284.666 635.259 284.773 635.115 284.984C634.971 285.198 634.747 285.443 634.455 285.666C634.163 285.889 633.884 286.026 633.678 286.095C633.475 286.163 633.43 286.138 633.543 286.145C633.685 286.153 633.904 286.205 634.108 286.322C634.314 286.44 634.258 286.482 634.037 286.161L615.908 298.625C619.928 304.473 625.823 307.709 632.184 308.103C638.162 308.473 643.669 306.304 647.788 303.165C651.915 300.022 655.435 295.309 656.736 289.518C658.112 283.391 656.795 276.841 652.427 271.259L635.102 284.817ZM733.995 291.349L733.561 302.34L734.388 302.373L735.21 302.282L733.995 291.349ZM673.182 289.783L669.559 300.169L670.225 300.402L670.916 300.547L673.182 289.783ZM663.003 262.117L673.914 263.516L674.044 262.497L673.984 261.471L663.003 262.117ZM663.264 221.662L674.246 222.296L674.269 221.891L674.263 221.486L663.264 221.662ZM667.44 124.831L657.14 120.969L656.974 121.412L656.846 121.868L667.44 124.831ZM773.406 116.218L774.272 105.252L773.839 105.218H773.406V116.218ZM779.409 137.359L784.556 147.081L785.158 146.762L785.717 146.371L779.409 137.359ZM748.872 138.403L748.438 149.394L749.218 149.425L749.994 149.346L748.872 138.403ZM688.059 138.925L686.523 128.033L677.918 129.246L677.107 137.898L688.059 138.925ZM685.71 188.515L674.722 189.038L675.221 199.515H685.71V188.515ZM762.444 189.037L764.46 178.223L763.963 178.131L763.46 178.084L762.444 189.037ZM759.573 212.527L757.714 223.369L757.771 223.379L757.827 223.388L759.573 212.527ZM732.951 212.266L733.141 223.264L733.53 223.258L733.918 223.223L732.951 212.266ZM686.232 212.527L685.155 201.58L675.371 202.542L675.233 212.372L686.232 212.527ZM686.754 268.381L675.755 268.532L675.904 279.381H686.754V268.381ZM748.611 267.598L749.86 256.669L749.445 256.622L749.028 256.606L748.611 267.598ZM775.233 269.425L782.049 260.791L781.828 260.617L781.599 260.454L775.233 269.425ZM777.582 286.39L784.404 295.019L785.525 294.133L786.382 292.99L777.582 286.39ZM734.429 280.358C724.066 279.949 712.957 280.627 703.343 280.841C693.303 281.065 684.089 280.838 675.448 279.019L670.916 300.547C682.111 302.904 693.385 303.069 703.834 302.836C714.708 302.593 724.088 301.966 733.561 302.34L734.429 280.358ZM676.805 279.397C675.681 279.005 674.751 278.335 674.058 275.599C673.262 272.457 673.319 268.155 673.914 263.516L652.092 260.718C651.382 266.258 650.916 273.832 652.731 280.999C654.648 288.572 659.46 296.646 669.559 300.169L676.805 279.397ZM673.984 261.471C673.234 248.723 673.478 235.605 674.246 222.296L652.282 221.028C651.484 234.863 651.206 248.889 652.022 262.763L673.984 261.471ZM674.263 221.486C673.984 204.049 672.893 189.1 672.926 172.583C672.958 156.752 674.11 141.823 678.033 127.794L656.846 121.868C652.157 138.637 650.96 155.811 650.926 172.539C650.894 188.582 652.022 206.65 652.265 221.838L674.263 221.486ZM677.74 128.693C677.326 129.796 676.784 129.611 678.342 128.785C679.87 127.976 682.429 127.096 686.241 126.356C693.831 124.882 704.088 124.381 715.436 124.477C726.659 124.572 738.358 125.24 748.659 125.899C758.655 126.538 767.919 127.218 773.406 127.218V105.218C768.845 105.218 760.719 104.625 750.064 103.944C739.713 103.281 727.498 102.579 715.622 102.478C703.872 102.378 691.846 102.856 682.047 104.759C677.164 105.707 672.252 107.115 668.042 109.346C663.862 111.561 659.315 115.168 657.14 120.969L677.74 128.693ZM772.54 127.184C772.423 127.175 772.271 127.137 772.129 127.07C771.997 127.008 771.949 126.956 771.97 126.976C771.995 127 772.078 127.09 772.182 127.271C772.285 127.451 772.385 127.682 772.458 127.947C772.531 128.212 772.564 128.462 772.567 128.672C772.571 128.882 772.545 129 772.538 129.027C772.533 129.048 772.554 128.956 772.658 128.8C772.769 128.634 772.926 128.47 773.101 128.347L785.717 146.371C794.627 140.134 795.71 129.522 793.668 122.106C791.6 114.595 785.19 106.114 774.272 105.252L772.54 127.184ZM774.262 127.637C772.862 128.379 770.609 128.73 765.583 128.293C761.607 127.947 754.221 126.797 747.75 127.46L749.994 149.346C753.702 148.965 757.148 149.642 763.677 150.21C769.156 150.686 777.082 151.037 784.556 147.081L774.262 127.637ZM749.306 127.412C730.066 126.652 708.13 124.986 686.523 128.033L689.595 149.817C708.703 147.122 728.006 148.588 748.438 149.394L749.306 127.412ZM677.107 137.898C675.555 154.45 673.896 171.683 674.722 189.038L696.697 187.992C695.958 172.461 697.431 156.808 699.011 139.952L677.107 137.898ZM685.71 199.515C712.104 199.515 736.761 197.701 761.428 199.99L763.46 178.084C737.493 175.675 709.95 177.515 685.71 177.515V199.515ZM760.428 199.851C760.994 199.956 761.21 200.1 761.233 200.115C761.257 200.131 761.249 200.127 761.251 200.13C761.288 200.187 761.461 200.566 761.371 201.21C761.331 201.497 761.249 201.722 761.176 201.865C761.105 202.005 761.074 202.004 761.153 201.935C761.25 201.851 761.406 201.76 761.574 201.713C761.745 201.665 761.697 201.727 761.318 201.666L757.827 223.388C764.603 224.476 770.869 222.623 775.553 218.568C780.003 214.715 782.435 209.413 783.157 204.269C783.882 199.106 782.996 193.351 779.843 188.368C776.555 183.171 771.209 179.482 764.46 178.223L760.428 199.851ZM761.432 201.685C750.791 199.861 740.957 200.517 731.984 201.309L733.918 223.223C742.693 222.449 750.085 222.061 757.714 223.369L761.432 201.685ZM732.761 201.268C725.471 201.393 718.233 201.079 710.115 200.91C702.204 200.744 693.783 200.731 685.155 201.58L687.309 223.474C694.602 222.757 701.972 222.744 709.655 222.905C717.132 223.061 725.292 223.4 733.141 223.264L732.761 201.268ZM675.233 212.372C674.969 231.107 675.497 249.694 675.755 268.532L697.753 268.23C697.489 248.962 696.973 231.009 697.231 212.682L675.233 212.372ZM686.754 279.381C697.269 279.381 707.828 278.981 717.996 278.691C728.267 278.399 738.27 278.213 748.193 278.59L749.028 256.606C738.333 256.2 727.717 256.406 717.369 256.7C706.918 256.998 696.857 257.381 686.754 257.381V279.381ZM747.362 278.527C750.785 278.918 753.982 278.721 756.577 278.462C757.872 278.333 759.16 278.172 760.245 278.04C761.385 277.901 762.35 277.788 763.266 277.708C766.95 277.388 768.053 277.818 768.867 278.396L781.599 260.454C774.322 255.29 766.682 255.328 761.36 255.791C760.026 255.907 758.724 256.063 757.586 256.201C756.393 256.347 755.393 256.471 754.396 256.571C752.407 256.769 751.004 256.8 749.86 256.669L747.362 278.527ZM768.417 278.059C768.439 278.076 768.525 278.153 768.625 278.333C768.728 278.518 768.814 278.758 768.853 279.022C768.891 279.285 768.873 279.495 768.842 279.629C768.814 279.75 768.783 279.789 768.782 279.79L786.382 292.99C794.083 282.722 791.42 268.19 782.049 260.791L768.417 278.059ZM770.759 277.761C768.307 279.701 764.31 280.672 756.958 280.61C753.31 280.58 749.883 280.341 745.613 280.17C741.64 280.011 737.168 279.929 732.78 280.416L735.21 302.282C737.869 301.986 740.966 302.002 744.733 302.153C748.203 302.292 752.688 302.575 756.772 302.61C764.884 302.678 775.634 301.953 784.404 295.019L770.759 277.761Z" fill="black" mask="url(#path-1-outside-1_29_32)"/>
<mask id="path-3-outside-2_29_32" maskUnits="userSpaceOnUse" x="2" y="66" width="765" height="222" fill="black">
<rect fill="white" x="2" y="66" width="765" height="222"/>
<path d="M43.5953 249.516C37.8533 256.041 26.1083 253.692 23.7593 244.818C19.5833 223.677 21.1493 200.97 19.8443 180.09C19.5833 155.817 14.8853 132.849 15.9293 108.576C0.0082574 84.303 59.5163 80.127 73.6103 78.561C133.379 70.731 169.658 128.412 133.379 176.958C111.977 201.753 74.9153 204.624 44.1173 204.102C44.1173 213.498 44.9003 222.894 45.9443 231.768C46.4663 237.771 48.8153 244.818 43.5953 249.516ZM39.4193 108.576C38.3753 132.849 43.5953 156.339 44.1173 180.351C68.9123 180.351 100.232 180.09 117.458 159.21C129.464 140.157 124.505 111.447 101.015 104.4C82.7453 99.18 63.1703 103.095 44.9003 107.532C42.8123 107.793 41.2463 108.576 39.4193 108.576ZM243.305 266.22C215.639 269.613 187.451 251.343 173.879 228.375C151.694 181.656 165.788 114.84 211.724 88.74C223.469 83.259 240.956 72.036 252.44 82.476C275.669 83.781 290.024 90.306 300.725 112.23C318.995 145.638 318.212 187.398 305.423 222.894C296.027 245.862 267.056 261.783 243.305 266.22ZM187.973 170.694C186.407 192.879 188.756 221.328 210.941 233.073C232.343 252.387 261.314 238.554 278.801 221.85C297.071 188.181 295.244 142.506 272.537 112.23C265.229 105.444 252.44 109.098 245.393 101.529C211.724 105.183 190.322 138.591 187.973 170.694ZM446.016 274.833C434.271 263.871 427.224 248.211 420.699 234.117C411.564 221.328 403.473 207.756 396.426 193.662C385.986 194.706 374.502 195.228 363.279 195.228C363.279 212.715 362.757 230.724 364.062 248.211C364.062 256.041 365.106 264.132 360.147 270.135C351.012 280.314 334.308 268.83 340.572 257.085C339.789 240.12 338.745 223.677 339.789 206.973C341.094 173.043 336.657 139.374 336.657 105.444C323.346 96.048 333.264 81.432 348.141 81.954C349.968 81.954 351.012 81.432 352.839 81.432H351.534C381.549 77.256 415.479 72.558 443.667 87.174C465.852 100.746 477.858 129.717 472.377 155.817C463.503 174.609 438.969 181.656 420.699 188.964C425.919 198.621 431.139 208.017 438.186 217.413C444.45 228.375 448.365 240.12 455.934 249.516C458.283 253.692 461.154 256.563 462.72 260.739C465.852 270.918 454.89 280.314 446.016 274.833ZM360.93 103.878C360.93 126.846 361.713 149.292 363.279 171.738C393.555 171.738 426.441 167.562 450.192 147.465C452.541 95.787 398.253 98.397 360.93 103.878ZM596.972 264.393C580.268 246.906 567.479 224.982 552.602 206.19C546.338 197.055 542.423 186.093 534.332 178.524C526.763 185.571 522.587 197.055 513.191 202.014C513.191 208.8 514.496 215.064 514.496 221.589C513.191 232.812 516.323 243.774 513.713 255.258C511.364 262.044 501.968 264.393 495.965 259.956C486.047 252.387 492.572 223.416 489.44 210.888C488.918 187.398 491.006 163.125 491.006 139.635V98.397C491.267 92.394 497.27 87.696 502.751 87.696C516.323 88.218 514.757 103.095 514.496 112.491C514.496 130.239 514.496 148.509 513.713 166.257C539.03 138.852 564.347 109.62 595.145 89.262C600.887 88.218 607.673 92.916 608.717 99.441C610.022 110.142 597.494 115.884 591.23 122.409C576.875 133.893 563.825 147.726 551.036 160.776C558.083 168.867 565.13 178.002 569.306 187.92C584.705 208.539 598.277 230.985 615.764 250.038C625.16 262.044 605.585 276.921 596.972 264.393ZM705.995 263.349C686.159 262.566 665.018 265.959 645.182 261.783C633.959 257.868 633.698 244.296 635.003 234.117C634.22 220.806 634.481 207.234 635.264 193.662C634.742 161.037 630.827 127.629 639.44 96.831C646.487 78.039 725.309 88.218 745.406 88.218C755.324 89.001 759.239 103.878 751.409 109.359C742.535 114.057 731.051 109.359 720.872 110.403C701.036 109.62 680.417 108.054 660.059 110.925C658.493 127.629 656.927 144.072 657.71 160.515C683.027 160.515 709.127 158.688 734.444 161.037C749.843 163.908 746.189 186.876 731.573 184.527C722.438 182.961 713.825 183.483 704.951 184.266C689.813 184.527 674.153 182.961 658.232 184.527C657.971 203.058 658.493 221.328 658.754 240.381C679.373 240.381 699.992 238.815 720.611 239.598C729.746 240.642 739.142 235.683 747.233 241.425C752.192 245.34 753.497 253.17 749.582 258.39C738.359 267.264 720.089 261.783 705.995 263.349Z"/>
</mask>
<path d="M43.5953 249.516C37.8533 256.041 26.1083 253.692 23.7593 244.818C19.5833 223.677 21.1493 200.97 19.8443 180.09C19.5833 155.817 14.8853 132.849 15.9293 108.576C0.0082574 84.303 59.5163 80.127 73.6103 78.561C133.379 70.731 169.658 128.412 133.379 176.958C111.977 201.753 74.9153 204.624 44.1173 204.102C44.1173 213.498 44.9003 222.894 45.9443 231.768C46.4663 237.771 48.8153 244.818 43.5953 249.516ZM39.4193 108.576C38.3753 132.849 43.5953 156.339 44.1173 180.351C68.9123 180.351 100.232 180.09 117.458 159.21C129.464 140.157 124.505 111.447 101.015 104.4C82.7453 99.18 63.1703 103.095 44.9003 107.532C42.8123 107.793 41.2463 108.576 39.4193 108.576ZM243.305 266.22C215.639 269.613 187.451 251.343 173.879 228.375C151.694 181.656 165.788 114.84 211.724 88.74C223.469 83.259 240.956 72.036 252.44 82.476C275.669 83.781 290.024 90.306 300.725 112.23C318.995 145.638 318.212 187.398 305.423 222.894C296.027 245.862 267.056 261.783 243.305 266.22ZM187.973 170.694C186.407 192.879 188.756 221.328 210.941 233.073C232.343 252.387 261.314 238.554 278.801 221.85C297.071 188.181 295.244 142.506 272.537 112.23C265.229 105.444 252.44 109.098 245.393 101.529C211.724 105.183 190.322 138.591 187.973 170.694ZM446.016 274.833C434.271 263.871 427.224 248.211 420.699 234.117C411.564 221.328 403.473 207.756 396.426 193.662C385.986 194.706 374.502 195.228 363.279 195.228C363.279 212.715 362.757 230.724 364.062 248.211C364.062 256.041 365.106 264.132 360.147 270.135C351.012 280.314 334.308 268.83 340.572 257.085C339.789 240.12 338.745 223.677 339.789 206.973C341.094 173.043 336.657 139.374 336.657 105.444C323.346 96.048 333.264 81.432 348.141 81.954C349.968 81.954 351.012 81.432 352.839 81.432H351.534C381.549 77.256 415.479 72.558 443.667 87.174C465.852 100.746 477.858 129.717 472.377 155.817C463.503 174.609 438.969 181.656 420.699 188.964C425.919 198.621 431.139 208.017 438.186 217.413C444.45 228.375 448.365 240.12 455.934 249.516C458.283 253.692 461.154 256.563 462.72 260.739C465.852 270.918 454.89 280.314 446.016 274.833ZM360.93 103.878C360.93 126.846 361.713 149.292 363.279 171.738C393.555 171.738 426.441 167.562 450.192 147.465C452.541 95.787 398.253 98.397 360.93 103.878ZM596.972 264.393C580.268 246.906 567.479 224.982 552.602 206.19C546.338 197.055 542.423 186.093 534.332 178.524C526.763 185.571 522.587 197.055 513.191 202.014C513.191 208.8 514.496 215.064 514.496 221.589C513.191 232.812 516.323 243.774 513.713 255.258C511.364 262.044 501.968 264.393 495.965 259.956C486.047 252.387 492.572 223.416 489.44 210.888C488.918 187.398 491.006 163.125 491.006 139.635V98.397C491.267 92.394 497.27 87.696 502.751 87.696C516.323 88.218 514.757 103.095 514.496 112.491C514.496 130.239 514.496 148.509 513.713 166.257C539.03 138.852 564.347 109.62 595.145 89.262C600.887 88.218 607.673 92.916 608.717 99.441C610.022 110.142 597.494 115.884 591.23 122.409C576.875 133.893 563.825 147.726 551.036 160.776C558.083 168.867 565.13 178.002 569.306 187.92C584.705 208.539 598.277 230.985 615.764 250.038C625.16 262.044 605.585 276.921 596.972 264.393ZM705.995 263.349C686.159 262.566 665.018 265.959 645.182 261.783C633.959 257.868 633.698 244.296 635.003 234.117C634.22 220.806 634.481 207.234 635.264 193.662C634.742 161.037 630.827 127.629 639.44 96.831C646.487 78.039 725.309 88.218 745.406 88.218C755.324 89.001 759.239 103.878 751.409 109.359C742.535 114.057 731.051 109.359 720.872 110.403C701.036 109.62 680.417 108.054 660.059 110.925C658.493 127.629 656.927 144.072 657.71 160.515C683.027 160.515 709.127 158.688 734.444 161.037C749.843 163.908 746.189 186.876 731.573 184.527C722.438 182.961 713.825 183.483 704.951 184.266C689.813 184.527 674.153 182.961 658.232 184.527C657.971 203.058 658.493 221.328 658.754 240.381C679.373 240.381 699.992 238.815 720.611 239.598C729.746 240.642 739.142 235.683 747.233 241.425C752.192 245.34 753.497 253.17 749.582 258.39C738.359 267.264 720.089 261.783 705.995 263.349Z" fill="#F0BAB5"/>
<path d="M43.5953 249.516L36.2366 241.34L35.7606 241.768L35.3374 242.249L43.5953 249.516ZM23.7593 244.818L12.9678 246.95L13.0357 247.294L13.1255 247.633L23.7593 244.818ZM19.8443 180.09L8.84489 180.208L8.84795 180.492L8.86568 180.776L19.8443 180.09ZM15.9293 108.576L26.9191 109.049L27.0714 105.507L25.1272 102.543L15.9293 108.576ZM73.6103 78.561L74.825 89.4937L74.9322 89.4818L75.0391 89.4678L73.6103 78.561ZM133.379 176.958L141.706 184.146L141.959 183.853L142.191 183.543L133.379 176.958ZM44.1173 204.102L44.3037 193.104L33.1173 192.914V204.102H44.1173ZM45.9443 231.768L56.9029 230.815L56.8884 230.649L56.8689 230.483L45.9443 231.768ZM39.4193 108.576V97.576H28.8822L28.4294 108.103L39.4193 108.576ZM44.1173 180.351L33.1199 180.59L33.3538 191.351H44.1173V180.351ZM117.458 159.21L125.943 166.21L126.39 165.668L126.765 165.074L117.458 159.21ZM101.015 104.4L104.176 93.8639L104.107 93.8431L104.037 93.8232L101.015 104.4ZM44.9003 107.532L46.2646 118.447L46.8869 118.369L47.4962 118.221L44.9003 107.532ZM35.3374 242.249C35.3824 242.198 35.4296 242.192 35.3672 242.21C35.2674 242.239 35.0581 242.263 34.8005 242.206C34.5469 242.149 34.4175 242.052 34.3923 242.029C34.3848 242.023 34.3938 242.03 34.4054 242.049C34.419 242.071 34.4093 242.065 34.393 242.003L13.1255 247.633C17.8202 265.369 40.5449 269.633 51.8531 256.783L35.3374 242.249ZM34.5507 242.686C32.6455 233.041 32.0102 222.82 31.7212 212.061C31.4415 201.652 31.49 190.078 30.8228 179.404L8.86568 180.776C9.50354 190.982 9.42149 201.202 9.7291 212.652C10.0273 223.751 10.697 235.454 12.9678 246.95L34.5507 242.686ZM30.8436 179.972C30.7072 167.281 29.4083 154.922 28.352 143.334C27.2784 131.558 26.4315 120.386 26.9191 109.049L4.93942 108.103C4.38305 121.039 5.36313 133.488 6.44281 145.332C7.53976 157.365 8.72036 168.626 8.84489 180.208L30.8436 179.972ZM25.1272 102.543C24.0125 100.843 24.2724 100.419 24.2428 100.971C24.2069 101.639 23.8692 101.819 24.2994 101.356C25.6957 99.8542 29.5527 97.6678 36.595 95.6131C50.0684 91.6821 67.1652 90.3448 74.825 89.4937L72.3955 67.6283C65.9613 68.3432 46.2571 69.8769 30.4332 74.4936C22.827 76.7128 13.9112 80.2195 8.18713 86.3763C5.05716 89.7429 2.57228 94.2437 2.27441 99.7918C1.98274 105.225 3.86581 110.24 6.73131 114.609L25.1272 102.543ZM75.0391 89.4678C100.996 86.0673 120.6 96.8733 130.145 112.384C139.62 127.781 140.203 149.452 124.568 170.373L142.191 183.543C162.835 155.918 163.417 124.475 148.881 100.853C134.414 77.3442 105.993 63.2247 72.1814 67.6542L75.0391 89.4678ZM125.052 169.77C116.347 179.856 104.118 185.903 89.7289 189.322C75.2823 192.754 59.4045 193.36 44.3037 193.104L43.9308 215.1C59.628 215.366 77.6802 214.797 94.8146 210.726C112.006 206.641 129.01 198.855 141.706 184.146L125.052 169.77ZM33.1173 204.102C33.1173 214.083 33.9476 223.941 35.0196 233.053L56.8689 230.483C55.8529 221.847 55.1173 212.913 55.1173 204.102H33.1173ZM34.9856 232.721C35.1459 234.564 35.4616 236.628 35.6295 237.878C35.8303 239.372 35.923 240.356 35.923 241.131C35.923 241.871 35.8313 242.038 35.8794 241.903C35.9648 241.665 36.1373 241.429 36.2366 241.34L50.9539 257.692C56.7084 252.513 57.923 246.03 57.923 241.131C57.923 238.807 57.6568 236.61 57.4335 234.948C57.1773 233.041 57.0037 231.974 56.9029 230.815L34.9856 232.721ZM28.4294 108.103C27.8699 121.111 28.9956 133.747 30.2401 145.7C31.5077 157.876 32.8713 169.159 33.1199 180.59L55.1147 180.112C54.8412 167.531 53.3338 155.063 52.1219 143.422C50.8869 131.56 49.9246 120.314 50.4091 109.049L28.4294 108.103ZM44.1173 191.351C56.3691 191.351 71.4897 191.32 85.8299 188.387C100.285 185.432 115.141 179.303 125.943 166.21L108.973 152.21C102.549 159.997 93.1323 164.439 81.4224 166.834C69.5973 169.252 56.6604 169.351 44.1173 169.351V191.351ZM126.765 165.074C134.386 152.98 136.626 137.93 133.203 124.572C129.711 110.942 120.124 98.6484 104.176 93.8639L97.8544 114.936C105.396 117.199 110.034 122.783 111.892 130.033C113.82 137.556 112.537 146.387 108.152 153.346L126.765 165.074ZM104.037 93.8232C82.6444 87.711 60.4098 92.4456 42.3043 96.8427L47.4962 118.221C65.9307 113.744 82.8461 110.649 97.9933 114.977L104.037 93.8232ZM43.5359 96.6169C41.6096 96.8577 39.8598 97.3591 39.3013 97.5039C38.4883 97.7147 38.8173 97.576 39.4193 97.576L39.4193 119.576C41.8483 119.576 43.8738 119.046 44.8224 118.8C46.0257 118.488 46.1029 118.467 46.2646 118.447L43.5359 96.6169ZM243.305 266.22L244.644 277.138L244.986 277.096L245.325 277.033L243.305 266.22ZM173.879 228.375L163.943 233.093L164.156 233.543L164.409 233.971L173.879 228.375ZM211.724 88.74L207.072 78.772L206.673 78.9583L206.29 79.176L211.724 88.74ZM252.44 82.476L245.041 90.6153L247.928 93.2398L251.823 93.4587L252.44 82.476ZM300.725 112.23L290.84 117.055L290.952 117.284L291.074 117.508L300.725 112.23ZM305.423 222.894L315.604 227.059L315.693 226.843L315.772 226.623L305.423 222.894ZM187.973 170.694L177.002 169.891L177.001 169.905L177 169.919L187.973 170.694ZM210.941 233.073L218.311 224.907L217.296 223.991L216.088 223.351L210.941 233.073ZM278.801 221.85L286.399 229.804L287.647 228.613L288.469 227.096L278.801 221.85ZM272.537 112.23L281.337 105.63L280.745 104.841L280.022 104.169L272.537 112.23ZM245.393 101.529L253.444 94.0334L249.687 89.9984L244.206 90.5932L245.393 101.529ZM241.966 255.302C219.702 258.032 195.297 242.998 183.349 222.779L164.409 233.971C179.605 259.688 211.576 281.194 244.644 277.138L241.966 255.302ZM183.816 223.657C173.93 202.838 171.989 177.101 177.924 153.509C183.853 129.942 197.348 109.56 217.158 98.304L206.29 79.176C180.165 94.02 163.644 120.096 156.589 148.142C149.539 176.162 151.643 207.193 163.943 233.093L183.816 223.657ZM216.376 98.708C223.472 95.3964 229.079 92.0549 235.345 90.1724C241.2 88.4133 243.559 89.2686 245.041 90.6153L259.84 74.3367C249.837 65.2434 237.711 66.4902 229.015 69.1028C220.73 71.5921 211.721 76.6026 207.072 78.772L216.376 98.708ZM251.823 93.4587C262.67 94.0681 270.085 95.8485 275.768 99.1396C281.247 102.313 286.185 107.519 290.84 117.055L310.61 107.405C304.564 95.0168 296.974 85.9983 286.794 80.1021C276.816 74.3235 265.439 72.1889 253.057 71.4933L251.823 93.4587ZM291.074 117.508C307.457 147.466 307.093 185.807 295.074 219.165L315.772 226.623C329.331 188.989 330.533 143.81 310.376 106.952L291.074 117.508ZM295.242 218.729C291.671 227.457 283.993 235.623 273.75 242.285C263.584 248.897 251.757 253.451 241.285 255.407L245.325 277.033C258.604 274.552 273.138 268.927 285.745 260.727C298.274 252.578 309.779 241.299 315.604 227.059L295.242 218.729ZM177 169.919C176.179 181.555 176.302 195.65 179.954 208.752C183.655 222.027 191.246 235.093 205.794 242.795L216.088 223.351C208.451 219.308 203.776 212.277 201.147 202.845C198.469 193.24 198.201 182.018 198.946 171.469L177 169.919ZM203.572 241.239C217.603 253.902 234.252 255.458 249.095 251.618C263.529 247.883 276.741 239.03 286.399 229.804L271.203 213.896C263.375 221.374 253.357 227.79 243.584 230.319C234.219 232.742 225.682 231.558 218.311 224.907L203.572 241.239ZM288.469 227.096C308.612 189.977 306.841 139.635 281.337 105.63L263.737 118.83C283.647 145.377 285.53 186.385 269.133 216.604L288.469 227.096ZM280.022 104.169C273.522 98.1337 264.834 97.0561 260.779 96.3405C255.29 95.3719 254.1 94.7376 253.444 94.0334L237.342 109.025C243.734 115.889 252.461 117.213 256.956 118.006C262.884 119.052 264.244 119.54 265.052 120.291L280.022 104.169ZM244.206 90.5932C203.268 95.0361 179.572 134.777 177.002 169.891L198.944 171.497C201.072 142.405 220.18 115.33 246.58 112.465L244.206 90.5932ZM446.016 274.833L438.511 282.875L439.308 283.619L440.236 284.192L446.016 274.833ZM420.699 234.117L430.682 229.496L430.249 228.561L429.651 227.723L420.699 234.117ZM396.426 193.662L406.265 188.743L402.875 181.962L395.332 182.717L396.426 193.662ZM363.279 195.228V184.228H352.279V195.228H363.279ZM364.062 248.211H375.062V247.801L375.032 247.392L364.062 248.211ZM360.147 270.135L368.334 277.482L368.485 277.314L368.628 277.141L360.147 270.135ZM340.572 257.085L350.278 262.261L351.7 259.596L351.561 256.578L340.572 257.085ZM339.789 206.973L350.768 207.659L350.776 207.528L350.781 207.396L339.789 206.973ZM336.657 105.444H347.657V99.7443L343.001 96.4574L336.657 105.444ZM348.141 81.954L347.756 92.9472L347.949 92.954H348.141V81.954ZM351.534 81.432L350.019 70.5369L351.534 92.432V81.432ZM443.667 87.174L449.408 77.7906L449.076 77.5877L448.731 77.4087L443.667 87.174ZM472.377 155.817L482.324 160.514L482.877 159.344L483.143 158.078L472.377 155.817ZM420.699 188.964L416.614 178.751L405.153 183.335L411.023 194.195L420.699 188.964ZM438.186 217.413L447.737 211.955L447.397 211.361L446.986 210.813L438.186 217.413ZM455.934 249.516L465.522 244.123L465.074 243.327L464.501 242.615L455.934 249.516ZM462.72 260.739L473.234 257.504L473.137 257.187L473.02 256.877L462.72 260.739ZM360.93 103.878L359.332 92.9947L349.93 94.3754V103.878H360.93ZM363.279 171.738L352.306 172.504L353.02 182.738H363.279L363.279 171.738ZM450.192 147.465L457.298 155.862L460.963 152.761L461.181 147.964L450.192 147.465ZM453.522 266.791C443.656 257.583 437.45 244.116 430.682 229.496L410.717 238.738C416.999 252.306 424.887 270.159 438.511 282.875L453.522 266.791ZM429.651 227.723C420.868 215.428 413.07 202.353 406.265 188.743L386.588 198.581C393.877 213.159 402.261 227.228 411.748 240.511L429.651 227.723ZM395.332 182.717C385.299 183.72 374.184 184.228 363.279 184.228V206.228C374.821 206.228 386.674 205.692 397.521 204.607L395.332 182.717ZM352.279 195.228C352.279 212.274 351.747 231 353.093 249.03L375.032 247.392C373.767 230.448 374.279 213.156 374.279 195.228H352.279ZM353.062 248.211C353.062 253.149 353.308 255.739 353.015 258.811C352.772 261.351 352.23 262.448 351.667 263.129L368.628 277.141C373.024 271.819 374.44 265.869 374.915 260.906C375.339 256.474 375.062 251.103 375.062 248.211H353.062ZM351.961 262.788C351.734 263.041 351.616 263.086 351.641 263.074C351.66 263.065 351.684 263.062 351.671 263.063C351.597 263.068 351.222 263.041 350.747 262.719C350.266 262.394 350.16 262.093 350.174 262.137C350.189 262.185 350.208 262.286 350.198 262.4C350.187 262.521 350.16 262.483 350.278 262.261L330.867 251.909C324.473 263.897 330.388 275.51 338.423 280.944C346.506 286.41 359.341 287.503 368.334 277.482L351.961 262.788ZM351.561 256.578C350.764 239.317 349.771 223.615 350.768 207.659L328.811 206.287C327.72 223.739 328.815 240.923 329.584 257.592L351.561 256.578ZM350.781 207.396C351.456 189.865 350.643 172.51 349.696 155.594C348.74 138.531 347.657 122.021 347.657 105.444H325.657C325.657 122.797 326.793 140.086 327.73 156.823C328.675 173.707 329.428 190.151 328.798 206.55L350.781 207.396ZM343.001 96.4574C341.299 95.2557 341.29 94.5891 341.379 94.9242C341.479 95.3021 341.325 95.5356 341.42 95.3664C341.564 95.1088 342.068 94.4611 343.22 93.8699C344.332 93.2997 345.875 92.8812 347.756 92.9472L348.527 70.9608C337.648 70.579 327.238 75.6915 322.238 84.5931C319.658 89.1872 318.591 94.8038 320.11 100.548C321.618 106.25 325.361 110.934 330.314 114.431L343.001 96.4574ZM348.141 92.954C350.148 92.954 351.738 92.6465 352.458 92.5156C353.174 92.3855 353.019 92.432 352.839 92.432V70.432C350.833 70.432 349.243 70.7395 348.523 70.8704C347.807 71.0005 347.962 70.954 348.141 70.954V92.954ZM352.839 70.432H351.534V92.432H352.839V70.432ZM353.05 92.327C383.889 88.0365 414.08 84.223 438.604 96.9393L448.731 77.4087C416.879 60.8929 379.21 66.4755 350.019 70.5369L353.05 92.327ZM437.927 96.5574C455.958 107.588 466.183 131.793 461.612 153.556L483.143 158.078C489.534 127.641 475.747 93.9041 449.408 77.7906L437.927 96.5574ZM462.431 151.12C459.473 157.384 453.563 162.415 444.931 166.967C436.083 171.633 426.565 174.77 416.614 178.751L424.785 199.177C433.104 195.849 444.988 191.809 455.193 186.427C465.614 180.931 476.408 173.042 482.324 160.514L462.431 151.12ZM411.023 194.195C416.257 203.879 421.807 213.908 429.386 224.013L446.986 210.813C440.471 202.126 435.582 193.363 430.376 183.733L411.023 194.195ZM428.636 222.871C431.55 227.97 433.759 232.953 436.709 238.924C439.502 244.577 442.802 250.748 447.368 256.417L464.501 242.615C461.498 238.888 459.056 234.488 456.433 229.179C453.967 224.188 451.087 217.818 447.737 211.955L428.636 222.871ZM446.347 254.909C447.837 257.557 449.616 259.987 450.547 261.345C451.629 262.924 452.119 263.797 452.421 264.601L473.02 256.877C471.756 253.505 470.027 250.854 468.695 248.91C467.212 246.745 466.381 245.651 465.522 244.123L446.347 254.909ZM452.207 263.974C452.26 264.146 452.268 264.262 452.267 264.336C452.266 264.414 452.253 264.499 452.221 264.597C452.151 264.814 451.988 265.072 451.751 265.273C451.512 265.476 451.386 265.467 451.491 265.454C451.552 265.447 451.644 265.447 451.741 265.468C451.843 265.49 451.864 265.516 451.797 265.474L440.236 284.192C449.402 289.853 459.538 287.522 465.99 282.044C472.377 276.621 476.25 267.305 473.234 257.504L452.207 263.974ZM349.93 103.878C349.93 127.099 350.722 149.8 352.306 172.504L374.253 170.972C372.705 148.784 371.93 126.593 371.93 103.878H349.93ZM363.279 182.738C394.022 182.738 430.384 178.636 457.298 155.862L443.087 139.068C422.499 156.488 393.089 160.738 363.279 160.738L363.279 182.738ZM461.181 147.964C461.858 133.072 458.472 120.813 451.2 111.37C444.003 102.026 433.931 96.6489 423.458 93.6594C403.02 87.8253 378.001 90.2532 359.332 92.9947L362.529 114.761C381.183 112.022 401.969 110.404 417.419 114.814C424.89 116.947 430.282 120.265 433.77 124.794C437.183 129.225 439.701 136.019 439.204 146.965L461.181 147.964ZM596.972 264.393L606.037 258.161L605.537 257.434L604.927 256.795L596.972 264.393ZM552.602 206.19L543.53 212.411L543.744 212.722L543.978 213.018L552.602 206.19ZM534.332 178.524L541.847 170.491L534.35 163.478L526.837 170.473L534.332 178.524ZM513.191 202.014L508.057 192.286L502.191 195.382V202.014H513.191ZM514.496 221.589L525.423 222.86L525.496 222.226V221.589H514.496ZM513.713 255.258L524.108 258.856L524.306 258.285L524.44 257.696L513.713 255.258ZM495.965 259.956L489.292 268.7L489.359 268.752L489.427 268.802L495.965 259.956ZM489.44 210.888L478.443 211.132L478.47 212.362L478.769 213.556L489.44 210.888ZM491.006 98.397L480.017 97.9192L480.006 98.158V98.397H491.006ZM502.751 87.696L503.174 76.7041L502.963 76.696H502.751V87.696ZM514.496 112.491L503.501 112.186L503.496 112.338V112.491H514.496ZM513.713 166.257L502.724 165.772L501.399 195.797L521.793 173.721L513.713 166.257ZM595.145 89.262L593.178 78.4394L590.96 78.8426L589.08 80.0856L595.145 89.262ZM608.717 99.441L619.636 98.1094L619.612 97.9057L619.579 97.7031L608.717 99.441ZM591.23 122.409L598.102 130.999L598.666 130.548L599.166 130.027L591.23 122.409ZM551.036 160.776L543.18 153.077L536.066 160.336L542.741 168.001L551.036 160.776ZM569.306 187.92L559.168 192.189L559.689 193.426L560.493 194.502L569.306 187.92ZM615.764 250.038L624.427 243.259L624.161 242.918L623.868 242.6L615.764 250.038ZM604.927 256.795C597.145 248.648 590.146 239.33 583.057 229.393C576.112 219.657 568.893 209.046 561.227 199.362L543.978 213.018C551.189 222.126 557.802 231.873 565.147 242.169C572.348 252.264 580.096 262.651 589.018 271.991L604.927 256.795ZM561.674 199.969C558.869 195.877 556.858 191.805 553.691 186.291C550.784 181.229 547.126 175.429 541.847 170.491L526.818 186.557C529.63 189.188 531.975 192.653 534.614 197.248C536.993 201.391 540.072 207.368 543.53 212.411L561.674 199.969ZM526.837 170.473C522.018 174.96 518.112 181.044 515.537 184.602C512.479 188.826 510.339 191.082 508.057 192.286L518.326 211.742C525.44 207.987 530.086 202.022 533.357 197.502C537.111 192.316 539.078 189.135 541.828 186.575L526.837 170.473ZM502.191 202.014C502.191 206.044 502.58 209.841 502.9 213.005C503.236 216.334 503.496 218.975 503.496 221.589H525.496C525.496 217.678 525.104 213.925 524.788 210.794C524.455 207.498 524.191 204.77 524.191 202.014H502.191ZM503.57 220.318C502.782 227.092 503.342 233.815 503.609 238.904C503.898 244.386 503.928 248.678 502.987 252.82L524.44 257.696C526.109 250.354 525.878 243.423 525.579 237.747C525.26 231.678 524.905 227.309 525.423 222.86L503.57 220.318ZM503.319 251.66C503.425 251.351 503.602 251.154 503.685 251.085C503.74 251.037 503.675 251.109 503.445 251.169C503.218 251.228 502.974 251.236 502.773 251.202C502.589 251.171 502.515 251.118 502.504 251.11L489.427 268.802C495.402 273.219 502.751 274.078 508.974 272.463C515.208 270.844 521.505 266.378 524.108 258.856L503.319 251.66ZM502.639 251.212C503.294 251.712 502.605 251.647 501.969 248.605C501.379 245.785 501.158 241.997 501.158 237.282C501.158 234.983 501.208 232.623 501.263 230.171C501.318 227.764 501.378 225.24 501.386 222.815C501.403 218.207 501.261 212.816 500.112 208.22L478.769 213.556C479.186 215.224 479.403 218.152 479.387 222.737C479.379 224.908 479.325 227.198 479.269 229.675C479.214 232.108 479.158 234.702 479.158 237.282C479.158 242.321 479.361 247.978 480.435 253.11C481.463 258.021 483.678 264.416 489.292 268.7L502.639 251.212ZM500.438 210.644C500.185 199.266 500.563 187.624 501.02 175.682C501.472 163.842 502.006 151.643 502.006 139.635H480.006C480.006 151.117 479.496 162.799 479.036 174.841C478.579 186.781 478.174 199.02 478.443 211.132L500.438 210.644ZM502.006 139.635V98.397L480.006 98.397V139.635H502.006ZM501.996 98.8748C501.983 99.1671 501.901 99.3421 501.887 99.3689C501.882 99.3781 501.943 99.2661 502.13 99.1039C502.318 98.9413 502.534 98.8138 502.721 98.7392C502.913 98.6626 502.934 98.696 502.751 98.696V76.696C497.018 76.696 491.656 79.0656 487.712 82.4868C483.718 85.9522 480.305 91.2884 480.017 97.9192L501.996 98.8748ZM502.329 98.6879C503.584 98.7361 503.392 99.0154 502.907 98.5692C502.585 98.2733 502.845 98.2851 503.156 99.4996C503.474 100.736 503.656 102.483 503.68 104.842C503.706 107.291 503.577 109.439 503.501 112.186L525.492 112.796C525.594 109.11 526.231 100.91 524.466 94.0319C523.505 90.2874 521.629 85.8948 517.791 82.369C513.79 78.693 508.705 76.9168 503.174 76.7041L502.329 98.6879ZM503.496 112.491C503.496 130.283 503.495 148.308 502.724 165.772L524.703 166.742C525.498 148.71 525.496 130.195 525.496 112.491H503.496ZM521.793 173.721C547.55 145.84 571.803 117.877 601.211 98.4384L589.08 80.0856C556.891 101.363 530.511 131.864 505.633 158.793L521.793 173.721ZM597.113 100.085C596.744 100.152 596.581 100.089 596.665 100.112C596.75 100.135 596.955 100.213 597.203 100.394C597.447 100.573 597.631 100.776 597.743 100.949C597.849 101.111 597.858 101.192 597.856 101.179L619.579 97.7031C618.532 91.1598 614.706 85.937 610.183 82.6318C605.729 79.3771 599.599 77.2719 593.178 78.4394L597.113 100.085ZM597.798 100.773C597.812 100.884 598.14 101.738 595.209 104.542C593.767 105.921 592.092 107.248 589.93 108.973C587.983 110.525 585.449 112.548 583.295 114.791L599.166 130.027C600.144 129.008 601.525 127.865 603.648 126.172C605.556 124.65 608.105 122.65 610.416 120.44C614.988 116.066 620.928 108.699 619.636 98.1094L597.798 100.773ZM584.359 113.819C569.349 125.827 555.725 140.276 543.18 153.077L558.893 168.475C571.925 155.176 584.401 141.959 598.102 130.999L584.359 113.819ZM542.741 168.001C549.607 175.883 555.696 183.941 559.168 192.189L579.444 183.651C574.565 172.063 566.56 161.851 559.331 153.551L542.741 168.001ZM560.493 194.502C574.974 213.892 589.729 237.939 607.66 257.476L623.868 242.6C606.826 224.031 594.437 203.186 578.12 181.338L560.493 194.502ZM607.102 256.817C607.346 257.129 607.316 257.208 607.28 257.048C607.245 256.893 607.258 256.754 607.271 256.697C607.278 256.666 607.259 256.773 607.115 256.984C606.971 257.198 606.747 257.443 606.455 257.666C606.163 257.889 605.884 258.026 605.678 258.095C605.475 258.163 605.43 258.138 605.543 258.145C605.685 258.153 605.904 258.205 606.108 258.322C606.314 258.44 606.258 258.482 606.037 258.161L587.908 270.625C591.928 276.473 597.823 279.709 604.184 280.103C610.162 280.473 615.669 278.304 619.788 275.165C623.915 272.022 627.435 267.309 628.736 261.518C630.112 255.391 628.795 248.841 624.427 243.259L607.102 256.817ZM705.995 263.349L705.561 274.34L706.388 274.373L707.21 274.282L705.995 263.349ZM645.182 261.783L641.559 272.169L642.225 272.402L642.916 272.547L645.182 261.783ZM635.003 234.117L645.914 235.516L646.044 234.497L645.984 233.471L635.003 234.117ZM635.264 193.662L646.246 194.296L646.269 193.891L646.263 193.486L635.264 193.662ZM639.44 96.831L629.14 92.9686L628.974 93.4122L628.846 93.8684L639.44 96.831ZM745.406 88.218L746.272 77.2521L745.839 77.218H745.406V88.218ZM751.409 109.359L756.556 119.081L757.158 118.762L757.717 118.371L751.409 109.359ZM720.872 110.403L720.438 121.394L721.218 121.425L721.994 121.346L720.872 110.403ZM660.059 110.925L658.523 100.033L649.918 101.246L649.107 109.898L660.059 110.925ZM657.71 160.515L646.722 161.038L647.221 171.515H657.71V160.515ZM734.444 161.037L736.46 150.223L735.963 150.131L735.46 150.084L734.444 161.037ZM731.573 184.527L729.714 195.369L729.771 195.379L729.827 195.388L731.573 184.527ZM704.951 184.266L705.141 195.264L705.53 195.258L705.918 195.223L704.951 184.266ZM658.232 184.527L657.155 173.58L647.371 174.542L647.233 184.372L658.232 184.527ZM658.754 240.381L647.755 240.532L647.904 251.381H658.754V240.381ZM720.611 239.598L721.86 228.669L721.445 228.622L721.028 228.606L720.611 239.598ZM747.233 241.425L754.049 232.791L753.828 232.617L753.599 232.454L747.233 241.425ZM749.582 258.39L756.404 267.019L757.525 266.133L758.382 264.99L749.582 258.39ZM706.429 252.358C696.066 251.949 684.957 252.627 675.343 252.841C665.303 253.065 656.089 252.838 647.448 251.019L642.916 272.547C654.111 274.904 665.385 275.069 675.834 274.836C686.708 274.593 696.088 273.966 705.561 274.34L706.429 252.358ZM648.805 251.397C647.681 251.005 646.751 250.335 646.058 247.599C645.262 244.457 645.319 240.155 645.914 235.516L624.092 232.718C623.382 238.258 622.916 245.832 624.731 252.999C626.648 260.572 631.46 268.646 641.559 272.169L648.805 251.397ZM645.984 233.471C645.234 220.723 645.478 207.605 646.246 194.296L624.282 193.028C623.484 206.863 623.206 220.889 624.022 234.763L645.984 233.471ZM646.263 193.486C645.984 176.049 644.893 161.1 644.926 144.583C644.958 128.752 646.11 113.823 650.033 99.7936L628.846 93.8684C624.157 110.637 622.96 127.811 622.926 144.539C622.894 160.582 624.022 178.65 624.265 193.838L646.263 193.486ZM649.74 100.693C649.326 101.796 648.784 101.611 650.342 100.785C651.87 99.9759 654.429 99.0957 658.241 98.3556C665.831 96.8817 676.088 96.3809 687.436 96.4771C698.659 96.5722 710.358 97.2396 720.659 97.8987C730.655 98.5383 739.919 99.218 745.406 99.218V77.218C740.845 77.218 732.719 76.6253 722.064 75.9436C711.713 75.2814 699.498 74.5785 687.622 74.4779C675.872 74.3783 663.846 74.8563 654.047 76.759C649.164 77.7073 644.252 79.115 640.042 81.3456C635.862 83.5605 631.315 87.1683 629.14 92.9686L649.74 100.693ZM744.54 99.1839C744.423 99.1747 744.271 99.1372 744.129 99.0699C743.997 99.0077 743.949 98.9558 743.97 98.976C743.995 99.0004 744.078 99.0904 744.182 99.2709C744.285 99.4514 744.385 99.6821 744.458 99.947C744.531 100.212 744.564 100.462 744.567 100.672C744.571 100.882 744.545 101 744.538 101.027C744.533 101.048 744.554 100.956 744.658 100.8C744.769 100.634 744.926 100.47 745.101 100.347L757.717 118.371C766.627 112.134 767.71 101.522 765.668 94.1064C763.6 86.595 757.19 78.1141 746.272 77.2521L744.54 99.1839ZM746.262 99.6373C744.862 100.379 742.609 100.73 737.583 100.293C733.607 99.9469 726.221 98.7967 719.75 99.4604L721.994 121.346C725.702 120.965 729.148 121.642 735.677 122.21C741.156 122.686 749.082 123.037 756.556 119.081L746.262 99.6373ZM721.306 99.4116C702.066 98.6521 680.13 96.9855 658.523 100.033L661.595 121.817C680.703 119.122 700.006 120.588 720.438 121.394L721.306 99.4116ZM649.107 109.898C647.555 126.45 645.896 143.683 646.722 161.038L668.697 159.992C667.958 144.461 669.431 128.808 671.011 111.952L649.107 109.898ZM657.71 171.515C684.104 171.515 708.761 169.701 733.428 171.99L735.46 150.084C709.493 147.675 681.95 149.515 657.71 149.515V171.515ZM732.428 171.851C732.994 171.956 733.21 172.1 733.233 172.115C733.257 172.131 733.249 172.127 733.251 172.13C733.288 172.187 733.461 172.566 733.371 173.21C733.331 173.497 733.249 173.722 733.176 173.865C733.105 174.005 733.074 174.004 733.153 173.935C733.25 173.851 733.406 173.76 733.574 173.713C733.745 173.665 733.697 173.727 733.318 173.666L729.827 195.388C736.603 196.476 742.869 194.623 747.553 190.568C752.003 186.715 754.435 181.413 755.157 176.269C755.882 171.106 754.996 165.351 751.843 160.368C748.555 155.171 743.209 151.482 736.46 150.223L732.428 171.851ZM733.432 173.685C722.791 171.861 712.957 172.517 703.984 173.309L705.918 195.223C714.693 194.449 722.085 194.061 729.714 195.369L733.432 173.685ZM704.761 173.268C697.471 173.393 690.233 173.079 682.115 172.91C674.204 172.744 665.783 172.731 657.155 173.58L659.309 195.474C666.602 194.757 673.972 194.744 681.655 194.905C689.132 195.061 697.292 195.4 705.141 195.264L704.761 173.268ZM647.233 184.372C646.969 203.107 647.497 221.694 647.755 240.532L669.753 240.23C669.489 220.962 668.973 203.009 669.231 184.682L647.233 184.372ZM658.754 251.381C669.269 251.381 679.828 250.981 689.996 250.691C700.267 250.399 710.27 250.213 720.193 250.59L721.028 228.606C710.333 228.2 699.717 228.406 689.369 228.7C678.918 228.998 668.857 229.381 658.754 229.381V251.381ZM719.362 250.527C722.785 250.918 725.982 250.721 728.577 250.462C729.872 250.333 731.16 250.172 732.245 250.04C733.385 249.901 734.35 249.788 735.266 249.708C738.95 249.388 740.053 249.818 740.867 250.396L753.599 232.454C746.322 227.29 738.682 227.328 733.36 227.791C732.026 227.907 730.724 228.063 729.586 228.201C728.393 228.347 727.393 228.471 726.396 228.571C724.407 228.769 723.004 228.8 721.86 228.669L719.362 250.527ZM740.417 250.059C740.439 250.076 740.525 250.153 740.625 250.333C740.728 250.518 740.814 250.758 740.853 251.022C740.891 251.285 740.873 251.495 740.842 251.629C740.814 251.75 740.783 251.789 740.782 251.79L758.382 264.99C766.083 254.722 763.42 240.19 754.049 232.791L740.417 250.059ZM742.759 249.761C740.307 251.701 736.31 252.672 728.958 252.61C725.31 252.58 721.883 252.341 717.613 252.17C713.64 252.011 709.168 251.929 704.78 252.416L707.21 274.282C709.869 273.986 712.966 274.002 716.733 274.153C720.203 274.292 724.688 274.575 728.772 274.61C736.884 274.678 747.634 273.953 756.404 267.019L742.759 249.761Z" fill="black" mask="url(#path-3-outside-2_29_32)"/>
</svg>
