<svg width="788" height="211" viewBox="0 0 788 211" fill="none" xmlns="http://www.w3.org/2000/svg">
<mask id="path-1-outside-1_4075_10" maskUnits="userSpaceOnUse" x="20" y="42" width="748" height="146" fill="black">
<rect fill="white" x="20" y="42" width="748" height="146"/>
<path d="M102.867 179.01C95.217 171.87 90.627 161.67 86.377 152.49C80.427 144.16 75.157 135.32 70.567 126.14C63.767 126.82 56.287 127.16 48.977 127.16C48.977 138.55 48.637 150.28 49.487 161.67C49.487 166.77 50.167 172.04 46.937 175.95C40.987 182.58 30.107 175.1 34.187 167.45C33.677 156.4 32.997 145.69 33.677 134.81C34.527 112.71 31.637 90.78 31.637 68.68C22.967 62.56 29.427 53.04 39.117 53.38C40.307 53.38 40.987 53.04 42.177 53.04H41.327C60.877 50.32 82.977 47.26 101.337 56.78C115.787 65.62 123.607 84.49 120.037 101.49C114.257 113.73 98.277 118.32 86.377 123.08C89.777 129.37 93.177 135.49 97.767 141.61C101.847 148.75 104.397 156.4 109.327 162.52C110.857 165.24 112.727 167.11 113.747 169.83C115.787 176.46 108.647 182.58 102.867 179.01ZM47.447 67.66C47.447 82.62 47.957 97.24 48.977 111.86C68.697 111.86 90.117 109.14 105.587 96.05C107.117 62.39 71.757 64.09 47.447 67.66ZM183.001 173.4C164.981 175.61 146.621 163.71 137.781 148.75C123.331 118.32 132.511 74.8 162.431 57.8C170.081 54.23 181.471 46.92 188.951 53.72C204.081 54.57 213.431 58.82 220.401 73.1C232.301 94.86 231.791 122.06 223.461 145.18C217.341 160.14 198.471 170.51 183.001 173.4ZM146.961 111.18C145.941 125.63 147.471 144.16 161.921 151.81C175.861 164.39 194.731 155.38 206.121 144.5C218.021 122.57 216.831 92.82 202.041 73.1C197.281 68.68 188.951 71.06 184.361 66.13C162.431 68.51 148.491 90.27 146.961 111.18ZM238.868 169.83C227.648 166.43 235.638 153.85 237.168 146.03L237.338 145.69C237.848 144.84 238.188 144.16 238.528 143.14L238.358 143.31L238.528 142.97L238.698 142.29V142.63C251.448 115.09 259.948 85.51 273.888 58.99C281.368 51.85 287.828 59.5 289.698 66.81C293.608 75.82 296.328 85 300.068 94.01C307.038 114.24 315.028 134.98 325.738 154.02L325.568 153.17C327.268 156.74 329.988 159.97 328.798 163.71C328.118 167.45 324.038 170.51 319.618 169.49C314.348 168.3 312.818 161.84 310.098 157.25C307.038 150.96 303.638 145.01 300.578 138.72C294.798 139.4 291.398 139.4 285.958 139.74C275.928 140.25 266.068 141.1 255.868 141.1C253.658 146.03 251.618 150.96 250.598 156.57C248.558 162.18 247.538 171.7 238.868 169.83ZM262.838 125.29C273.718 125.29 284.088 124.27 294.798 124.27C290.208 110.33 284.088 96.9 279.838 83.13C275.248 94.52 270.148 105.74 266.068 117.13C264.708 120.02 264.028 122.74 262.838 125.29ZM325.058 152.15L325.568 153.17L325.398 152.83C325.398 152.66 325.228 152.32 325.058 152.15ZM387.954 170.68C378.094 173.23 327.944 183.77 341.714 160.82C341.544 129.37 340.694 97.24 342.394 65.28C339.844 48.62 376.564 53.89 386.254 55.76C428.074 63.92 436.234 100.47 423.314 136.85C418.214 153 404.104 165.75 387.954 170.68ZM357.184 159.63C373.844 159.12 393.224 155.89 403.934 141.1C417.194 117.47 418.724 90.44 399.514 77.35C393.904 73.44 386.254 70.72 376.564 69.7C370.444 69.36 363.814 69.19 357.694 69.36C356.504 99.45 356.844 129.54 357.184 159.63ZM448.12 178.84C434.35 178.84 440.64 155.04 439.96 145.86C440.64 132.77 440.64 119.68 441.15 106.76C441.49 93.5 436.56 70.21 442.68 58.99C445.74 55.08 453.05 55.93 455.43 60.52C462.23 76.5 472.77 90.27 480.08 105.4L480.25 106.25L480.08 105.91L480.42 106.76C485.69 117.98 491.64 128.86 496.06 140.42C496.91 137.36 498.1 134.64 498.78 131.58C510.34 104.72 526.83 80.24 540.77 54.4C544.17 46.75 556.75 49.13 556.07 58.99C555.22 79.05 553.69 99.11 555.05 119.34C555.05 130.05 555.73 140.42 555.22 151.13C554.54 158.27 557.6 166.26 553.69 172.21C549.44 177.31 540.26 174.25 539.75 167.79C540.26 162.86 539.75 157.76 539.58 152.66C539.75 131.07 538.22 109.31 539.24 87.89C531.08 102.34 522.92 116.62 515.61 131.58C510.85 141.95 509.49 153.51 505.24 163.88C501.84 171.19 491.98 168.98 489.94 161.67C486.2 155.04 482.29 148.58 479.57 141.27C472.26 125.29 464.61 108.97 455.94 93.5C457.47 115.09 455.94 136.68 454.92 158.27C453.9 165.41 459 177.82 448.12 178.84ZM572.228 169.83C561.008 166.43 568.998 153.85 570.528 146.03L570.698 145.69C571.208 144.84 571.548 144.16 571.888 143.14L571.718 143.31L571.888 142.97L572.058 142.29V142.63C584.808 115.09 593.308 85.51 607.248 58.99C614.728 51.85 621.188 59.5 623.058 66.81C626.968 75.82 629.688 85 633.428 94.01C640.398 114.24 648.388 134.98 659.098 154.02L658.928 153.17C660.628 156.74 663.348 159.97 662.158 163.71C661.478 167.45 657.398 170.51 652.978 169.49C647.708 168.3 646.178 161.84 643.458 157.25C640.398 150.96 636.998 145.01 633.938 138.72C628.158 139.4 624.758 139.4 619.318 139.74C609.288 140.25 599.428 141.1 589.228 141.1C587.018 146.03 584.978 150.96 583.958 156.57C581.918 162.18 580.898 171.7 572.228 169.83ZM596.198 125.29C607.078 125.29 617.448 124.27 628.158 124.27C623.568 110.33 617.448 96.9 613.198 83.13C608.608 94.52 603.508 105.74 599.428 117.13C598.068 120.02 597.388 122.74 596.198 125.29ZM658.418 152.15L658.928 153.17L658.758 152.83C658.758 152.66 658.588 152.32 658.418 152.15ZM692.414 162.52C688.674 166.77 681.024 165.24 679.494 159.46C676.774 145.69 677.794 130.9 676.944 117.3C676.774 101.49 673.714 86.53 674.394 70.72C664.024 54.91 702.784 52.19 711.964 51.17C750.894 46.07 774.524 83.64 750.894 115.26C736.954 131.41 712.814 133.28 692.754 132.94C692.754 139.06 693.264 145.18 693.944 150.96C694.284 154.87 695.814 159.46 692.414 162.52ZM689.694 70.72C689.014 86.53 692.414 101.83 692.754 117.47C708.904 117.47 729.304 117.3 740.524 103.7C748.344 91.29 745.114 72.59 729.814 68C717.914 64.6 705.164 67.15 693.264 70.04C691.904 70.21 690.884 70.72 689.694 70.72Z"/>
</mask>
<path d="M102.867 179.01C95.217 171.87 90.627 161.67 86.377 152.49C80.427 144.16 75.157 135.32 70.567 126.14C63.767 126.82 56.287 127.16 48.977 127.16C48.977 138.55 48.637 150.28 49.487 161.67C49.487 166.77 50.167 172.04 46.937 175.95C40.987 182.58 30.107 175.1 34.187 167.45C33.677 156.4 32.997 145.69 33.677 134.81C34.527 112.71 31.637 90.78 31.637 68.68C22.967 62.56 29.427 53.04 39.117 53.38C40.307 53.38 40.987 53.04 42.177 53.04H41.327C60.877 50.32 82.977 47.26 101.337 56.78C115.787 65.62 123.607 84.49 120.037 101.49C114.257 113.73 98.277 118.32 86.377 123.08C89.777 129.37 93.177 135.49 97.767 141.61C101.847 148.75 104.397 156.4 109.327 162.52C110.857 165.24 112.727 167.11 113.747 169.83C115.787 176.46 108.647 182.58 102.867 179.01ZM47.447 67.66C47.447 82.62 47.957 97.24 48.977 111.86C68.697 111.86 90.117 109.14 105.587 96.05C107.117 62.39 71.757 64.09 47.447 67.66ZM183.001 173.4C164.981 175.61 146.621 163.71 137.781 148.75C123.331 118.32 132.511 74.8 162.431 57.8C170.081 54.23 181.471 46.92 188.951 53.72C204.081 54.57 213.431 58.82 220.401 73.1C232.301 94.86 231.791 122.06 223.461 145.18C217.341 160.14 198.471 170.51 183.001 173.4ZM146.961 111.18C145.941 125.63 147.471 144.16 161.921 151.81C175.861 164.39 194.731 155.38 206.121 144.5C218.021 122.57 216.831 92.82 202.041 73.1C197.281 68.68 188.951 71.06 184.361 66.13C162.431 68.51 148.491 90.27 146.961 111.18ZM238.868 169.83C227.648 166.43 235.638 153.85 237.168 146.03L237.338 145.69C237.848 144.84 238.188 144.16 238.528 143.14L238.358 143.31L238.528 142.97L238.698 142.29V142.63C251.448 115.09 259.948 85.51 273.888 58.99C281.368 51.85 287.828 59.5 289.698 66.81C293.608 75.82 296.328 85 300.068 94.01C307.038 114.24 315.028 134.98 325.738 154.02L325.568 153.17C327.268 156.74 329.988 159.97 328.798 163.71C328.118 167.45 324.038 170.51 319.618 169.49C314.348 168.3 312.818 161.84 310.098 157.25C307.038 150.96 303.638 145.01 300.578 138.72C294.798 139.4 291.398 139.4 285.958 139.74C275.928 140.25 266.068 141.1 255.868 141.1C253.658 146.03 251.618 150.96 250.598 156.57C248.558 162.18 247.538 171.7 238.868 169.83ZM262.838 125.29C273.718 125.29 284.088 124.27 294.798 124.27C290.208 110.33 284.088 96.9 279.838 83.13C275.248 94.52 270.148 105.74 266.068 117.13C264.708 120.02 264.028 122.74 262.838 125.29ZM325.058 152.15L325.568 153.17L325.398 152.83C325.398 152.66 325.228 152.32 325.058 152.15ZM387.954 170.68C378.094 173.23 327.944 183.77 341.714 160.82C341.544 129.37 340.694 97.24 342.394 65.28C339.844 48.62 376.564 53.89 386.254 55.76C428.074 63.92 436.234 100.47 423.314 136.85C418.214 153 404.104 165.75 387.954 170.68ZM357.184 159.63C373.844 159.12 393.224 155.89 403.934 141.1C417.194 117.47 418.724 90.44 399.514 77.35C393.904 73.44 386.254 70.72 376.564 69.7C370.444 69.36 363.814 69.19 357.694 69.36C356.504 99.45 356.844 129.54 357.184 159.63ZM448.12 178.84C434.35 178.84 440.64 155.04 439.96 145.86C440.64 132.77 440.64 119.68 441.15 106.76C441.49 93.5 436.56 70.21 442.68 58.99C445.74 55.08 453.05 55.93 455.43 60.52C462.23 76.5 472.77 90.27 480.08 105.4L480.25 106.25L480.08 105.91L480.42 106.76C485.69 117.98 491.64 128.86 496.06 140.42C496.91 137.36 498.1 134.64 498.78 131.58C510.34 104.72 526.83 80.24 540.77 54.4C544.17 46.75 556.75 49.13 556.07 58.99C555.22 79.05 553.69 99.11 555.05 119.34C555.05 130.05 555.73 140.42 555.22 151.13C554.54 158.27 557.6 166.26 553.69 172.21C549.44 177.31 540.26 174.25 539.75 167.79C540.26 162.86 539.75 157.76 539.58 152.66C539.75 131.07 538.22 109.31 539.24 87.89C531.08 102.34 522.92 116.62 515.61 131.58C510.85 141.95 509.49 153.51 505.24 163.88C501.84 171.19 491.98 168.98 489.94 161.67C486.2 155.04 482.29 148.58 479.57 141.27C472.26 125.29 464.61 108.97 455.94 93.5C457.47 115.09 455.94 136.68 454.92 158.27C453.9 165.41 459 177.82 448.12 178.84ZM572.228 169.83C561.008 166.43 568.998 153.85 570.528 146.03L570.698 145.69C571.208 144.84 571.548 144.16 571.888 143.14L571.718 143.31L571.888 142.97L572.058 142.29V142.63C584.808 115.09 593.308 85.51 607.248 58.99C614.728 51.85 621.188 59.5 623.058 66.81C626.968 75.82 629.688 85 633.428 94.01C640.398 114.24 648.388 134.98 659.098 154.02L658.928 153.17C660.628 156.74 663.348 159.97 662.158 163.71C661.478 167.45 657.398 170.51 652.978 169.49C647.708 168.3 646.178 161.84 643.458 157.25C640.398 150.96 636.998 145.01 633.938 138.72C628.158 139.4 624.758 139.4 619.318 139.74C609.288 140.25 599.428 141.1 589.228 141.1C587.018 146.03 584.978 150.96 583.958 156.57C581.918 162.18 580.898 171.7 572.228 169.83ZM596.198 125.29C607.078 125.29 617.448 124.27 628.158 124.27C623.568 110.33 617.448 96.9 613.198 83.13C608.608 94.52 603.508 105.74 599.428 117.13C598.068 120.02 597.388 122.74 596.198 125.29ZM658.418 152.15L658.928 153.17L658.758 152.83C658.758 152.66 658.588 152.32 658.418 152.15ZM692.414 162.52C688.674 166.77 681.024 165.24 679.494 159.46C676.774 145.69 677.794 130.9 676.944 117.3C676.774 101.49 673.714 86.53 674.394 70.72C664.024 54.91 702.784 52.19 711.964 51.17C750.894 46.07 774.524 83.64 750.894 115.26C736.954 131.41 712.814 133.28 692.754 132.94C692.754 139.06 693.264 145.18 693.944 150.96C694.284 154.87 695.814 159.46 692.414 162.52ZM689.694 70.72C689.014 86.53 692.414 101.83 692.754 117.47C708.904 117.47 729.304 117.3 740.524 103.7C748.344 91.29 745.114 72.59 729.814 68C717.914 64.6 705.164 67.15 693.264 70.04C691.904 70.21 690.884 70.72 689.694 70.72Z" fill="white"/>
<path d="M102.867 179.01L98.0908 184.127L98.5981 184.601L99.1886 184.966L102.867 179.01ZM86.377 152.49L92.7293 149.549L92.454 148.955L92.0732 148.421L86.377 152.49ZM70.567 126.14L76.828 123.01L74.6706 118.695L69.8705 119.175L70.567 126.14ZM48.977 127.16V120.16H41.977V127.16H48.977ZM49.487 161.67H56.487V161.409L56.4676 161.149L49.487 161.67ZM46.937 175.95L52.1467 180.625L52.2425 180.519L52.3338 180.408L46.937 175.95ZM34.187 167.45L40.3635 170.744L41.2682 169.048L41.1796 167.127L34.187 167.45ZM33.677 134.81L40.6634 135.247L40.6686 135.163L40.6719 135.079L33.677 134.81ZM31.637 68.68H38.637V65.0529L35.6738 62.9612L31.637 68.68ZM39.117 53.38L38.8716 60.3757L38.9943 60.38H39.117V53.38ZM41.327 53.04L40.3624 46.1068L41.327 60.04V53.04ZM101.337 56.78L104.99 50.8088L104.779 50.6796L104.559 50.5657L101.337 56.78ZM120.037 101.49L126.367 104.479L126.718 103.734L126.888 102.929L120.037 101.49ZM86.377 123.08L83.7773 116.581L76.4837 119.498L80.2191 126.409L86.377 123.08ZM97.767 141.61L103.845 138.137L103.629 137.759L103.367 137.41L97.767 141.61ZM109.327 162.52L115.428 159.088L115.143 158.581L114.778 158.129L109.327 162.52ZM113.747 169.83L120.437 167.771L120.375 167.57L120.301 167.372L113.747 169.83ZM47.447 67.66L46.43 60.7343L40.447 61.6129V67.66H47.447ZM48.977 111.86L41.994 112.347L42.4484 118.86H48.977L48.977 111.86ZM105.587 96.05L110.109 101.394L112.441 99.4201L112.58 96.3679L105.587 96.05ZM107.643 173.893C101.189 167.869 97.1343 159.064 92.7293 149.549L80.0248 155.431C84.1198 164.276 89.2451 175.871 98.0908 184.127L107.643 173.893ZM92.0732 148.421C86.3477 140.406 81.264 131.882 76.828 123.01L64.306 129.27C69.05 138.758 74.5064 147.914 80.6809 156.559L92.0732 148.421ZM69.8705 119.175C63.3298 119.829 56.0841 120.16 48.977 120.16V134.16C56.4899 134.16 64.2043 133.811 71.2636 133.105L69.8705 119.175ZM41.977 127.16C41.977 138.269 41.6307 150.456 42.5064 162.191L56.4676 161.149C55.6434 150.104 55.977 138.831 55.977 127.16H41.977ZM42.487 161.67C42.487 164.871 42.6474 166.579 42.4551 168.59C42.2951 170.263 41.9358 171.013 41.5403 171.492L52.3338 180.408C55.1682 176.977 56.084 173.137 56.3915 169.923C56.6666 167.046 56.487 163.569 56.487 161.67H42.487ZM41.7273 171.275C41.566 171.454 41.472 171.497 41.4681 171.499C41.4608 171.503 41.4548 171.506 41.4262 171.508C41.3376 171.514 41.0584 171.484 40.7221 171.256C40.5692 171.153 40.4534 171.04 40.3768 170.941C40.3012 170.845 40.2831 170.789 40.2839 170.791C40.2876 170.802 40.297 170.846 40.2924 170.898C40.2875 170.953 40.2765 170.907 40.3635 170.744L28.0106 164.156C23.8948 171.873 27.6981 179.35 32.8795 182.854C38.0912 186.378 46.3552 187.079 52.1467 180.625L41.7273 171.275ZM41.1796 167.127C40.6609 155.889 40.0132 145.651 40.6634 135.247L26.6907 134.373C25.9809 145.729 26.6932 156.911 27.1945 167.773L41.1796 167.127ZM40.6719 135.079C41.1107 123.669 40.5817 112.372 39.9648 101.354C39.3428 90.2428 38.637 79.483 38.637 68.68H24.637C24.637 79.977 25.3763 91.2322 25.9867 102.136C26.6024 113.133 27.0933 123.851 26.6822 134.541L40.6719 135.079ZM35.6738 62.9612C34.5406 62.1613 34.5071 61.6971 34.5529 61.8701C34.6058 62.0704 34.5148 62.1787 34.5953 62.0354C34.8587 61.5664 36.2161 60.2825 38.8716 60.3757L39.3625 46.3843C32.3279 46.1375 25.6104 49.4436 22.3888 55.1796C20.7268 58.1388 20.0407 61.7533 21.0181 65.4492C21.9882 69.1179 24.3984 72.1387 27.6002 74.3988L35.6738 62.9612ZM39.117 60.38C40.4077 60.38 41.4302 60.1824 41.8992 60.0971C42.3652 60.0124 42.2777 60.04 42.177 60.04V46.04C40.8863 46.04 39.8639 46.2376 39.3948 46.3229C38.9289 46.4076 39.0163 46.38 39.117 46.38V60.38ZM42.177 46.04H41.327V60.04H42.177V46.04ZM42.2917 59.9732C62.3657 57.1803 82.0863 54.6832 98.1148 62.9943L104.559 50.5657C83.8677 39.8368 59.3884 43.4597 40.3624 46.1068L42.2917 59.9732ZM97.684 62.7512C109.49 69.9739 116.177 85.8112 113.186 100.051L126.888 102.929C131.037 83.1687 122.084 61.2661 104.99 50.8088L97.684 62.7512ZM113.707 98.501C111.758 102.628 107.872 105.926 102.237 108.898C96.4636 111.943 90.2463 113.993 83.7773 116.581L88.9768 129.579C94.4077 127.407 102.13 124.782 108.768 121.282C115.542 117.709 122.536 112.592 126.367 104.479L113.707 98.501ZM80.2191 126.409C83.6284 132.716 87.2385 139.239 92.167 145.81L103.367 137.41C99.1156 131.741 95.9257 126.024 92.535 119.751L80.2191 126.409ZM91.6893 145.083C93.5907 148.41 95.0347 151.666 96.9524 155.548C98.7702 159.228 100.913 163.234 103.876 166.911L114.778 158.129C112.811 155.686 111.214 152.807 109.504 149.347C107.894 146.089 106.023 141.95 103.845 138.137L91.6893 145.083ZM103.226 165.952C104.192 167.668 105.343 169.241 105.954 170.132C106.66 171.163 106.989 171.745 107.193 172.288L120.301 167.372C119.485 165.195 118.369 163.482 117.503 162.218C116.541 160.814 115.992 160.092 115.428 159.088L103.226 165.952ZM107.057 171.889C107.125 172.112 107.109 172.26 107.065 172.394C107.009 172.566 106.886 172.759 106.709 172.909C106.531 173.06 106.419 173.069 106.452 173.065C106.475 173.062 106.516 173.062 106.561 173.071C106.608 173.082 106.605 173.091 106.545 173.054L99.1886 184.966C105.088 188.609 111.612 187.111 115.77 183.581C119.886 180.086 122.38 174.084 120.437 167.771L107.057 171.889ZM40.447 67.66C40.447 82.7811 40.9626 97.5636 41.994 112.347L55.9601 111.373C54.9515 96.9164 54.447 82.4589 54.447 67.66H40.447ZM48.977 118.86C68.9941 118.86 92.6256 116.187 110.109 101.394L101.065 90.7063C87.6085 102.093 68.3999 104.86 48.977 104.86L48.977 118.86ZM112.58 96.3679C113.019 86.6971 110.82 78.7532 106.113 72.6406C101.453 66.5901 94.9273 63.1034 88.1285 61.1626C74.8538 57.3733 58.5895 58.9486 46.43 60.7343L48.4641 74.5857C60.6146 72.8014 74.1853 71.7417 84.2856 74.6249C89.1742 76.0204 92.7211 78.1967 95.0208 81.1828C97.2726 84.1068 98.9197 88.5729 98.5943 95.7321L112.58 96.3679ZM183.001 173.4L183.853 180.348L184.071 180.321L184.286 180.281L183.001 173.4ZM137.781 148.75L131.458 151.753L131.593 152.039L131.754 152.311L137.781 148.75ZM162.431 57.8L159.471 51.4567L159.217 51.5753L158.973 51.7138L162.431 57.8ZM188.951 53.72L184.242 58.8996L186.079 60.5697L188.558 60.709L188.951 53.72ZM220.401 73.1L214.11 76.1704L214.181 76.3163L214.259 76.4587L220.401 73.1ZM223.461 145.18L229.94 147.83L229.996 147.693L230.046 147.553L223.461 145.18ZM146.961 111.18L139.979 110.669L139.979 110.678L139.978 110.687L146.961 111.18ZM161.921 151.81L166.611 146.613L165.965 146.03L165.196 145.623L161.921 151.81ZM206.121 144.5L210.956 149.562L211.75 148.803L212.273 147.839L206.121 144.5ZM202.041 73.1L207.641 68.9L207.264 68.3977L206.804 67.9704L202.041 73.1ZM184.361 66.13L189.484 61.3601L187.093 58.7923L183.606 59.1709L184.361 66.13ZM182.149 166.452C167.566 168.24 151.613 158.399 143.807 145.189L131.754 152.311C141.628 169.021 162.395 182.98 183.853 180.348L182.149 166.452ZM144.104 145.747C137.647 132.15 136.381 115.346 140.255 99.9466C144.126 84.5626 152.938 71.2445 165.889 63.8862L158.973 51.7138C142.003 61.3555 131.266 78.2974 126.679 96.5309C122.095 114.749 123.465 134.92 131.458 151.753L144.104 145.747ZM165.391 64.1433C169.995 61.9948 173.673 59.8059 177.769 58.5752C181.604 57.423 183.213 57.9644 184.242 58.8996L193.66 48.5404C187.208 42.6756 179.383 43.4719 173.74 45.1673C168.359 46.7841 162.517 50.0351 159.471 51.4567L165.391 64.1433ZM188.558 60.709C195.635 61.1065 200.494 62.2689 204.228 64.4312C207.832 66.5186 211.068 69.938 214.11 76.1704L226.691 70.0295C222.763 61.9819 217.84 56.1364 211.244 52.3163C204.777 48.5711 197.397 47.1834 189.343 46.731L188.558 60.709ZM214.259 76.4587C224.958 96.023 224.715 121.048 216.875 142.807L230.046 147.553C238.867 123.072 239.643 93.697 226.542 69.7413L214.259 76.4587ZM216.982 142.53C214.639 148.256 209.609 153.598 202.92 157.948C196.281 162.267 188.557 165.241 181.715 166.519L184.286 180.281C192.914 178.669 202.361 175.013 210.554 169.684C218.697 164.387 226.162 157.064 229.94 147.83L216.982 142.53ZM139.978 110.687C139.444 118.258 139.525 127.417 141.897 135.924C144.299 144.542 149.222 153.007 158.646 157.997L165.196 145.623C160.17 142.963 157.103 138.338 155.382 132.165C153.631 125.883 153.458 118.552 153.943 111.673L139.978 110.687ZM157.231 157.007C166.32 165.209 177.104 166.22 186.731 163.729C196.097 161.306 204.679 155.558 210.956 149.562L201.286 139.438C196.173 144.322 189.624 148.519 183.223 150.176C177.083 151.765 171.461 150.991 166.611 146.613L157.231 157.007ZM212.273 147.839C225.365 123.713 224.211 90.9931 207.641 68.9L196.441 77.3C209.451 94.6469 210.677 121.427 199.968 141.161L212.273 147.839ZM206.804 67.9704C202.613 64.0788 197.009 63.3814 194.354 62.9128C190.786 62.2832 189.954 61.8649 189.484 61.3601L179.238 70.8999C183.357 75.3251 188.986 76.1818 191.921 76.6997C195.768 77.3786 196.709 77.7012 197.278 78.2295L206.804 67.9704ZM183.606 59.1709C157.05 62.0529 141.65 87.8431 139.979 110.669L153.942 111.691C155.332 92.6969 167.812 74.9671 185.116 73.0891L183.606 59.1709ZM238.868 169.83L236.838 176.529L237.112 176.612L237.393 176.673L238.868 169.83ZM237.168 146.03L230.907 142.9L230.481 143.751L230.299 144.686L237.168 146.03ZM237.338 145.69L231.336 142.089L231.198 142.319L231.077 142.56L237.338 145.69ZM238.528 143.14L245.169 145.354L233.579 138.19L238.528 143.14ZM238.358 143.31L232.097 140.18L243.308 148.26L238.358 143.31ZM238.528 142.97L244.789 146.1L245.133 145.413L245.319 144.668L238.528 142.97ZM238.698 142.29H245.698L231.907 140.592L238.698 142.29ZM238.698 142.63H231.698L245.051 145.571L238.698 142.63ZM273.888 58.99L269.055 53.9265L268.226 54.7182L267.692 55.733L273.888 58.99ZM289.698 66.81L282.917 68.5448L283.055 69.0851L283.277 69.5966L289.698 66.81ZM300.068 94.01L306.687 91.7298L306.616 91.5257L306.534 91.3264L300.068 94.01ZM325.738 154.02L319.637 157.452L332.602 152.647L325.738 154.02ZM325.568 153.17L331.888 150.16L318.704 154.543L325.568 153.17ZM328.798 163.71L322.128 161.588L321.992 162.016L321.911 162.458L328.798 163.71ZM319.618 169.49L321.192 162.669L321.176 162.666L321.16 162.662L319.618 169.49ZM310.098 157.25L303.804 160.312L303.93 160.571L304.076 160.819L310.098 157.25ZM300.578 138.72L306.873 135.658L304.698 131.187L299.76 131.768L300.578 138.72ZM285.958 139.74L286.314 146.731L286.354 146.729L286.395 146.726L285.958 139.74ZM255.868 141.1V134.1H251.335L249.481 138.237L255.868 141.1ZM250.598 156.57L257.177 158.962L257.379 158.405L257.485 157.822L250.598 156.57ZM262.838 125.29L256.495 122.33L251.847 132.29H262.838V125.29ZM294.798 124.27V131.27H304.473L301.447 122.081L294.798 124.27ZM279.838 83.13L286.527 81.0656L280.714 62.2302L273.346 80.5136L279.838 83.13ZM266.068 117.13L272.402 120.111L272.545 119.807L272.658 119.491L266.068 117.13ZM325.058 152.15L330.008 147.2L318.797 155.281L325.058 152.15ZM325.568 153.17L319.307 156.301L331.829 150.039L325.568 153.17ZM325.398 152.83H318.398V154.483L319.137 155.961L325.398 152.83ZM240.898 163.131C239.579 162.731 239.831 162.447 240.032 162.892C240.072 162.981 239.838 162.495 240.135 160.78C240.422 159.121 241.033 157.202 241.842 154.813C242.56 152.688 243.544 149.9 244.038 147.374L230.299 144.686C230.028 146.07 229.439 147.787 228.58 150.327C227.81 152.601 226.839 155.507 226.339 158.395C225.85 161.227 225.626 165.013 227.276 168.661C229.087 172.666 232.548 175.229 236.838 176.529L240.898 163.131ZM243.429 149.16L243.599 148.82L231.077 142.56L230.907 142.9L243.429 149.16ZM243.341 149.291C244.056 148.099 244.636 146.954 245.169 145.354L231.888 140.926C231.741 141.367 231.64 141.581 231.336 142.089L243.341 149.291ZM233.579 138.19L233.409 138.36L243.308 148.26L243.478 148.09L233.579 138.19ZM244.619 146.44L244.789 146.1L232.267 139.84L232.097 140.18L244.619 146.44ZM245.319 144.668L245.489 143.988L231.907 140.592L231.737 141.272L245.319 144.668ZM231.698 142.29V142.63H245.698V142.29H231.698ZM245.051 145.571C251.547 131.538 256.963 116.98 262.378 102.948C267.835 88.8062 273.32 75.1153 280.085 62.2469L267.692 55.733C260.516 69.3847 254.782 83.7438 249.316 97.9074C243.809 112.18 238.599 126.182 232.346 139.689L245.051 145.571ZM278.722 64.0535C279.786 63.0379 280.211 63.1101 279.964 63.1353C279.674 63.165 279.602 63.021 279.904 63.2303C280.275 63.488 280.869 64.0739 281.497 65.1159C282.109 66.1298 282.608 67.3392 282.917 68.5448L296.48 65.0752C295.3 60.4635 292.536 54.959 287.891 51.7322C285.408 50.0078 282.202 48.8331 278.539 49.2081C274.918 49.5787 271.731 51.372 269.055 53.9265L278.722 64.0535ZM283.277 69.5966C285.132 73.8719 286.722 78.226 288.361 82.7799C289.978 87.2743 291.655 91.9995 293.603 96.6936L306.534 91.3264C304.742 87.0105 303.189 82.6407 301.534 78.0401C299.9 73.499 298.174 68.7581 296.12 64.0233L283.277 69.5966ZM293.45 96.2902C300.462 116.642 308.615 137.856 319.637 157.452L331.839 150.588C321.442 132.104 313.615 111.838 306.687 91.7298L293.45 96.2902ZM332.602 152.647L332.432 151.797L318.704 154.543L318.874 155.393L332.602 152.647ZM319.248 156.18C319.784 157.304 320.395 158.392 320.826 159.174C321.307 160.047 321.618 160.636 321.841 161.153C322.258 162.117 321.999 161.993 322.128 161.588L335.469 165.832C336.788 161.687 335.764 158.078 334.693 155.6C334.173 154.396 333.559 153.274 333.089 152.42C332.569 151.475 332.203 150.821 331.888 150.16L319.248 156.18ZM321.911 162.458C321.932 162.346 321.96 162.325 321.928 162.372C321.895 162.42 321.829 162.494 321.728 162.561C321.631 162.625 321.535 162.662 321.456 162.678C321.387 162.691 321.306 162.695 321.192 162.669L318.044 176.311C326.435 178.247 334.305 172.554 335.685 164.962L321.911 162.458ZM321.16 162.662C321.146 162.659 321.143 162.657 321.146 162.658C321.149 162.659 321.15 162.66 321.148 162.659C321.147 162.658 321.099 162.633 321.005 162.547C320.786 162.348 320.428 161.93 319.929 161.084C319.42 160.223 318.939 159.23 318.305 157.907C317.725 156.695 316.986 155.142 316.12 153.681L304.076 160.819C304.571 161.653 305.043 162.628 305.679 163.956C306.262 165.172 307.003 166.729 307.876 168.206C309.602 171.127 312.615 175.085 318.077 176.318L321.16 162.662ZM316.393 154.188C314.804 150.922 313.136 147.762 311.529 144.718C309.906 141.642 308.344 138.682 306.873 135.658L294.284 141.782C295.872 145.048 297.541 148.208 299.148 151.252C300.771 154.328 302.332 157.288 303.804 160.312L316.393 154.188ZM299.76 131.768C294.228 132.419 291.332 132.391 285.522 132.754L286.395 146.726C291.465 146.41 295.369 146.381 301.396 145.672L299.76 131.768ZM285.603 132.749C275.249 133.275 265.835 134.1 255.868 134.1V148.1C266.302 148.1 276.607 147.225 286.314 146.731L285.603 132.749ZM249.481 138.237C247.237 143.242 244.892 148.823 243.711 155.318L257.485 157.822C258.345 153.097 260.08 148.818 262.256 143.963L249.481 138.237ZM244.02 154.178C243.445 155.758 242.838 157.924 242.445 159.178C241.956 160.735 241.54 161.821 241.111 162.586C240.695 163.329 240.53 163.291 240.782 163.157C241.161 162.955 241.216 163.175 240.344 162.987L237.393 176.673C240.856 177.42 244.289 177.151 247.362 175.514C250.307 173.946 252.15 171.528 253.328 169.424C254.493 167.342 255.256 165.112 255.804 163.366C256.447 161.314 256.732 160.187 257.177 158.962L244.02 154.178ZM262.838 132.29C268.474 132.29 273.952 132.026 279.219 131.772C284.538 131.516 289.64 131.27 294.798 131.27V117.27C289.247 117.27 283.809 117.534 278.545 117.788C273.23 118.044 268.083 118.29 262.838 118.29V132.29ZM301.447 122.081C299.085 114.906 296.334 107.878 293.721 101.114C291.081 94.2811 288.572 87.6899 286.527 81.0656L273.15 85.1944C275.355 92.3401 278.031 99.3489 280.661 106.159C283.318 113.037 285.922 119.694 288.15 126.459L301.447 122.081ZM273.346 80.5136C268.923 91.489 263.608 103.241 259.478 114.769L272.658 119.491C276.689 108.239 281.574 97.551 286.331 85.7464L273.346 80.5136ZM259.735 114.149C258.897 115.93 258.287 117.62 257.802 118.97C257.285 120.409 256.928 121.402 256.495 122.33L269.182 128.25C269.939 126.628 270.517 124.986 270.977 123.705C271.47 122.335 271.88 121.22 272.402 120.111L259.735 114.149ZM318.797 155.281L319.307 156.301L331.829 150.039L331.319 149.019L318.797 155.281ZM331.829 150.039L331.659 149.699L319.137 155.961L319.307 156.301L331.829 150.039ZM332.398 152.83C332.398 151.046 331.723 149.7 331.553 149.36C331.272 148.798 330.786 147.978 330.008 147.2L320.109 157.1C319.501 156.492 319.185 155.927 319.031 155.62C318.933 155.424 318.81 155.149 318.699 154.798C318.614 154.532 318.398 153.808 318.398 152.83H332.398ZM387.954 170.68L389.707 177.457L389.853 177.419L389.998 177.375L387.954 170.68ZM341.714 160.82L347.717 164.421L348.725 162.741L348.714 160.782L341.714 160.82ZM342.394 65.28L349.384 65.6518L349.423 64.9327L349.314 64.2209L342.394 65.28ZM386.254 55.76L387.595 48.8896L387.588 48.8882L387.581 48.8868L386.254 55.76ZM423.314 136.85L416.718 134.507L416.677 134.624L416.639 134.742L423.314 136.85ZM357.184 159.63L350.185 159.709L350.265 166.845L357.399 166.627L357.184 159.63ZM403.934 141.1L409.604 145.206L409.841 144.878L410.039 144.526L403.934 141.1ZM399.514 77.35L395.512 83.0928L395.542 83.1139L395.573 83.1347L399.514 77.35ZM376.564 69.7L377.297 62.7385L377.125 62.7204L376.953 62.7108L376.564 69.7ZM357.694 69.36L357.5 62.3627L350.958 62.5444L350.7 69.0834L357.694 69.36ZM386.202 163.903C381.445 165.133 367.104 168.234 355.924 168.313C353.177 168.332 350.833 168.165 348.986 167.818C347.049 167.454 346.194 166.99 345.956 166.81C345.889 166.76 346.015 166.84 346.153 167.09C346.3 167.357 346.335 167.592 346.338 167.67C346.339 167.687 346.335 166.724 347.717 164.421L335.712 157.219C333.651 160.653 332.202 164.381 332.348 168.205C332.51 172.437 334.581 175.769 337.531 177.992C340.213 180.012 343.46 181.025 346.402 181.577C349.434 182.147 352.745 182.335 356.023 182.312C368.939 182.221 384.603 178.777 389.707 177.457L386.202 163.903ZM348.714 160.782C348.543 129.132 347.699 97.3415 349.384 65.6518L335.404 64.9082C333.69 97.1384 334.546 129.608 334.714 160.858L348.714 160.782ZM349.314 64.2209C349.248 63.789 349.268 63.5448 349.283 63.444C349.297 63.3532 349.313 63.33 349.313 63.3296C349.316 63.3233 349.351 63.2574 349.479 63.1365C349.613 63.0092 349.85 62.822 350.24 62.6024C352.034 61.5936 355.36 60.8117 360.103 60.5615C369.327 60.075 380.273 61.7349 384.928 62.6332L387.581 48.8868C382.546 47.9151 370.287 46.005 359.366 46.581C354.036 46.8621 348.055 47.7695 343.378 50.3998C340.93 51.7762 338.55 53.7875 336.986 56.6924C335.386 59.6645 334.961 62.9785 335.475 66.3391L349.314 64.2209ZM384.914 62.6304C403.722 66.3004 414.083 76.0201 418.778 88.2341C423.638 100.878 422.83 117.296 416.718 134.507L429.911 139.193C436.718 120.024 438.291 99.9771 431.846 83.2109C425.236 66.0149 410.607 53.3796 387.595 48.8896L384.914 62.6304ZM416.639 134.742C412.312 148.446 400.117 159.648 385.911 163.985L389.998 177.375C408.092 171.852 424.117 157.554 429.989 138.958L416.639 134.742ZM357.399 166.627C374.171 166.113 396.771 162.927 409.604 145.206L398.265 136.994C389.678 148.853 373.518 152.127 356.97 152.633L357.399 166.627ZM410.039 144.526C417.117 131.912 421.309 117.988 420.897 105.05C420.479 91.9263 415.259 79.6081 403.456 71.5653L395.573 83.1347C402.98 88.1819 406.599 95.9237 406.904 105.495C407.215 115.252 404.011 126.658 397.83 137.674L410.039 144.526ZM403.517 71.6072C396.714 66.8656 387.858 63.8501 377.297 62.7385L375.832 76.6615C384.651 77.5899 391.095 80.0144 395.512 83.0928L403.517 71.6072ZM376.953 62.7108C370.7 62.3634 363.867 62.1858 357.5 62.3627L357.889 76.3573C363.761 76.1942 370.189 76.3566 376.176 76.6892L376.953 62.7108ZM350.7 69.0834C349.502 99.3808 349.845 129.649 350.185 159.709L364.184 159.551C363.844 129.431 363.507 99.5192 364.689 69.6366L350.7 69.0834ZM448.12 178.84V185.84H448.447L448.773 185.809L448.12 178.84ZM439.96 145.86L432.969 145.497L432.946 145.937L432.979 146.377L439.96 145.86ZM441.15 106.76L448.144 107.036L448.146 106.988L448.147 106.939L441.15 106.76ZM442.68 58.99L437.167 54.6758L436.811 55.1308L436.534 55.638L442.68 58.99ZM455.43 60.52L461.871 57.7791L461.767 57.5341L461.644 57.2978L455.43 60.52ZM480.08 105.4L486.944 104.027L486.769 103.155L486.383 102.355L480.08 105.4ZM480.25 106.25L473.989 109.38L487.114 104.877L480.25 106.25ZM480.08 105.91L486.341 102.78L473.58 108.51L480.08 105.91ZM480.42 106.76L473.92 109.36L473.997 109.55L474.084 109.736L480.42 106.76ZM496.06 140.42L489.521 142.92L497.114 162.778L502.804 142.294L496.06 140.42ZM498.78 131.58L492.35 128.813L492.089 129.418L491.946 130.061L498.78 131.58ZM540.77 54.4L546.93 57.7235L547.058 57.4878L547.166 57.243L540.77 54.4ZM556.07 58.99L549.086 58.5084L549.08 58.6009L549.076 58.6936L556.07 58.99ZM555.05 119.34L562.05 119.34V119.105L562.034 118.87L555.05 119.34ZM555.22 151.13L562.188 151.794L562.204 151.629L562.212 151.463L555.22 151.13ZM553.69 172.21L559.067 176.691L559.322 176.386L559.54 176.054L553.69 172.21ZM539.75 167.79L532.787 167.07L532.721 167.705L532.771 168.341L539.75 167.79ZM539.58 152.66L532.58 152.605L532.579 152.749L532.584 152.893L539.58 152.66ZM539.24 87.89L546.232 88.223L533.144 84.448L539.24 87.89ZM515.61 131.58L509.32 128.507L509.283 128.583L509.248 128.66L515.61 131.58ZM505.24 163.88L511.587 166.832L511.655 166.685L511.717 166.535L505.24 163.88ZM489.94 161.67L496.682 159.788L496.454 158.97L496.037 158.231L489.94 161.67ZM479.57 141.27L486.13 138.829L486.041 138.59L485.935 138.358L479.57 141.27ZM455.94 93.5L462.046 90.0777L448.957 93.9948L455.94 93.5ZM454.92 158.27L461.849 159.26L461.896 158.932L461.912 158.6L454.92 158.27ZM448.12 171.84C447.433 171.84 447.283 171.702 447.369 171.752C447.454 171.801 447.383 171.809 447.208 171.504C446.723 170.656 446.234 168.811 446.127 165.562C446.025 162.468 446.28 159.02 446.563 155.439C446.822 152.175 447.16 148.307 446.941 145.343L432.979 146.377C433.099 148.003 432.906 150.553 432.607 154.333C432.333 157.796 432.003 162.019 432.135 166.023C432.262 169.872 432.824 174.551 435.054 178.452C436.237 180.521 437.939 182.46 440.318 183.847C442.699 185.235 445.364 185.84 448.12 185.84V171.84ZM446.95 146.223C447.623 133.283 447.657 119.38 448.144 107.036L434.155 106.484C433.622 119.98 433.657 132.257 432.969 145.497L446.95 146.223ZM448.147 106.939C448.243 103.228 447.969 98.9621 447.652 94.7529C447.325 90.4183 446.946 86.0887 446.739 81.7755C446.534 77.4777 446.518 73.4963 446.871 70.0313C447.229 66.5049 447.927 63.9888 448.825 62.342L436.534 55.638C434.373 59.6012 433.391 64.2038 432.943 68.6143C432.488 73.0862 432.536 77.8598 432.755 82.4445C432.974 87.0138 433.381 91.6942 433.691 95.8065C434.011 100.044 434.227 103.662 434.152 106.581L448.147 106.939ZM448.192 63.3041C448.025 63.5182 447.872 63.565 447.915 63.55C447.98 63.5277 448.182 63.4828 448.485 63.5187C448.785 63.5544 449.026 63.6511 449.167 63.739C449.294 63.8177 449.265 63.838 449.215 63.7422L461.644 57.2978C459.16 52.5063 454.409 50.1234 450.134 49.6162C445.889 49.1125 440.588 50.3049 437.167 54.6758L448.192 63.3041ZM448.989 63.2609C452.597 71.7393 457.158 79.5418 461.561 86.8802C466.038 94.341 470.294 101.237 473.777 108.445L486.383 102.355C482.556 94.4335 477.887 86.879 473.566 79.6773C469.172 72.3532 465.063 65.2806 461.871 57.7791L448.989 63.2609ZM473.216 106.773L473.386 107.623L487.114 104.877L486.944 104.027L473.216 106.773ZM486.511 103.119L486.341 102.78L473.819 109.04L473.989 109.38L486.511 103.119ZM473.58 108.51L473.92 109.36L486.919 104.16L486.579 103.31L473.58 108.51ZM474.084 109.736C479.606 121.492 485.218 131.665 489.521 142.92L502.598 137.92C498.062 126.055 491.774 114.468 486.756 103.784L474.084 109.736ZM502.804 142.294C503.163 141.002 503.586 139.806 504.114 138.243C504.614 136.767 505.186 135.02 505.613 133.099L491.946 130.061C491.694 131.2 491.331 132.343 490.853 133.757C490.404 135.084 489.806 136.778 489.315 138.546L502.804 142.294ZM505.21 134.347C516.638 107.794 532.516 84.444 546.93 57.7235L534.609 51.0765C521.144 76.036 504.042 101.646 492.35 128.813L505.21 134.347ZM547.166 57.243C547.268 57.0142 547.346 56.9804 547.424 56.9475C547.581 56.8808 547.888 56.8287 548.252 56.9197C548.6 57.0067 548.792 57.17 548.879 57.2832C548.921 57.3385 548.975 57.4266 549.019 57.5812C549.064 57.7375 549.119 58.032 549.086 58.5084L563.053 59.4716C564.267 41.8768 540.985 36.681 534.373 51.557L547.166 57.243ZM549.076 58.6936C548.24 78.4316 546.672 99.0789 548.066 119.81L562.034 118.87C560.708 99.141 562.2 79.6683 563.063 59.2863L549.076 58.6936ZM548.05 119.34C548.05 130.728 548.731 140.229 548.228 150.797L562.212 151.463C562.729 140.611 562.05 129.372 562.05 119.34L548.05 119.34ZM548.251 150.466C548.026 152.829 548.122 155.12 548.261 157.092C548.421 159.363 548.58 160.657 548.676 162.484C548.851 165.816 548.502 167.358 547.84 168.366L559.54 176.054C562.787 171.112 562.864 165.684 562.656 161.748C562.561 159.942 562.326 157.527 562.226 156.107C562.105 154.386 562.073 153.001 562.188 151.794L548.251 150.466ZM548.312 167.729C548.311 167.73 548.335 167.732 548.256 167.75C548.124 167.779 547.838 167.793 547.472 167.675C547.105 167.556 546.866 167.371 546.761 167.254C546.716 167.204 546.709 167.182 546.716 167.196C546.718 167.203 546.722 167.212 546.725 167.224C546.728 167.235 546.728 167.242 546.728 167.239L532.771 168.341C533.302 175.056 538.267 179.411 543.163 180.995C548.094 182.591 554.695 181.938 559.067 176.691L548.312 167.729ZM546.713 168.51C547.288 162.946 546.724 156.884 546.576 152.427L532.584 152.893C532.775 158.636 533.231 162.774 532.787 167.07L546.713 168.51ZM546.58 152.715C546.666 141.784 546.321 130.783 546.089 120.06C545.856 109.267 545.734 98.6762 546.232 88.223L532.248 87.557C531.725 98.5238 531.858 109.523 532.093 120.362C532.328 131.272 532.664 141.946 532.58 152.605L546.58 152.715ZM533.144 84.448C525.019 98.8373 516.742 113.319 509.32 128.507L521.899 134.653C529.098 119.921 537.141 105.843 545.335 91.332L533.144 84.448ZM509.248 128.66C506.591 134.449 504.931 140.463 503.471 145.921C501.964 151.557 500.68 156.546 498.763 161.225L511.717 166.535C514.049 160.844 515.57 154.868 516.996 149.539C518.469 144.032 519.869 139.081 521.972 134.5L509.248 128.66ZM498.893 160.928C498.674 161.398 498.523 161.409 498.608 161.367C498.642 161.351 498.555 161.409 498.291 161.363C497.681 161.256 496.945 160.732 496.682 159.788L483.197 163.552C484.974 169.918 490.188 174.154 495.869 175.152C501.864 176.205 508.438 173.603 511.587 166.832L498.893 160.928ZM496.037 158.231C492.146 151.334 488.607 145.484 486.13 138.829L473.009 143.711C475.973 151.676 480.254 158.746 483.843 165.109L496.037 158.231ZM485.935 138.358C478.62 122.365 470.868 105.818 462.046 90.0777L449.833 96.9223C458.352 112.121 465.9 128.215 473.204 144.182L485.935 138.358ZM448.957 93.9948C450.45 115.06 448.959 136.104 447.928 157.94L461.912 158.6C462.92 137.256 464.489 115.12 462.922 93.0052L448.957 93.9948ZM447.99 157.28C447.61 159.942 447.821 162.812 447.977 164.879C448.157 167.272 448.304 168.983 448.227 170.49C448.148 172.011 447.867 172.215 448.036 171.99C448.425 171.474 448.725 171.753 447.466 171.871L448.773 185.809C452.955 185.417 456.697 183.763 459.221 180.41C461.527 177.347 462.074 173.812 462.208 171.21C462.343 168.595 462.086 165.801 461.937 163.826C461.764 161.527 461.72 160.168 461.849 159.26L447.99 157.28ZM572.228 169.83L570.198 176.529L570.472 176.612L570.752 176.673L572.228 169.83ZM570.528 146.03L564.267 142.9L563.841 143.751L563.658 144.686L570.528 146.03ZM570.698 145.69L564.695 142.089L564.557 142.319L564.437 142.56L570.698 145.69ZM571.888 143.14L578.529 145.354L566.938 138.19L571.888 143.14ZM571.718 143.31L565.457 140.18L576.667 148.26L571.718 143.31ZM571.888 142.97L578.149 146.1L578.492 145.413L578.679 144.668L571.888 142.97ZM572.058 142.29H579.058L565.267 140.592L572.058 142.29ZM572.058 142.63H565.058L578.41 145.571L572.058 142.63ZM607.248 58.99L602.414 53.9265L601.585 54.7182L601.052 55.733L607.248 58.99ZM623.058 66.81L616.276 68.5448L616.414 69.0851L616.636 69.5966L623.058 66.81ZM633.428 94.01L640.046 91.7298L639.976 91.5257L639.893 91.3264L633.428 94.01ZM659.098 154.02L652.997 157.452L665.962 152.647L659.098 154.02ZM658.928 153.17L665.248 150.16L652.064 154.543L658.928 153.17ZM662.158 163.71L655.487 161.588L655.351 162.016L655.271 162.458L662.158 163.71ZM652.978 169.49L654.552 162.669L654.536 162.666L654.52 162.662L652.978 169.49ZM643.458 157.25L637.163 160.312L637.289 160.571L637.436 160.819L643.458 157.25ZM633.938 138.72L640.232 135.658L638.057 131.187L633.12 131.768L633.938 138.72ZM619.318 139.74L619.673 146.731L619.714 146.729L619.754 146.726L619.318 139.74ZM589.228 141.1V134.1H584.695L582.84 138.237L589.228 141.1ZM583.958 156.57L590.536 158.962L590.739 158.405L590.845 157.822L583.958 156.57ZM596.198 125.29L589.854 122.33L585.206 132.29H596.198V125.29ZM628.158 124.27V131.27H637.832L634.807 122.081L628.158 124.27ZM613.198 83.13L619.886 81.0656L614.073 62.2302L606.705 80.5136L613.198 83.13ZM599.428 117.13L605.761 120.111L605.904 119.807L606.018 119.491L599.428 117.13ZM658.418 152.15L663.368 147.2L652.157 155.281L658.418 152.15ZM658.928 153.17L652.667 156.301L665.189 150.039L658.928 153.17ZM658.758 152.83H651.758V154.483L652.497 155.961L658.758 152.83ZM574.258 163.131C572.938 162.731 573.19 162.447 573.392 162.892C573.432 162.981 573.198 162.495 573.494 160.78C573.781 159.121 574.393 157.202 575.201 154.813C575.92 152.688 576.903 149.9 577.397 147.374L563.658 144.686C563.387 146.07 562.798 147.787 561.939 150.327C561.17 152.601 560.198 155.507 559.699 158.395C559.209 161.227 558.985 165.013 560.635 168.661C562.446 172.666 565.907 175.229 570.198 176.529L574.258 163.131ZM576.789 149.16L576.959 148.82L564.437 142.56L564.267 142.9L576.789 149.16ZM576.7 149.291C577.416 148.099 577.995 146.954 578.529 145.354L565.247 140.926C565.1 141.367 565 141.581 564.695 142.089L576.7 149.291ZM566.938 138.19L566.768 138.36L576.667 148.26L576.837 148.09L566.938 138.19ZM577.979 146.44L578.149 146.1L565.627 139.84L565.457 140.18L577.979 146.44ZM578.679 144.668L578.849 143.988L565.267 140.592L565.097 141.272L578.679 144.668ZM565.058 142.29V142.63H579.058V142.29H565.058ZM578.41 145.571C584.907 131.538 590.322 116.98 595.737 102.948C601.194 88.8062 606.68 75.1153 613.444 62.2469L601.052 55.733C593.876 69.3847 588.141 83.7438 582.676 97.9074C577.168 112.18 571.959 126.182 565.705 139.689L578.41 145.571ZM612.081 64.0535C613.145 63.0379 613.57 63.1101 613.324 63.1353C613.034 63.165 612.962 63.021 613.263 63.2303C613.634 63.488 614.228 64.0739 614.857 65.1159C615.468 66.1298 615.968 67.3392 616.276 68.5448L629.839 65.0752C628.66 60.4635 625.895 54.959 621.25 51.7322C618.768 50.0078 615.561 48.8331 611.898 49.2081C608.278 49.5787 605.091 51.372 602.414 53.9265L612.081 64.0535ZM616.636 69.5966C618.492 73.8719 620.081 78.226 621.72 82.7799C623.337 87.2743 625.014 91.9995 626.963 96.6936L639.893 91.3264C638.101 87.0105 636.548 82.6407 634.893 78.0401C633.259 73.499 631.534 68.7581 629.479 64.0233L616.636 69.5966ZM626.81 96.2902C633.822 116.642 641.974 137.856 652.997 157.452L665.199 150.588C654.802 132.104 646.974 111.838 640.046 91.7298L626.81 96.2902ZM665.962 152.647L665.792 151.797L652.064 154.543L652.234 155.393L665.962 152.647ZM652.608 156.18C653.143 157.304 653.755 158.392 654.185 159.174C654.666 160.047 654.977 160.636 655.201 161.153C655.617 162.117 655.358 161.993 655.487 161.588L668.828 165.832C670.147 161.687 669.123 158.078 668.052 155.6C667.532 154.396 666.919 153.274 666.448 152.42C665.928 151.475 665.562 150.821 665.248 150.16L652.608 156.18ZM655.271 162.458C655.291 162.346 655.32 162.325 655.288 162.372C655.255 162.42 655.188 162.494 655.087 162.561C654.99 162.625 654.895 162.662 654.815 162.678C654.746 162.691 654.665 162.695 654.552 162.669L651.404 176.311C659.794 178.247 667.665 172.554 669.045 164.962L655.271 162.458ZM654.52 162.662C654.506 162.659 654.502 162.657 654.505 162.658C654.508 162.659 654.51 162.66 654.508 162.659C654.506 162.658 654.459 162.633 654.364 162.547C654.146 162.348 653.788 161.93 653.288 161.084C652.779 160.223 652.299 159.23 651.665 157.907C651.084 156.695 650.346 155.142 649.48 153.681L637.436 160.819C637.93 161.653 638.403 162.628 639.039 163.956C639.621 165.172 640.362 166.729 641.235 168.206C642.961 171.127 645.975 175.085 651.436 176.318L654.52 162.662ZM649.752 154.188C648.164 150.922 646.495 147.762 644.888 144.718C643.265 141.642 641.704 138.682 640.232 135.658L627.643 141.782C629.232 145.048 630.901 148.208 632.507 151.252C634.131 154.328 635.692 157.288 637.163 160.312L649.752 154.188ZM633.12 131.768C627.588 132.419 624.691 132.391 618.881 132.754L619.754 146.726C624.824 146.41 628.728 146.381 634.756 145.672L633.12 131.768ZM618.962 132.749C608.609 133.275 599.194 134.1 589.228 134.1V148.1C599.661 148.1 609.967 147.225 619.673 146.731L618.962 132.749ZM582.84 138.237C580.596 143.242 578.252 148.823 577.071 155.318L590.845 157.822C591.704 153.097 593.439 148.818 595.615 143.963L582.84 138.237ZM577.379 154.178C576.805 155.758 576.197 157.924 575.804 159.178C575.316 160.735 574.899 161.821 574.471 162.586C574.055 163.329 573.889 163.291 574.141 163.157C574.521 162.955 574.575 163.175 573.704 162.987L570.752 176.673C574.215 177.42 577.648 177.151 580.722 175.514C583.667 173.946 585.509 171.528 586.687 169.424C587.853 167.342 588.615 165.112 589.163 163.366C589.806 161.314 590.091 160.187 590.536 158.962L577.379 154.178ZM596.198 132.29C601.833 132.29 607.311 132.026 612.578 131.772C617.897 131.516 622.999 131.27 628.158 131.27V117.27C622.606 117.27 617.168 117.534 611.905 117.788C606.59 118.044 601.443 118.29 596.198 118.29V132.29ZM634.807 122.081C632.444 114.906 629.693 107.878 627.08 101.114C624.44 94.2811 621.931 87.6899 619.886 81.0656L606.509 85.1944C608.715 92.3401 611.39 99.3489 614.021 106.159C616.677 113.037 619.281 119.694 621.509 126.459L634.807 122.081ZM606.705 80.5136C602.282 91.489 596.967 103.241 592.838 114.769L606.018 119.491C610.048 108.239 614.933 97.551 619.69 85.7464L606.705 80.5136ZM593.094 114.149C592.256 115.93 591.647 117.62 591.161 118.97C590.645 120.409 590.287 121.402 589.854 122.33L602.541 128.25C603.298 126.628 603.876 124.986 604.336 123.705C604.829 122.335 605.24 121.22 605.761 120.111L593.094 114.149ZM652.157 155.281L652.667 156.301L665.189 150.039L664.679 149.019L652.157 155.281ZM665.189 150.039L665.019 149.699L652.497 155.961L652.667 156.301L665.189 150.039ZM665.758 152.83C665.758 151.046 665.083 149.7 664.912 149.36C664.632 148.798 664.145 147.978 663.368 147.2L653.468 157.1C652.86 156.492 652.544 155.927 652.391 155.62C652.292 155.424 652.17 155.149 652.058 154.798C651.973 154.532 651.758 153.808 651.758 152.83H665.758ZM692.414 162.52L687.731 157.317L687.428 157.59L687.159 157.896L692.414 162.52ZM679.494 159.46L672.626 160.816L672.67 161.035L672.727 161.251L679.494 159.46ZM676.944 117.3L669.944 117.375L669.946 117.556L669.957 117.737L676.944 117.3ZM674.394 70.72L681.387 71.0208L681.484 68.767L680.247 66.8808L674.394 70.72ZM711.964 51.17L712.737 58.1272L712.805 58.1196L712.873 58.1107L711.964 51.17ZM750.894 115.26L756.193 119.834L756.354 119.648L756.501 119.45L750.894 115.26ZM692.754 132.94L692.872 125.941L685.754 125.82V132.94H692.754ZM693.944 150.96L700.917 150.354L700.908 150.248L700.896 150.142L693.944 150.96ZM689.694 70.72V63.72H682.988L682.7 70.4192L689.694 70.72ZM692.754 117.47L685.755 117.622L685.904 124.47H692.754V117.47ZM740.524 103.7L745.923 108.155L746.208 107.81L746.446 107.432L740.524 103.7ZM729.814 68L731.825 61.2952L731.781 61.282L731.737 61.2693L729.814 68ZM693.264 70.04L694.132 76.9859L694.528 76.9364L694.916 76.8423L693.264 70.04ZM687.159 157.896C687.155 157.899 687.155 157.9 687.156 157.899C687.158 157.897 687.159 157.897 687.158 157.897C687.157 157.898 687.14 157.908 687.1 157.92C687.007 157.946 686.843 157.962 686.649 157.919C686.459 157.877 686.348 157.801 686.309 157.766C686.293 157.752 686.289 157.744 686.288 157.743C686.287 157.741 686.284 157.736 686.28 157.727C686.276 157.717 686.269 157.699 686.261 157.669L672.727 161.251C675.75 172.671 690.387 175.42 697.669 167.144L687.159 157.896ZM686.361 158.104C685.117 151.807 684.703 145.139 684.515 138.128C684.333 131.341 684.364 123.812 683.93 116.863L669.957 117.737C670.373 124.388 670.32 131.054 670.52 138.504C670.714 145.732 671.15 153.343 672.626 160.816L686.361 158.104ZM683.943 117.225C683.855 108.967 683.009 100.925 682.321 93.3745C681.622 85.7033 681.069 78.4173 681.387 71.0208L667.4 70.4192C667.038 78.8327 667.676 86.9317 668.379 94.6455C669.093 102.48 669.863 109.823 669.944 117.375L683.943 117.225ZM680.247 66.8808C679.508 65.7538 679.661 65.4429 679.644 65.7579C679.623 66.1461 679.424 66.2284 679.725 65.9052C680.667 64.8921 683.217 63.4581 687.808 62.1186C696.601 59.553 707.757 58.6805 712.737 58.1272L711.191 44.2128C706.991 44.6795 694.176 45.677 683.887 48.6789C678.937 50.1231 673.168 52.3973 669.472 56.3726C667.453 58.5437 665.856 61.4402 665.664 65.0073C665.477 68.5011 666.687 71.7337 668.541 74.5592L680.247 66.8808ZM712.873 58.1107C729.839 55.8881 742.673 62.9513 748.927 73.1137C755.137 83.2045 755.508 97.3926 745.286 111.07L756.501 119.45C769.91 101.507 770.281 81.1005 760.85 65.7763C751.464 50.5237 733.019 41.3519 711.055 44.2293L712.873 58.1107ZM745.595 110.686C739.894 117.29 731.894 121.241 722.501 123.473C713.071 125.714 702.713 126.108 692.872 125.941L692.635 139.939C702.855 140.112 714.597 139.741 725.737 137.094C736.913 134.439 747.953 129.38 756.193 119.834L745.595 110.686ZM685.754 132.94C685.754 139.432 686.294 145.846 686.992 151.778L700.896 150.142C700.234 144.514 699.754 138.688 699.754 132.94H685.754ZM686.97 151.566C687.074 152.762 687.279 154.099 687.389 154.918C687.52 155.892 687.581 156.542 687.581 157.059C687.581 157.553 687.52 157.682 687.543 157.617C687.558 157.576 687.588 157.508 687.638 157.433C687.662 157.397 687.684 157.369 687.703 157.347C687.722 157.325 687.733 157.315 687.731 157.317L697.096 167.723C700.798 164.392 701.581 160.223 701.581 157.059C701.581 155.557 701.409 154.135 701.264 153.053C701.098 151.816 700.984 151.113 700.917 150.354L686.97 151.566ZM682.7 70.4192C682.336 78.8789 683.068 87.0982 683.879 94.8836C684.704 102.81 685.593 110.168 685.755 117.622L699.752 117.318C699.574 109.132 698.593 101.02 697.804 93.4339C696.999 85.7068 696.371 78.3711 696.687 71.0208L682.7 70.4192ZM692.754 124.47C700.736 124.47 710.568 124.449 719.89 122.543C729.285 120.622 738.92 116.643 745.923 108.155L735.124 99.2453C730.907 104.357 724.733 107.263 717.085 108.827C709.364 110.406 700.921 110.47 692.754 110.47V124.47ZM746.446 107.432C751.386 99.593 752.838 89.8365 750.62 81.1799C748.357 72.3498 742.15 64.3926 731.825 61.2952L727.802 74.7048C732.778 76.1974 735.836 79.8852 737.058 84.6551C738.325 89.5985 737.482 95.397 734.602 99.9682L746.446 107.432ZM731.737 61.2693C717.85 57.3016 703.407 60.3731 691.612 63.2377L694.916 76.8423C706.92 73.9269 717.978 71.8984 727.891 74.7307L731.737 61.2693ZM692.396 63.0941C691.154 63.2492 690.027 63.5722 689.658 63.6678C689.128 63.8053 689.324 63.72 689.694 63.72V77.72C691.253 77.72 692.555 77.3797 693.172 77.2197C693.951 77.0178 694.013 77.0008 694.132 76.9859L692.396 63.0941Z" fill="black" mask="url(#path-1-outside-1_4075_10)"/>
</svg>
