<svg width="5098" height="150" viewBox="0 0 5098 150" fill="none" xmlns="http://www.w3.org/2000/svg">
<g clip-path="url(#clip0_4084_3256)">
<rect width="5098" height="150" fill="#FFC7C2"/>
<path d="M123.377 127.5C117.477 126.6 119.477 119.5 118.577 115.1C110.477 113.2 101.877 107.9 98.5766 100.3C97.6766 95.7 103.677 92.8 106.477 96.4C109.177 100.8 113.377 103.9 118.377 105.7C118.177 99.4 118.377 92.8 118.377 86.4C110.677 83.6 99.4766 76.7 102.577 67C104.377 59.5 110.677 53.5 117.977 51.3C118.577 47 116.777 39.8 119.977 36.5C121.777 35 124.677 35.2 126.377 37C128.577 40.8 126.777 45.8 127.277 50.1C134.877 51.7 144.577 55.3 147.077 63.4C147.977 67 146.677 72.5 142.077 72.1C138.777 71.6 137.577 68.5 137.977 65.5C135.777 61.9 130.777 60.4 126.977 59.4V67.3C127.277 71.3 127.377 75.2 127.377 79.3C132.477 80 137.277 81.4 142.877 84.4C146.277 86.3 148.877 88.5 149.577 92.6C153.077 105.7 138.777 114.1 127.877 115.7C128.177 119.9 130.077 127.8 123.377 127.5ZM111.977 67C109.777 71.5 113.677 73.6 116.477 75.7C117.177 76.2 118.177 76.6 118.177 76.6C118.177 71.3 117.977 66.4 117.977 61.2C115.277 62.3 113.777 63.2 111.977 67ZM127.377 106.6C132.177 105.2 138.477 103.2 140.677 98.5C141.477 95.7 140.177 94.1 137.977 92.3C134.977 89.8 131.477 88.8 127.377 88.5V106.6ZM167.694 110.6C165.494 113.1 160.994 112.2 160.094 108.8C158.494 100.7 159.094 92 158.594 84C158.494 74.7 156.694 65.9 157.094 56.6C150.994 47.3 173.794 45.7 179.194 45.1C202.094 42.1 215.994 64.2 202.094 82.8C193.894 92.3 179.694 93.4 167.894 93.2C167.894 96.8 168.194 100.4 168.594 103.8C168.794 106.1 169.694 108.8 167.694 110.6ZM166.094 56.6C165.694 65.9 167.694 74.9 167.894 84.1C177.394 84.1 189.394 84 195.994 76C200.594 68.7 198.694 57.7 189.694 55C182.694 53 175.194 54.5 168.194 56.2C167.394 56.3 166.794 56.6 166.094 56.6ZM244.211 117C233.611 118.3 222.811 111.3 217.611 102.5C209.111 84.6 214.511 59 232.111 49C236.611 46.9 243.311 42.6 247.711 46.6C256.611 47.1 262.111 49.6 266.211 58C273.211 70.8 272.911 86.8 268.011 100.4C264.411 109.2 253.311 115.3 244.211 117ZM223.011 80.4C222.411 88.9 223.311 99.8 231.811 104.3C240.011 111.7 251.111 106.4 257.811 100C264.811 87.1 264.111 69.6 255.411 58C252.611 55.4 247.711 56.8 245.011 53.9C232.111 55.3 223.911 68.1 223.011 80.4ZM321.878 120.3C317.378 116.1 314.678 110.1 312.178 104.7C308.678 99.8 305.578 94.6 302.878 89.2C298.878 89.6 294.478 89.8 290.178 89.8C290.178 96.5 289.978 103.4 290.478 110.1C290.478 113.1 290.878 116.2 288.978 118.5C285.478 122.4 279.078 118 281.478 113.5C281.178 107 280.778 100.7 281.178 94.3C281.678 81.3 279.978 68.4 279.978 55.4C274.878 51.8 278.678 46.2 284.378 46.4C285.078 46.4 285.478 46.2 286.178 46.2H285.678C297.178 44.6 310.178 42.8 320.978 48.4C329.478 53.6 334.078 64.7 331.978 74.7C328.578 81.9 319.178 84.6 312.178 87.4C314.178 91.1 316.178 94.7 318.878 98.3C321.278 102.5 322.778 107 325.678 110.6C326.578 112.2 327.678 113.3 328.278 114.9C329.478 118.8 325.278 122.4 321.878 120.3ZM289.278 54.8C289.278 63.6 289.578 72.2 290.178 80.8C301.778 80.8 314.378 79.2 323.478 71.5C324.378 51.7 303.578 52.7 289.278 54.8ZM379.716 116.3C373.316 109.6 368.416 101.2 362.716 94C360.316 90.5 358.816 86.3 355.716 83.4C352.816 86.1 351.216 90.5 347.616 92.4C347.616 95 348.116 97.4 348.116 99.9C347.616 104.2 348.816 108.4 347.816 112.8C346.916 115.4 343.316 116.3 341.016 114.6C337.216 111.7 339.716 100.6 338.516 95.8C338.316 86.8 339.116 77.5 339.116 68.5V52.7C339.216 50.4 341.516 48.6 343.616 48.6C348.816 48.8 348.216 54.5 348.116 58.1C348.116 64.9 348.116 71.9 347.816 78.7C357.516 68.2 367.216 57 379.016 49.2C381.216 48.8 383.816 50.6 384.216 53.1C384.716 57.2 379.916 59.4 377.516 61.9C372.016 66.3 367.016 71.6 362.116 76.6C364.816 79.7 367.516 83.2 369.116 87C375.016 94.9 380.216 103.5 386.916 110.8C390.516 115.4 383.016 121.1 379.716 116.3ZM421.487 115.9C413.887 115.6 405.787 116.9 398.187 115.3C393.887 113.8 393.787 108.6 394.287 104.7C393.987 99.6 394.087 94.4 394.387 89.2C394.187 76.7 392.687 63.9 395.987 52.1C398.687 44.9 428.887 48.8 436.587 48.8C440.387 49.1 441.887 54.8 438.887 56.9C435.487 58.7 431.087 56.9 427.187 57.3C419.587 57 411.687 56.4 403.887 57.5C403.287 63.9 402.687 70.2 402.987 76.5C412.687 76.5 422.687 75.8 432.387 76.7C438.287 77.8 436.887 86.6 431.287 85.7C427.787 85.1 424.487 85.3 421.087 85.6C415.287 85.7 409.287 85.1 403.187 85.7C403.087 92.8 403.287 99.8 403.387 107.1C411.287 107.1 419.187 106.5 427.087 106.8C430.587 107.2 434.187 105.3 437.287 107.5C439.187 109 439.687 112 438.187 114C433.887 117.4 426.887 115.3 421.487 115.9Z" fill="black"/>
<path d="M626.377 127.5C620.477 126.6 622.477 119.5 621.577 115.1C613.477 113.2 604.877 107.9 601.577 100.3C600.677 95.7 606.677 92.8 609.477 96.4C612.177 100.8 616.377 103.9 621.377 105.7C621.177 99.4 621.377 92.8 621.377 86.4C613.677 83.6 602.477 76.7 605.577 67C607.377 59.5 613.677 53.5 620.977 51.3C621.577 47 619.777 39.8 622.977 36.5C624.777 35 627.677 35.2 629.377 37C631.577 40.8 629.777 45.8 630.277 50.1C637.877 51.7 647.577 55.3 650.077 63.4C650.977 67 649.677 72.5 645.077 72.1C641.777 71.6 640.577 68.5 640.977 65.5C638.777 61.9 633.777 60.4 629.977 59.4V67.3C630.277 71.3 630.377 75.2 630.377 79.3C635.477 80 640.277 81.4 645.877 84.4C649.277 86.3 651.877 88.5 652.577 92.6C656.077 105.7 641.777 114.1 630.877 115.7C631.177 119.9 633.077 127.8 626.377 127.5ZM614.977 67C612.777 71.5 616.677 73.6 619.477 75.7C620.177 76.2 621.177 76.6 621.177 76.6C621.177 71.3 620.977 66.4 620.977 61.2C618.277 62.3 616.777 63.2 614.977 67ZM630.377 106.6C635.177 105.2 641.477 103.2 643.677 98.5C644.477 95.7 643.177 94.1 640.977 92.3C637.977 89.8 634.477 88.8 630.377 88.5V106.6ZM670.694 110.6C668.494 113.1 663.994 112.2 663.094 108.8C661.494 100.7 662.094 92 661.594 84C661.494 74.7 659.694 65.9 660.094 56.6C653.994 47.3 676.794 45.7 682.194 45.1C705.094 42.1 718.994 64.2 705.094 82.8C696.894 92.3 682.694 93.4 670.894 93.2C670.894 96.8 671.194 100.4 671.594 103.8C671.794 106.1 672.694 108.8 670.694 110.6ZM669.094 56.6C668.694 65.9 670.694 74.9 670.894 84.1C680.394 84.1 692.394 84 698.994 76C703.594 68.7 701.694 57.7 692.694 55C685.694 53 678.194 54.5 671.194 56.2C670.394 56.3 669.794 56.6 669.094 56.6ZM747.211 117C736.611 118.3 725.811 111.3 720.611 102.5C712.111 84.6 717.511 59 735.111 49C739.611 46.9 746.311 42.6 750.711 46.6C759.611 47.1 765.111 49.6 769.211 58C776.211 70.8 775.911 86.8 771.011 100.4C767.411 109.2 756.311 115.3 747.211 117ZM726.011 80.4C725.411 88.9 726.311 99.8 734.811 104.3C743.011 111.7 754.111 106.4 760.811 100C767.811 87.1 767.111 69.6 758.411 58C755.611 55.4 750.711 56.8 748.011 53.9C735.111 55.3 726.911 68.1 726.011 80.4ZM824.878 120.3C820.378 116.1 817.678 110.1 815.178 104.7C811.678 99.8 808.578 94.6 805.878 89.2C801.878 89.6 797.478 89.8 793.178 89.8C793.178 96.5 792.978 103.4 793.478 110.1C793.478 113.1 793.878 116.2 791.978 118.5C788.478 122.4 782.078 118 784.478 113.5C784.178 107 783.778 100.7 784.178 94.3C784.678 81.3 782.978 68.4 782.978 55.4C777.878 51.8 781.678 46.2 787.378 46.4C788.078 46.4 788.478 46.2 789.178 46.2H788.678C800.178 44.6 813.178 42.8 823.978 48.4C832.478 53.6 837.078 64.7 834.978 74.7C831.578 81.9 822.178 84.6 815.178 87.4C817.178 91.1 819.178 94.7 821.878 98.3C824.278 102.5 825.778 107 828.678 110.6C829.578 112.2 830.678 113.3 831.278 114.9C832.478 118.8 828.278 122.4 824.878 120.3ZM792.278 54.8C792.278 63.6 792.578 72.2 793.178 80.8C804.778 80.8 817.378 79.2 826.478 71.5C827.378 51.7 806.578 52.7 792.278 54.8ZM882.716 116.3C876.316 109.6 871.416 101.2 865.716 94C863.316 90.5 861.816 86.3 858.716 83.4C855.816 86.1 854.216 90.5 850.616 92.4C850.616 95 851.116 97.4 851.116 99.9C850.616 104.2 851.816 108.4 850.816 112.8C849.916 115.4 846.316 116.3 844.016 114.6C840.216 111.7 842.716 100.6 841.516 95.8C841.316 86.8 842.116 77.5 842.116 68.5V52.7C842.216 50.4 844.516 48.6 846.616 48.6C851.816 48.8 851.216 54.5 851.116 58.1C851.116 64.9 851.116 71.9 850.816 78.7C860.516 68.2 870.216 57 882.016 49.2C884.216 48.8 886.816 50.6 887.216 53.1C887.716 57.2 882.916 59.4 880.516 61.9C875.016 66.3 870.016 71.6 865.116 76.6C867.816 79.7 870.516 83.2 872.116 87C878.016 94.9 883.216 103.5 889.916 110.8C893.516 115.4 886.016 121.1 882.716 116.3ZM924.487 115.9C916.887 115.6 908.787 116.9 901.187 115.3C896.887 113.8 896.787 108.6 897.287 104.7C896.987 99.6 897.087 94.4 897.387 89.2C897.187 76.7 895.687 63.9 898.987 52.1C901.687 44.9 931.887 48.8 939.587 48.8C943.387 49.1 944.887 54.8 941.887 56.9C938.487 58.7 934.087 56.9 930.187 57.3C922.587 57 914.687 56.4 906.887 57.5C906.287 63.9 905.687 70.2 905.987 76.5C915.687 76.5 925.687 75.8 935.387 76.7C941.287 77.8 939.887 86.6 934.287 85.7C930.787 85.1 927.487 85.3 924.087 85.6C918.287 85.7 912.287 85.1 906.187 85.7C906.087 92.8 906.287 99.8 906.387 107.1C914.287 107.1 922.187 106.5 930.087 106.8C933.587 107.2 937.187 105.3 940.287 107.5C942.187 109 942.687 112 941.187 114C936.887 117.4 929.887 115.3 924.487 115.9Z" fill="black"/>
<path d="M1129.38 127.5C1123.48 126.6 1125.48 119.5 1124.58 115.1C1116.48 113.2 1107.88 107.9 1104.58 100.3C1103.68 95.7 1109.68 92.8 1112.48 96.4C1115.18 100.8 1119.38 103.9 1124.38 105.7C1124.18 99.4 1124.38 92.8 1124.38 86.4C1116.68 83.6 1105.48 76.7 1108.58 67C1110.38 59.5 1116.68 53.5 1123.98 51.3C1124.58 47 1122.78 39.8 1125.98 36.5C1127.78 35 1130.68 35.2 1132.38 37C1134.58 40.8 1132.78 45.8 1133.28 50.1C1140.88 51.7 1150.58 55.3 1153.08 63.4C1153.98 67 1152.68 72.5 1148.08 72.1C1144.78 71.6 1143.58 68.5 1143.98 65.5C1141.78 61.9 1136.78 60.4 1132.98 59.4V67.3C1133.28 71.3 1133.38 75.2 1133.38 79.3C1138.48 80 1143.28 81.4 1148.88 84.4C1152.28 86.3 1154.88 88.5 1155.58 92.6C1159.08 105.7 1144.78 114.1 1133.88 115.7C1134.18 119.9 1136.08 127.8 1129.38 127.5ZM1117.98 67C1115.78 71.5 1119.68 73.6 1122.48 75.7C1123.18 76.2 1124.18 76.6 1124.18 76.6C1124.18 71.3 1123.98 66.4 1123.98 61.2C1121.28 62.3 1119.78 63.2 1117.98 67ZM1133.38 106.6C1138.18 105.2 1144.48 103.2 1146.68 98.5C1147.48 95.7 1146.18 94.1 1143.98 92.3C1140.98 89.8 1137.48 88.8 1133.38 88.5V106.6ZM1173.69 110.6C1171.49 113.1 1166.99 112.2 1166.09 108.8C1164.49 100.7 1165.09 92 1164.59 84C1164.49 74.7 1162.69 65.9 1163.09 56.6C1156.99 47.3 1179.79 45.7 1185.19 45.1C1208.09 42.1 1221.99 64.2 1208.09 82.8C1199.89 92.3 1185.69 93.4 1173.89 93.2C1173.89 96.8 1174.19 100.4 1174.59 103.8C1174.79 106.1 1175.69 108.8 1173.69 110.6ZM1172.09 56.6C1171.69 65.9 1173.69 74.9 1173.89 84.1C1183.39 84.1 1195.39 84 1201.99 76C1206.59 68.7 1204.69 57.7 1195.69 55C1188.69 53 1181.19 54.5 1174.19 56.2C1173.39 56.3 1172.79 56.6 1172.09 56.6ZM1250.21 117C1239.61 118.3 1228.81 111.3 1223.61 102.5C1215.11 84.6 1220.51 59 1238.11 49C1242.61 46.9 1249.31 42.6 1253.71 46.6C1262.61 47.1 1268.11 49.6 1272.21 58C1279.21 70.8 1278.91 86.8 1274.01 100.4C1270.41 109.2 1259.31 115.3 1250.21 117ZM1229.01 80.4C1228.41 88.9 1229.31 99.8 1237.81 104.3C1246.01 111.7 1257.11 106.4 1263.81 100C1270.81 87.1 1270.11 69.6 1261.41 58C1258.61 55.4 1253.71 56.8 1251.01 53.9C1238.11 55.3 1229.91 68.1 1229.01 80.4ZM1327.88 120.3C1323.38 116.1 1320.68 110.1 1318.18 104.7C1314.68 99.8 1311.58 94.6 1308.88 89.2C1304.88 89.6 1300.48 89.8 1296.18 89.8C1296.18 96.5 1295.98 103.4 1296.48 110.1C1296.48 113.1 1296.88 116.2 1294.98 118.5C1291.48 122.4 1285.08 118 1287.48 113.5C1287.18 107 1286.78 100.7 1287.18 94.3C1287.68 81.3 1285.98 68.4 1285.98 55.4C1280.88 51.8 1284.68 46.2 1290.38 46.4C1291.08 46.4 1291.48 46.2 1292.18 46.2H1291.68C1303.18 44.6 1316.18 42.8 1326.98 48.4C1335.48 53.6 1340.08 64.7 1337.98 74.7C1334.58 81.9 1325.18 84.6 1318.18 87.4C1320.18 91.1 1322.18 94.7 1324.88 98.3C1327.28 102.5 1328.78 107 1331.68 110.6C1332.58 112.2 1333.68 113.3 1334.28 114.9C1335.48 118.8 1331.28 122.4 1327.88 120.3ZM1295.28 54.8C1295.28 63.6 1295.58 72.2 1296.18 80.8C1307.78 80.8 1320.38 79.2 1329.48 71.5C1330.38 51.7 1309.58 52.7 1295.28 54.8ZM1385.72 116.3C1379.32 109.6 1374.42 101.2 1368.72 94C1366.32 90.5 1364.82 86.3 1361.72 83.4C1358.82 86.1 1357.22 90.5 1353.62 92.4C1353.62 95 1354.12 97.4 1354.12 99.9C1353.62 104.2 1354.82 108.4 1353.82 112.8C1352.92 115.4 1349.32 116.3 1347.02 114.6C1343.22 111.7 1345.72 100.6 1344.52 95.8C1344.32 86.8 1345.12 77.5 1345.12 68.5V52.7C1345.22 50.4 1347.52 48.6 1349.62 48.6C1354.82 48.8 1354.22 54.5 1354.12 58.1C1354.12 64.9 1354.12 71.9 1353.82 78.7C1363.52 68.2 1373.22 57 1385.02 49.2C1387.22 48.8 1389.82 50.6 1390.22 53.1C1390.72 57.2 1385.92 59.4 1383.52 61.9C1378.02 66.3 1373.02 71.6 1368.12 76.6C1370.82 79.7 1373.52 83.2 1375.12 87C1381.02 94.9 1386.22 103.5 1392.92 110.8C1396.52 115.4 1389.02 121.1 1385.72 116.3ZM1427.49 115.9C1419.89 115.6 1411.79 116.9 1404.19 115.3C1399.89 113.8 1399.79 108.6 1400.29 104.7C1399.99 99.6 1400.09 94.4 1400.39 89.2C1400.19 76.7 1398.69 63.9 1401.99 52.1C1404.69 44.9 1434.89 48.8 1442.59 48.8C1446.39 49.1 1447.89 54.8 1444.89 56.9C1441.49 58.7 1437.09 56.9 1433.19 57.3C1425.59 57 1417.69 56.4 1409.89 57.5C1409.29 63.9 1408.69 70.2 1408.99 76.5C1418.69 76.5 1428.69 75.8 1438.39 76.7C1444.29 77.8 1442.89 86.6 1437.29 85.7C1433.79 85.1 1430.49 85.3 1427.09 85.6C1421.29 85.7 1415.29 85.1 1409.19 85.7C1409.09 92.8 1409.29 99.8 1409.39 107.1C1417.29 107.1 1425.19 106.5 1433.09 106.8C1436.59 107.2 1440.19 105.3 1443.29 107.5C1445.19 109 1445.69 112 1444.19 114C1439.89 117.4 1432.89 115.3 1427.49 115.9Z" fill="black"/>
<path d="M1632.38 127.5C1626.48 126.6 1628.48 119.5 1627.58 115.1C1619.48 113.2 1610.88 107.9 1607.58 100.3C1606.68 95.7 1612.68 92.8 1615.48 96.4C1618.18 100.8 1622.38 103.9 1627.38 105.7C1627.18 99.4 1627.38 92.8 1627.38 86.4C1619.68 83.6 1608.48 76.7 1611.58 67C1613.38 59.5 1619.68 53.5 1626.98 51.3C1627.58 47 1625.78 39.8 1628.98 36.5C1630.78 35 1633.68 35.2 1635.38 37C1637.58 40.8 1635.78 45.8 1636.28 50.1C1643.88 51.7 1653.58 55.3 1656.08 63.4C1656.98 67 1655.68 72.5 1651.08 72.1C1647.78 71.6 1646.58 68.5 1646.98 65.5C1644.78 61.9 1639.78 60.4 1635.98 59.4V67.3C1636.28 71.3 1636.38 75.2 1636.38 79.3C1641.48 80 1646.28 81.4 1651.88 84.4C1655.28 86.3 1657.88 88.5 1658.58 92.6C1662.08 105.7 1647.78 114.1 1636.88 115.7C1637.18 119.9 1639.08 127.8 1632.38 127.5ZM1620.98 67C1618.78 71.5 1622.68 73.6 1625.48 75.7C1626.18 76.2 1627.18 76.6 1627.18 76.6C1627.18 71.3 1626.98 66.4 1626.98 61.2C1624.28 62.3 1622.78 63.2 1620.98 67ZM1636.38 106.6C1641.18 105.2 1647.48 103.2 1649.68 98.5C1650.48 95.7 1649.18 94.1 1646.98 92.3C1643.98 89.8 1640.48 88.8 1636.38 88.5V106.6ZM1676.69 110.6C1674.49 113.1 1669.99 112.2 1669.09 108.8C1667.49 100.7 1668.09 92 1667.59 84C1667.49 74.7 1665.69 65.9 1666.09 56.6C1659.99 47.3 1682.79 45.7 1688.19 45.1C1711.09 42.1 1724.99 64.2 1711.09 82.8C1702.89 92.3 1688.69 93.4 1676.89 93.2C1676.89 96.8 1677.19 100.4 1677.59 103.8C1677.79 106.1 1678.69 108.8 1676.69 110.6ZM1675.09 56.6C1674.69 65.9 1676.69 74.9 1676.89 84.1C1686.39 84.1 1698.39 84 1704.99 76C1709.59 68.7 1707.69 57.7 1698.69 55C1691.69 53 1684.19 54.5 1677.19 56.2C1676.39 56.3 1675.79 56.6 1675.09 56.6ZM1753.21 117C1742.61 118.3 1731.81 111.3 1726.61 102.5C1718.11 84.6 1723.51 59 1741.11 49C1745.61 46.9 1752.31 42.6 1756.71 46.6C1765.61 47.1 1771.11 49.6 1775.21 58C1782.21 70.8 1781.91 86.8 1777.01 100.4C1773.41 109.2 1762.31 115.3 1753.21 117ZM1732.01 80.4C1731.41 88.9 1732.31 99.8 1740.81 104.3C1749.01 111.7 1760.11 106.4 1766.81 100C1773.81 87.1 1773.11 69.6 1764.41 58C1761.61 55.4 1756.71 56.8 1754.01 53.9C1741.11 55.3 1732.91 68.1 1732.01 80.4ZM1830.88 120.3C1826.38 116.1 1823.68 110.1 1821.18 104.7C1817.68 99.8 1814.58 94.6 1811.88 89.2C1807.88 89.6 1803.48 89.8 1799.18 89.8C1799.18 96.5 1798.98 103.4 1799.48 110.1C1799.48 113.1 1799.88 116.2 1797.98 118.5C1794.48 122.4 1788.08 118 1790.48 113.5C1790.18 107 1789.78 100.7 1790.18 94.3C1790.68 81.3 1788.98 68.4 1788.98 55.4C1783.88 51.8 1787.68 46.2 1793.38 46.4C1794.08 46.4 1794.48 46.2 1795.18 46.2H1794.68C1806.18 44.6 1819.18 42.8 1829.98 48.4C1838.48 53.6 1843.08 64.7 1840.98 74.7C1837.58 81.9 1828.18 84.6 1821.18 87.4C1823.18 91.1 1825.18 94.7 1827.88 98.3C1830.28 102.5 1831.78 107 1834.68 110.6C1835.58 112.2 1836.68 113.3 1837.28 114.9C1838.48 118.8 1834.28 122.4 1830.88 120.3ZM1798.28 54.8C1798.28 63.6 1798.58 72.2 1799.18 80.8C1810.78 80.8 1823.38 79.2 1832.48 71.5C1833.38 51.7 1812.58 52.7 1798.28 54.8ZM1888.72 116.3C1882.32 109.6 1877.42 101.2 1871.72 94C1869.32 90.5 1867.82 86.3 1864.72 83.4C1861.82 86.1 1860.22 90.5 1856.62 92.4C1856.62 95 1857.12 97.4 1857.12 99.9C1856.62 104.2 1857.82 108.4 1856.82 112.8C1855.92 115.4 1852.32 116.3 1850.02 114.6C1846.22 111.7 1848.72 100.6 1847.52 95.8C1847.32 86.8 1848.12 77.5 1848.12 68.5V52.7C1848.22 50.4 1850.52 48.6 1852.62 48.6C1857.82 48.8 1857.22 54.5 1857.12 58.1C1857.12 64.9 1857.12 71.9 1856.82 78.7C1866.52 68.2 1876.22 57 1888.02 49.2C1890.22 48.8 1892.82 50.6 1893.22 53.1C1893.72 57.2 1888.92 59.4 1886.52 61.9C1881.02 66.3 1876.02 71.6 1871.12 76.6C1873.82 79.7 1876.52 83.2 1878.12 87C1884.02 94.9 1889.22 103.5 1895.92 110.8C1899.52 115.4 1892.02 121.1 1888.72 116.3ZM1930.49 115.9C1922.89 115.6 1914.79 116.9 1907.19 115.3C1902.89 113.8 1902.79 108.6 1903.29 104.7C1902.99 99.6 1903.09 94.4 1903.39 89.2C1903.19 76.7 1901.69 63.9 1904.99 52.1C1907.69 44.9 1937.89 48.8 1945.59 48.8C1949.39 49.1 1950.89 54.8 1947.89 56.9C1944.49 58.7 1940.09 56.9 1936.19 57.3C1928.59 57 1920.69 56.4 1912.89 57.5C1912.29 63.9 1911.69 70.2 1911.99 76.5C1921.69 76.5 1931.69 75.8 1941.39 76.7C1947.29 77.8 1945.89 86.6 1940.29 85.7C1936.79 85.1 1933.49 85.3 1930.09 85.6C1924.29 85.7 1918.29 85.1 1912.19 85.7C1912.09 92.8 1912.29 99.8 1912.39 107.1C1920.29 107.1 1928.19 106.5 1936.09 106.8C1939.59 107.2 1943.19 105.3 1946.29 107.5C1948.19 109 1948.69 112 1947.19 114C1942.89 117.4 1935.89 115.3 1930.49 115.9Z" fill="black"/>
<path d="M4147.38 127.5C4141.48 126.6 4143.48 119.5 4142.58 115.1C4134.48 113.2 4125.88 107.9 4122.58 100.3C4121.68 95.7 4127.68 92.8 4130.48 96.4C4133.18 100.8 4137.38 103.9 4142.38 105.7C4142.18 99.4 4142.38 92.8 4142.38 86.4C4134.68 83.6 4123.48 76.7 4126.58 67C4128.38 59.5 4134.68 53.5 4141.98 51.3C4142.58 47 4140.78 39.8 4143.98 36.5C4145.78 35 4148.68 35.2 4150.38 37C4152.58 40.8 4150.78 45.8 4151.28 50.1C4158.88 51.7 4168.58 55.3 4171.08 63.4C4171.98 67 4170.68 72.5 4166.08 72.1C4162.78 71.6 4161.58 68.5 4161.98 65.5C4159.78 61.9 4154.78 60.4 4150.98 59.4V67.3C4151.28 71.3 4151.38 75.2 4151.38 79.3C4156.48 80 4161.28 81.4 4166.88 84.4C4170.28 86.3 4172.88 88.5 4173.58 92.6C4177.08 105.7 4162.78 114.1 4151.88 115.7C4152.18 119.9 4154.08 127.8 4147.38 127.5ZM4135.98 67C4133.78 71.5 4137.68 73.6 4140.48 75.7C4141.18 76.2 4142.18 76.6 4142.18 76.6C4142.18 71.3 4141.98 66.4 4141.98 61.2C4139.28 62.3 4137.78 63.2 4135.98 67ZM4151.38 106.6C4156.18 105.2 4162.48 103.2 4164.68 98.5C4165.48 95.7 4164.18 94.1 4161.98 92.3C4158.98 89.8 4155.48 88.8 4151.38 88.5V106.6ZM4191.69 110.6C4189.49 113.1 4184.99 112.2 4184.09 108.8C4182.49 100.7 4183.09 92 4182.59 84C4182.49 74.7 4180.69 65.9 4181.09 56.6C4174.99 47.3 4197.79 45.7 4203.19 45.1C4226.09 42.1 4239.99 64.2 4226.09 82.8C4217.89 92.3 4203.69 93.4 4191.89 93.2C4191.89 96.8 4192.19 100.4 4192.59 103.8C4192.79 106.1 4193.69 108.8 4191.69 110.6ZM4190.09 56.6C4189.69 65.9 4191.69 74.9 4191.89 84.1C4201.39 84.1 4213.39 84 4219.99 76C4224.59 68.7 4222.69 57.7 4213.69 55C4206.69 53 4199.19 54.5 4192.19 56.2C4191.39 56.3 4190.79 56.6 4190.09 56.6ZM4268.21 117C4257.61 118.3 4246.81 111.3 4241.61 102.5C4233.11 84.6 4238.51 59 4256.11 49C4260.61 46.9 4267.31 42.6 4271.71 46.6C4280.61 47.1 4286.11 49.6 4290.21 58C4297.21 70.8 4296.91 86.8 4292.01 100.4C4288.41 109.2 4277.31 115.3 4268.21 117ZM4247.01 80.4C4246.41 88.9 4247.31 99.8 4255.81 104.3C4264.01 111.7 4275.11 106.4 4281.81 100C4288.81 87.1 4288.11 69.6 4279.41 58C4276.61 55.4 4271.71 56.8 4269.01 53.9C4256.11 55.3 4247.91 68.1 4247.01 80.4ZM4345.88 120.3C4341.38 116.1 4338.68 110.1 4336.18 104.7C4332.68 99.8 4329.58 94.6 4326.88 89.2C4322.88 89.6 4318.48 89.8 4314.18 89.8C4314.18 96.5 4313.98 103.4 4314.48 110.1C4314.48 113.1 4314.88 116.2 4312.98 118.5C4309.48 122.4 4303.08 118 4305.48 113.5C4305.18 107 4304.78 100.7 4305.18 94.3C4305.68 81.3 4303.98 68.4 4303.98 55.4C4298.88 51.8 4302.68 46.2 4308.38 46.4C4309.08 46.4 4309.48 46.2 4310.18 46.2H4309.68C4321.18 44.6 4334.18 42.8 4344.98 48.4C4353.48 53.6 4358.08 64.7 4355.98 74.7C4352.58 81.9 4343.18 84.6 4336.18 87.4C4338.18 91.1 4340.18 94.7 4342.88 98.3C4345.28 102.5 4346.78 107 4349.68 110.6C4350.58 112.2 4351.68 113.3 4352.28 114.9C4353.48 118.8 4349.28 122.4 4345.88 120.3ZM4313.28 54.8C4313.28 63.6 4313.58 72.2 4314.18 80.8C4325.78 80.8 4338.38 79.2 4347.48 71.5C4348.38 51.7 4327.58 52.7 4313.28 54.8ZM4403.72 116.3C4397.32 109.6 4392.42 101.2 4386.72 94C4384.32 90.5 4382.82 86.3 4379.72 83.4C4376.82 86.1 4375.22 90.5 4371.62 92.4C4371.62 95 4372.12 97.4 4372.12 99.9C4371.62 104.2 4372.82 108.4 4371.82 112.8C4370.92 115.4 4367.32 116.3 4365.02 114.6C4361.22 111.7 4363.72 100.6 4362.52 95.8C4362.32 86.8 4363.12 77.5 4363.12 68.5V52.7C4363.22 50.4 4365.52 48.6 4367.62 48.6C4372.82 48.8 4372.22 54.5 4372.12 58.1C4372.12 64.9 4372.12 71.9 4371.82 78.7C4381.52 68.2 4391.22 57 4403.02 49.2C4405.22 48.8 4407.82 50.6 4408.22 53.1C4408.72 57.2 4403.92 59.4 4401.52 61.9C4396.02 66.3 4391.02 71.6 4386.12 76.6C4388.82 79.7 4391.52 83.2 4393.12 87C4399.02 94.9 4404.22 103.5 4410.92 110.8C4414.52 115.4 4407.02 121.1 4403.72 116.3ZM4445.49 115.9C4437.89 115.6 4429.79 116.9 4422.19 115.3C4417.89 113.8 4417.79 108.6 4418.29 104.7C4417.99 99.6 4418.09 94.4 4418.39 89.2C4418.19 76.7 4416.69 63.9 4419.99 52.1C4422.69 44.9 4452.89 48.8 4460.59 48.8C4464.39 49.1 4465.89 54.8 4462.89 56.9C4459.49 58.7 4455.09 56.9 4451.19 57.3C4443.59 57 4435.69 56.4 4427.89 57.5C4427.29 63.9 4426.69 70.2 4426.99 76.5C4436.69 76.5 4446.69 75.8 4456.39 76.7C4462.29 77.8 4460.89 86.6 4455.29 85.7C4451.79 85.1 4448.49 85.3 4445.09 85.6C4439.29 85.7 4433.29 85.1 4427.19 85.7C4427.09 92.8 4427.29 99.8 4427.39 107.1C4435.29 107.1 4443.19 106.5 4451.09 106.8C4454.59 107.2 4458.19 105.3 4461.29 107.5C4463.19 109 4463.69 112 4462.19 114C4457.89 117.4 4450.89 115.3 4445.49 115.9Z" fill="black"/>
<path d="M2135.38 127.5C2129.48 126.6 2131.48 119.5 2130.58 115.1C2122.48 113.2 2113.88 107.9 2110.58 100.3C2109.68 95.7 2115.68 92.8 2118.48 96.4C2121.18 100.8 2125.38 103.9 2130.38 105.7C2130.18 99.4 2130.38 92.8 2130.38 86.4C2122.68 83.6 2111.48 76.7 2114.58 67C2116.38 59.5 2122.68 53.5 2129.98 51.3C2130.58 47 2128.78 39.8 2131.98 36.5C2133.78 35 2136.68 35.2 2138.38 37C2140.58 40.8 2138.78 45.8 2139.28 50.1C2146.88 51.7 2156.58 55.3 2159.08 63.4C2159.98 67 2158.68 72.5 2154.08 72.1C2150.78 71.6 2149.58 68.5 2149.98 65.5C2147.78 61.9 2142.78 60.4 2138.98 59.4V67.3C2139.28 71.3 2139.38 75.2 2139.38 79.3C2144.48 80 2149.28 81.4 2154.88 84.4C2158.28 86.3 2160.88 88.5 2161.58 92.6C2165.08 105.7 2150.78 114.1 2139.88 115.7C2140.18 119.9 2142.08 127.8 2135.38 127.5ZM2123.98 67C2121.78 71.5 2125.68 73.6 2128.48 75.7C2129.18 76.2 2130.18 76.6 2130.18 76.6C2130.18 71.3 2129.98 66.4 2129.98 61.2C2127.28 62.3 2125.78 63.2 2123.98 67ZM2139.38 106.6C2144.18 105.2 2150.48 103.2 2152.68 98.5C2153.48 95.7 2152.18 94.1 2149.98 92.3C2146.98 89.8 2143.48 88.8 2139.38 88.5V106.6ZM2179.69 110.6C2177.49 113.1 2172.99 112.2 2172.09 108.8C2170.49 100.7 2171.09 92 2170.59 84C2170.49 74.7 2168.69 65.9 2169.09 56.6C2162.99 47.3 2185.79 45.7 2191.19 45.1C2214.09 42.1 2227.99 64.2 2214.09 82.8C2205.89 92.3 2191.69 93.4 2179.89 93.2C2179.89 96.8 2180.19 100.4 2180.59 103.8C2180.79 106.1 2181.69 108.8 2179.69 110.6ZM2178.09 56.6C2177.69 65.9 2179.69 74.9 2179.89 84.1C2189.39 84.1 2201.39 84 2207.99 76C2212.59 68.7 2210.69 57.7 2201.69 55C2194.69 53 2187.19 54.5 2180.19 56.2C2179.39 56.3 2178.79 56.6 2178.09 56.6ZM2256.21 117C2245.61 118.3 2234.81 111.3 2229.61 102.5C2221.11 84.6 2226.51 59 2244.11 49C2248.61 46.9 2255.31 42.6 2259.71 46.6C2268.61 47.1 2274.11 49.6 2278.21 58C2285.21 70.8 2284.91 86.8 2280.01 100.4C2276.41 109.2 2265.31 115.3 2256.21 117ZM2235.01 80.4C2234.41 88.9 2235.31 99.8 2243.81 104.3C2252.01 111.7 2263.11 106.4 2269.81 100C2276.81 87.1 2276.11 69.6 2267.41 58C2264.61 55.4 2259.71 56.8 2257.01 53.9C2244.11 55.3 2235.91 68.1 2235.01 80.4ZM2333.88 120.3C2329.38 116.1 2326.68 110.1 2324.18 104.7C2320.68 99.8 2317.58 94.6 2314.88 89.2C2310.88 89.6 2306.48 89.8 2302.18 89.8C2302.18 96.5 2301.98 103.4 2302.48 110.1C2302.48 113.1 2302.88 116.2 2300.98 118.5C2297.48 122.4 2291.08 118 2293.48 113.5C2293.18 107 2292.78 100.7 2293.18 94.3C2293.68 81.3 2291.98 68.4 2291.98 55.4C2286.88 51.8 2290.68 46.2 2296.38 46.4C2297.08 46.4 2297.48 46.2 2298.18 46.2H2297.68C2309.18 44.6 2322.18 42.8 2332.98 48.4C2341.48 53.6 2346.08 64.7 2343.98 74.7C2340.58 81.9 2331.18 84.6 2324.18 87.4C2326.18 91.1 2328.18 94.7 2330.88 98.3C2333.28 102.5 2334.78 107 2337.68 110.6C2338.58 112.2 2339.68 113.3 2340.28 114.9C2341.48 118.8 2337.28 122.4 2333.88 120.3ZM2301.28 54.8C2301.28 63.6 2301.58 72.2 2302.18 80.8C2313.78 80.8 2326.38 79.2 2335.48 71.5C2336.38 51.7 2315.58 52.7 2301.28 54.8ZM2391.72 116.3C2385.32 109.6 2380.42 101.2 2374.72 94C2372.32 90.5 2370.82 86.3 2367.72 83.4C2364.82 86.1 2363.22 90.5 2359.62 92.4C2359.62 95 2360.12 97.4 2360.12 99.9C2359.62 104.2 2360.82 108.4 2359.82 112.8C2358.92 115.4 2355.32 116.3 2353.02 114.6C2349.22 111.7 2351.72 100.6 2350.52 95.8C2350.32 86.8 2351.12 77.5 2351.12 68.5V52.7C2351.22 50.4 2353.52 48.6 2355.62 48.6C2360.82 48.8 2360.22 54.5 2360.12 58.1C2360.12 64.9 2360.12 71.9 2359.82 78.7C2369.52 68.2 2379.22 57 2391.02 49.2C2393.22 48.8 2395.82 50.6 2396.22 53.1C2396.72 57.2 2391.92 59.4 2389.52 61.9C2384.02 66.3 2379.02 71.6 2374.12 76.6C2376.82 79.7 2379.52 83.2 2381.12 87C2387.02 94.9 2392.22 103.5 2398.92 110.8C2402.52 115.4 2395.02 121.1 2391.72 116.3ZM2433.49 115.9C2425.89 115.6 2417.79 116.9 2410.19 115.3C2405.89 113.8 2405.79 108.6 2406.29 104.7C2405.99 99.6 2406.09 94.4 2406.39 89.2C2406.19 76.7 2404.69 63.9 2407.99 52.1C2410.69 44.9 2440.89 48.8 2448.59 48.8C2452.39 49.1 2453.89 54.8 2450.89 56.9C2447.49 58.7 2443.09 56.9 2439.19 57.3C2431.59 57 2423.69 56.4 2415.89 57.5C2415.29 63.9 2414.69 70.2 2414.99 76.5C2424.69 76.5 2434.69 75.8 2444.39 76.7C2450.29 77.8 2448.89 86.6 2443.29 85.7C2439.79 85.1 2436.49 85.3 2433.09 85.6C2427.29 85.7 2421.29 85.1 2415.19 85.7C2415.09 92.8 2415.29 99.8 2415.39 107.1C2423.29 107.1 2431.19 106.5 2439.09 106.8C2442.59 107.2 2446.19 105.3 2449.29 107.5C2451.19 109 2451.69 112 2450.19 114C2445.89 117.4 2438.89 115.3 2433.49 115.9Z" fill="black"/>
<path d="M4650.38 127.5C4644.48 126.6 4646.48 119.5 4645.58 115.1C4637.48 113.2 4628.88 107.9 4625.58 100.3C4624.68 95.7 4630.68 92.8 4633.48 96.4C4636.18 100.8 4640.38 103.9 4645.38 105.7C4645.18 99.4 4645.38 92.8 4645.38 86.4C4637.68 83.6 4626.48 76.7 4629.58 67C4631.38 59.5 4637.68 53.5 4644.98 51.3C4645.58 47 4643.78 39.8 4646.98 36.5C4648.78 35 4651.68 35.2 4653.38 37C4655.58 40.8 4653.78 45.8 4654.28 50.1C4661.88 51.7 4671.58 55.3 4674.08 63.4C4674.98 67 4673.68 72.5 4669.08 72.1C4665.78 71.6 4664.58 68.5 4664.98 65.5C4662.78 61.9 4657.78 60.4 4653.98 59.4V67.3C4654.28 71.3 4654.38 75.2 4654.38 79.3C4659.48 80 4664.28 81.4 4669.88 84.4C4673.28 86.3 4675.88 88.5 4676.58 92.6C4680.08 105.7 4665.78 114.1 4654.88 115.7C4655.18 119.9 4657.08 127.8 4650.38 127.5ZM4638.98 67C4636.78 71.5 4640.68 73.6 4643.48 75.7C4644.18 76.2 4645.18 76.6 4645.18 76.6C4645.18 71.3 4644.98 66.4 4644.98 61.2C4642.28 62.3 4640.78 63.2 4638.98 67ZM4654.38 106.6C4659.18 105.2 4665.48 103.2 4667.68 98.5C4668.48 95.7 4667.18 94.1 4664.98 92.3C4661.98 89.8 4658.48 88.8 4654.38 88.5V106.6ZM4694.69 110.6C4692.49 113.1 4687.99 112.2 4687.09 108.8C4685.49 100.7 4686.09 92 4685.59 84C4685.49 74.7 4683.69 65.9 4684.09 56.6C4677.99 47.3 4700.79 45.7 4706.19 45.1C4729.09 42.1 4742.99 64.2 4729.09 82.8C4720.89 92.3 4706.69 93.4 4694.89 93.2C4694.89 96.8 4695.19 100.4 4695.59 103.8C4695.79 106.1 4696.69 108.8 4694.69 110.6ZM4693.09 56.6C4692.69 65.9 4694.69 74.9 4694.89 84.1C4704.39 84.1 4716.39 84 4722.99 76C4727.59 68.7 4725.69 57.7 4716.69 55C4709.69 53 4702.19 54.5 4695.19 56.2C4694.39 56.3 4693.79 56.6 4693.09 56.6ZM4771.21 117C4760.61 118.3 4749.81 111.3 4744.61 102.5C4736.11 84.6 4741.51 59 4759.11 49C4763.61 46.9 4770.31 42.6 4774.71 46.6C4783.61 47.1 4789.11 49.6 4793.21 58C4800.21 70.8 4799.91 86.8 4795.01 100.4C4791.41 109.2 4780.31 115.3 4771.21 117ZM4750.01 80.4C4749.41 88.9 4750.31 99.8 4758.81 104.3C4767.01 111.7 4778.11 106.4 4784.81 100C4791.81 87.1 4791.11 69.6 4782.41 58C4779.61 55.4 4774.71 56.8 4772.01 53.9C4759.11 55.3 4750.91 68.1 4750.01 80.4ZM4848.88 120.3C4844.38 116.1 4841.68 110.1 4839.18 104.7C4835.68 99.8 4832.58 94.6 4829.88 89.2C4825.88 89.6 4821.48 89.8 4817.18 89.8C4817.18 96.5 4816.98 103.4 4817.48 110.1C4817.48 113.1 4817.88 116.2 4815.98 118.5C4812.48 122.4 4806.08 118 4808.48 113.5C4808.18 107 4807.78 100.7 4808.18 94.3C4808.68 81.3 4806.98 68.4 4806.98 55.4C4801.88 51.8 4805.68 46.2 4811.38 46.4C4812.08 46.4 4812.48 46.2 4813.18 46.2H4812.68C4824.18 44.6 4837.18 42.8 4847.98 48.4C4856.48 53.6 4861.08 64.7 4858.98 74.7C4855.58 81.9 4846.18 84.6 4839.18 87.4C4841.18 91.1 4843.18 94.7 4845.88 98.3C4848.28 102.5 4849.78 107 4852.68 110.6C4853.58 112.2 4854.68 113.3 4855.28 114.9C4856.48 118.8 4852.28 122.4 4848.88 120.3ZM4816.28 54.8C4816.28 63.6 4816.58 72.2 4817.18 80.8C4828.78 80.8 4841.38 79.2 4850.48 71.5C4851.38 51.7 4830.58 52.7 4816.28 54.8ZM4906.72 116.3C4900.32 109.6 4895.42 101.2 4889.72 94C4887.32 90.5 4885.82 86.3 4882.72 83.4C4879.82 86.1 4878.22 90.5 4874.62 92.4C4874.62 95 4875.12 97.4 4875.12 99.9C4874.62 104.2 4875.82 108.4 4874.82 112.8C4873.92 115.4 4870.32 116.3 4868.02 114.6C4864.22 111.7 4866.72 100.6 4865.52 95.8C4865.32 86.8 4866.12 77.5 4866.12 68.5V52.7C4866.22 50.4 4868.52 48.6 4870.62 48.6C4875.82 48.8 4875.22 54.5 4875.12 58.1C4875.12 64.9 4875.12 71.9 4874.82 78.7C4884.52 68.2 4894.22 57 4906.02 49.2C4908.22 48.8 4910.82 50.6 4911.22 53.1C4911.72 57.2 4906.92 59.4 4904.52 61.9C4899.02 66.3 4894.02 71.6 4889.12 76.6C4891.82 79.7 4894.52 83.2 4896.12 87C4902.02 94.9 4907.22 103.5 4913.92 110.8C4917.52 115.4 4910.02 121.1 4906.72 116.3ZM4948.49 115.9C4940.89 115.6 4932.79 116.9 4925.19 115.3C4920.89 113.8 4920.79 108.6 4921.29 104.7C4920.99 99.6 4921.09 94.4 4921.39 89.2C4921.19 76.7 4919.69 63.9 4922.99 52.1C4925.69 44.9 4955.89 48.8 4963.59 48.8C4967.39 49.1 4968.89 54.8 4965.89 56.9C4962.49 58.7 4958.09 56.9 4954.19 57.3C4946.59 57 4938.69 56.4 4930.89 57.5C4930.29 63.9 4929.69 70.2 4929.99 76.5C4939.69 76.5 4949.69 75.8 4959.39 76.7C4965.29 77.8 4963.89 86.6 4958.29 85.7C4954.79 85.1 4951.49 85.3 4948.09 85.6C4942.29 85.7 4936.29 85.1 4930.19 85.7C4930.09 92.8 4930.29 99.8 4930.39 107.1C4938.29 107.1 4946.19 106.5 4954.09 106.8C4957.59 107.2 4961.19 105.3 4964.29 107.5C4966.19 109 4966.69 112 4965.19 114C4960.89 117.4 4953.89 115.3 4948.49 115.9Z" fill="black"/>
<path d="M2638.38 127.5C2632.48 126.6 2634.48 119.5 2633.58 115.1C2625.48 113.2 2616.88 107.9 2613.58 100.3C2612.68 95.7 2618.68 92.8 2621.48 96.4C2624.18 100.8 2628.38 103.9 2633.38 105.7C2633.18 99.4 2633.38 92.8 2633.38 86.4C2625.68 83.6 2614.48 76.7 2617.58 67C2619.38 59.5 2625.68 53.5 2632.98 51.3C2633.58 47 2631.78 39.8 2634.98 36.5C2636.78 35 2639.68 35.2 2641.38 37C2643.58 40.8 2641.78 45.8 2642.28 50.1C2649.88 51.7 2659.58 55.3 2662.08 63.4C2662.98 67 2661.68 72.5 2657.08 72.1C2653.78 71.6 2652.58 68.5 2652.98 65.5C2650.78 61.9 2645.78 60.4 2641.98 59.4V67.3C2642.28 71.3 2642.38 75.2 2642.38 79.3C2647.48 80 2652.28 81.4 2657.88 84.4C2661.28 86.3 2663.88 88.5 2664.58 92.6C2668.08 105.7 2653.78 114.1 2642.88 115.7C2643.18 119.9 2645.08 127.8 2638.38 127.5ZM2626.98 67C2624.78 71.5 2628.68 73.6 2631.48 75.7C2632.18 76.2 2633.18 76.6 2633.18 76.6C2633.18 71.3 2632.98 66.4 2632.98 61.2C2630.28 62.3 2628.78 63.2 2626.98 67ZM2642.38 106.6C2647.18 105.2 2653.48 103.2 2655.68 98.5C2656.48 95.7 2655.18 94.1 2652.98 92.3C2649.98 89.8 2646.48 88.8 2642.38 88.5V106.6ZM2682.69 110.6C2680.49 113.1 2675.99 112.2 2675.09 108.8C2673.49 100.7 2674.09 92 2673.59 84C2673.49 74.7 2671.69 65.9 2672.09 56.6C2665.99 47.3 2688.79 45.7 2694.19 45.1C2717.09 42.1 2730.99 64.2 2717.09 82.8C2708.89 92.3 2694.69 93.4 2682.89 93.2C2682.89 96.8 2683.19 100.4 2683.59 103.8C2683.79 106.1 2684.69 108.8 2682.69 110.6ZM2681.09 56.6C2680.69 65.9 2682.69 74.9 2682.89 84.1C2692.39 84.1 2704.39 84 2710.99 76C2715.59 68.7 2713.69 57.7 2704.69 55C2697.69 53 2690.19 54.5 2683.19 56.2C2682.39 56.3 2681.79 56.6 2681.09 56.6ZM2759.21 117C2748.61 118.3 2737.81 111.3 2732.61 102.5C2724.11 84.6 2729.51 59 2747.11 49C2751.61 46.9 2758.31 42.6 2762.71 46.6C2771.61 47.1 2777.11 49.6 2781.21 58C2788.21 70.8 2787.91 86.8 2783.01 100.4C2779.41 109.2 2768.31 115.3 2759.21 117ZM2738.01 80.4C2737.41 88.9 2738.31 99.8 2746.81 104.3C2755.01 111.7 2766.11 106.4 2772.81 100C2779.81 87.1 2779.11 69.6 2770.41 58C2767.61 55.4 2762.71 56.8 2760.01 53.9C2747.11 55.3 2738.91 68.1 2738.01 80.4ZM2836.88 120.3C2832.38 116.1 2829.68 110.1 2827.18 104.7C2823.68 99.8 2820.58 94.6 2817.88 89.2C2813.88 89.6 2809.48 89.8 2805.18 89.8C2805.18 96.5 2804.98 103.4 2805.48 110.1C2805.48 113.1 2805.88 116.2 2803.98 118.5C2800.48 122.4 2794.08 118 2796.48 113.5C2796.18 107 2795.78 100.7 2796.18 94.3C2796.68 81.3 2794.98 68.4 2794.98 55.4C2789.88 51.8 2793.68 46.2 2799.38 46.4C2800.08 46.4 2800.48 46.2 2801.18 46.2H2800.68C2812.18 44.6 2825.18 42.8 2835.98 48.4C2844.48 53.6 2849.08 64.7 2846.98 74.7C2843.58 81.9 2834.18 84.6 2827.18 87.4C2829.18 91.1 2831.18 94.7 2833.88 98.3C2836.28 102.5 2837.78 107 2840.68 110.6C2841.58 112.2 2842.68 113.3 2843.28 114.9C2844.48 118.8 2840.28 122.4 2836.88 120.3ZM2804.28 54.8C2804.28 63.6 2804.58 72.2 2805.18 80.8C2816.78 80.8 2829.38 79.2 2838.48 71.5C2839.38 51.7 2818.58 52.7 2804.28 54.8ZM2894.72 116.3C2888.32 109.6 2883.42 101.2 2877.72 94C2875.32 90.5 2873.82 86.3 2870.72 83.4C2867.82 86.1 2866.22 90.5 2862.62 92.4C2862.62 95 2863.12 97.4 2863.12 99.9C2862.62 104.2 2863.82 108.4 2862.82 112.8C2861.92 115.4 2858.32 116.3 2856.02 114.6C2852.22 111.7 2854.72 100.6 2853.52 95.8C2853.32 86.8 2854.12 77.5 2854.12 68.5V52.7C2854.22 50.4 2856.52 48.6 2858.62 48.6C2863.82 48.8 2863.22 54.5 2863.12 58.1C2863.12 64.9 2863.12 71.9 2862.82 78.7C2872.52 68.2 2882.22 57 2894.02 49.2C2896.22 48.8 2898.82 50.6 2899.22 53.1C2899.72 57.2 2894.92 59.4 2892.52 61.9C2887.02 66.3 2882.02 71.6 2877.12 76.6C2879.82 79.7 2882.52 83.2 2884.12 87C2890.02 94.9 2895.22 103.5 2901.92 110.8C2905.52 115.4 2898.02 121.1 2894.72 116.3ZM2936.49 115.9C2928.89 115.6 2920.79 116.9 2913.19 115.3C2908.89 113.8 2908.79 108.6 2909.29 104.7C2908.99 99.6 2909.09 94.4 2909.39 89.2C2909.19 76.7 2907.69 63.9 2910.99 52.1C2913.69 44.9 2943.89 48.8 2951.59 48.8C2955.39 49.1 2956.89 54.8 2953.89 56.9C2950.49 58.7 2946.09 56.9 2942.19 57.3C2934.59 57 2926.69 56.4 2918.89 57.5C2918.29 63.9 2917.69 70.2 2917.99 76.5C2927.69 76.5 2937.69 75.8 2947.39 76.7C2953.29 77.8 2951.89 86.6 2946.29 85.7C2942.79 85.1 2939.49 85.3 2936.09 85.6C2930.29 85.7 2924.29 85.1 2918.19 85.7C2918.09 92.8 2918.29 99.8 2918.39 107.1C2926.29 107.1 2934.19 106.5 2942.09 106.8C2945.59 107.2 2949.19 105.3 2952.29 107.5C2954.19 109 2954.69 112 2953.19 114C2948.89 117.4 2941.89 115.3 2936.49 115.9Z" fill="black"/>
<path d="M3141.38 127.5C3135.48 126.6 3137.48 119.5 3136.58 115.1C3128.48 113.2 3119.88 107.9 3116.58 100.3C3115.68 95.7 3121.68 92.8 3124.48 96.4C3127.18 100.8 3131.38 103.9 3136.38 105.7C3136.18 99.4 3136.38 92.8 3136.38 86.4C3128.68 83.6 3117.48 76.7 3120.58 67C3122.38 59.5 3128.68 53.5 3135.98 51.3C3136.58 47 3134.78 39.8 3137.98 36.5C3139.78 35 3142.68 35.2 3144.38 37C3146.58 40.8 3144.78 45.8 3145.28 50.1C3152.88 51.7 3162.58 55.3 3165.08 63.4C3165.98 67 3164.68 72.5 3160.08 72.1C3156.78 71.6 3155.58 68.5 3155.98 65.5C3153.78 61.9 3148.78 60.4 3144.98 59.4V67.3C3145.28 71.3 3145.38 75.2 3145.38 79.3C3150.48 80 3155.28 81.4 3160.88 84.4C3164.28 86.3 3166.88 88.5 3167.58 92.6C3171.08 105.7 3156.78 114.1 3145.88 115.7C3146.18 119.9 3148.08 127.8 3141.38 127.5ZM3129.98 67C3127.78 71.5 3131.68 73.6 3134.48 75.7C3135.18 76.2 3136.18 76.6 3136.18 76.6C3136.18 71.3 3135.98 66.4 3135.98 61.2C3133.28 62.3 3131.78 63.2 3129.98 67ZM3145.38 106.6C3150.18 105.2 3156.48 103.2 3158.68 98.5C3159.48 95.7 3158.18 94.1 3155.98 92.3C3152.98 89.8 3149.48 88.8 3145.38 88.5V106.6ZM3185.69 110.6C3183.49 113.1 3178.99 112.2 3178.09 108.8C3176.49 100.7 3177.09 92 3176.59 84C3176.49 74.7 3174.69 65.9 3175.09 56.6C3168.99 47.3 3191.79 45.7 3197.19 45.1C3220.09 42.1 3233.99 64.2 3220.09 82.8C3211.89 92.3 3197.69 93.4 3185.89 93.2C3185.89 96.8 3186.19 100.4 3186.59 103.8C3186.79 106.1 3187.69 108.8 3185.69 110.6ZM3184.09 56.6C3183.69 65.9 3185.69 74.9 3185.89 84.1C3195.39 84.1 3207.39 84 3213.99 76C3218.59 68.7 3216.69 57.7 3207.69 55C3200.69 53 3193.19 54.5 3186.19 56.2C3185.39 56.3 3184.79 56.6 3184.09 56.6ZM3262.21 117C3251.61 118.3 3240.81 111.3 3235.61 102.5C3227.11 84.6 3232.51 59 3250.11 49C3254.61 46.9 3261.31 42.6 3265.71 46.6C3274.61 47.1 3280.11 49.6 3284.21 58C3291.21 70.8 3290.91 86.8 3286.01 100.4C3282.41 109.2 3271.31 115.3 3262.21 117ZM3241.01 80.4C3240.41 88.9 3241.31 99.8 3249.81 104.3C3258.01 111.7 3269.11 106.4 3275.81 100C3282.81 87.1 3282.11 69.6 3273.41 58C3270.61 55.4 3265.71 56.8 3263.01 53.9C3250.11 55.3 3241.91 68.1 3241.01 80.4ZM3339.88 120.3C3335.38 116.1 3332.68 110.1 3330.18 104.7C3326.68 99.8 3323.58 94.6 3320.88 89.2C3316.88 89.6 3312.48 89.8 3308.18 89.8C3308.18 96.5 3307.98 103.4 3308.48 110.1C3308.48 113.1 3308.88 116.2 3306.98 118.5C3303.48 122.4 3297.08 118 3299.48 113.5C3299.18 107 3298.78 100.7 3299.18 94.3C3299.68 81.3 3297.98 68.4 3297.98 55.4C3292.88 51.8 3296.68 46.2 3302.38 46.4C3303.08 46.4 3303.48 46.2 3304.18 46.2H3303.68C3315.18 44.6 3328.18 42.8 3338.98 48.4C3347.48 53.6 3352.08 64.7 3349.98 74.7C3346.58 81.9 3337.18 84.6 3330.18 87.4C3332.18 91.1 3334.18 94.7 3336.88 98.3C3339.28 102.5 3340.78 107 3343.68 110.6C3344.58 112.2 3345.68 113.3 3346.28 114.9C3347.48 118.8 3343.28 122.4 3339.88 120.3ZM3307.28 54.8C3307.28 63.6 3307.58 72.2 3308.18 80.8C3319.78 80.8 3332.38 79.2 3341.48 71.5C3342.38 51.7 3321.58 52.7 3307.28 54.8ZM3397.72 116.3C3391.32 109.6 3386.42 101.2 3380.72 94C3378.32 90.5 3376.82 86.3 3373.72 83.4C3370.82 86.1 3369.22 90.5 3365.62 92.4C3365.62 95 3366.12 97.4 3366.12 99.9C3365.62 104.2 3366.82 108.4 3365.82 112.8C3364.92 115.4 3361.32 116.3 3359.02 114.6C3355.22 111.7 3357.72 100.6 3356.52 95.8C3356.32 86.8 3357.12 77.5 3357.12 68.5V52.7C3357.22 50.4 3359.52 48.6 3361.62 48.6C3366.82 48.8 3366.22 54.5 3366.12 58.1C3366.12 64.9 3366.12 71.9 3365.82 78.7C3375.52 68.2 3385.22 57 3397.02 49.2C3399.22 48.8 3401.82 50.6 3402.22 53.1C3402.72 57.2 3397.92 59.4 3395.52 61.9C3390.02 66.3 3385.02 71.6 3380.12 76.6C3382.82 79.7 3385.52 83.2 3387.12 87C3393.02 94.9 3398.22 103.5 3404.92 110.8C3408.52 115.4 3401.02 121.1 3397.72 116.3ZM3439.49 115.9C3431.89 115.6 3423.79 116.9 3416.19 115.3C3411.89 113.8 3411.79 108.6 3412.29 104.7C3411.99 99.6 3412.09 94.4 3412.39 89.2C3412.19 76.7 3410.69 63.9 3413.99 52.1C3416.69 44.9 3446.89 48.8 3454.59 48.8C3458.39 49.1 3459.89 54.8 3456.89 56.9C3453.49 58.7 3449.09 56.9 3445.19 57.3C3437.59 57 3429.69 56.4 3421.89 57.5C3421.29 63.9 3420.69 70.2 3420.99 76.5C3430.69 76.5 3440.69 75.8 3450.39 76.7C3456.29 77.8 3454.89 86.6 3449.29 85.7C3445.79 85.1 3442.49 85.3 3439.09 85.6C3433.29 85.7 3427.29 85.1 3421.19 85.7C3421.09 92.8 3421.29 99.8 3421.39 107.1C3429.29 107.1 3437.19 106.5 3445.09 106.8C3448.59 107.2 3452.19 105.3 3455.29 107.5C3457.19 109 3457.69 112 3456.19 114C3451.89 117.4 3444.89 115.3 3439.49 115.9Z" fill="black"/>
<path d="M3644.38 127.5C3638.48 126.6 3640.48 119.5 3639.58 115.1C3631.48 113.2 3622.88 107.9 3619.58 100.3C3618.68 95.7 3624.68 92.8 3627.48 96.4C3630.18 100.8 3634.38 103.9 3639.38 105.7C3639.18 99.4 3639.38 92.8 3639.38 86.4C3631.68 83.6 3620.48 76.7 3623.58 67C3625.38 59.5 3631.68 53.5 3638.98 51.3C3639.58 47 3637.78 39.8 3640.98 36.5C3642.78 35 3645.68 35.2 3647.38 37C3649.58 40.8 3647.78 45.8 3648.28 50.1C3655.88 51.7 3665.58 55.3 3668.08 63.4C3668.98 67 3667.68 72.5 3663.08 72.1C3659.78 71.6 3658.58 68.5 3658.98 65.5C3656.78 61.9 3651.78 60.4 3647.98 59.4V67.3C3648.28 71.3 3648.38 75.2 3648.38 79.3C3653.48 80 3658.28 81.4 3663.88 84.4C3667.28 86.3 3669.88 88.5 3670.58 92.6C3674.08 105.7 3659.78 114.1 3648.88 115.7C3649.18 119.9 3651.08 127.8 3644.38 127.5ZM3632.98 67C3630.78 71.5 3634.68 73.6 3637.48 75.7C3638.18 76.2 3639.18 76.6 3639.18 76.6C3639.18 71.3 3638.98 66.4 3638.98 61.2C3636.28 62.3 3634.78 63.2 3632.98 67ZM3648.38 106.6C3653.18 105.2 3659.48 103.2 3661.68 98.5C3662.48 95.7 3661.18 94.1 3658.98 92.3C3655.98 89.8 3652.48 88.8 3648.38 88.5V106.6ZM3688.69 110.6C3686.49 113.1 3681.99 112.2 3681.09 108.8C3679.49 100.7 3680.09 92 3679.59 84C3679.49 74.7 3677.69 65.9 3678.09 56.6C3671.99 47.3 3694.79 45.7 3700.19 45.1C3723.09 42.1 3736.99 64.2 3723.09 82.8C3714.89 92.3 3700.69 93.4 3688.89 93.2C3688.89 96.8 3689.19 100.4 3689.59 103.8C3689.79 106.1 3690.69 108.8 3688.69 110.6ZM3687.09 56.6C3686.69 65.9 3688.69 74.9 3688.89 84.1C3698.39 84.1 3710.39 84 3716.99 76C3721.59 68.7 3719.69 57.7 3710.69 55C3703.69 53 3696.19 54.5 3689.19 56.2C3688.39 56.3 3687.79 56.6 3687.09 56.6ZM3765.21 117C3754.61 118.3 3743.81 111.3 3738.61 102.5C3730.11 84.6 3735.51 59 3753.11 49C3757.61 46.9 3764.31 42.6 3768.71 46.6C3777.61 47.1 3783.11 49.6 3787.21 58C3794.21 70.8 3793.91 86.8 3789.01 100.4C3785.41 109.2 3774.31 115.3 3765.21 117ZM3744.01 80.4C3743.41 88.9 3744.31 99.8 3752.81 104.3C3761.01 111.7 3772.11 106.4 3778.81 100C3785.81 87.1 3785.11 69.6 3776.41 58C3773.61 55.4 3768.71 56.8 3766.01 53.9C3753.11 55.3 3744.91 68.1 3744.01 80.4ZM3842.88 120.3C3838.38 116.1 3835.68 110.1 3833.18 104.7C3829.68 99.8 3826.58 94.6 3823.88 89.2C3819.88 89.6 3815.48 89.8 3811.18 89.8C3811.18 96.5 3810.98 103.4 3811.48 110.1C3811.48 113.1 3811.88 116.2 3809.98 118.5C3806.48 122.4 3800.08 118 3802.48 113.5C3802.18 107 3801.78 100.7 3802.18 94.3C3802.68 81.3 3800.98 68.4 3800.98 55.4C3795.88 51.8 3799.68 46.2 3805.38 46.4C3806.08 46.4 3806.48 46.2 3807.18 46.2H3806.68C3818.18 44.6 3831.18 42.8 3841.98 48.4C3850.48 53.6 3855.08 64.7 3852.98 74.7C3849.58 81.9 3840.18 84.6 3833.18 87.4C3835.18 91.1 3837.18 94.7 3839.88 98.3C3842.28 102.5 3843.78 107 3846.68 110.6C3847.58 112.2 3848.68 113.3 3849.28 114.9C3850.48 118.8 3846.28 122.4 3842.88 120.3ZM3810.28 54.8C3810.28 63.6 3810.58 72.2 3811.18 80.8C3822.78 80.8 3835.38 79.2 3844.48 71.5C3845.38 51.7 3824.58 52.7 3810.28 54.8ZM3900.72 116.3C3894.32 109.6 3889.42 101.2 3883.72 94C3881.32 90.5 3879.82 86.3 3876.72 83.4C3873.82 86.1 3872.22 90.5 3868.62 92.4C3868.62 95 3869.12 97.4 3869.12 99.9C3868.62 104.2 3869.82 108.4 3868.82 112.8C3867.92 115.4 3864.32 116.3 3862.02 114.6C3858.22 111.7 3860.72 100.6 3859.52 95.8C3859.32 86.8 3860.12 77.5 3860.12 68.5V52.7C3860.22 50.4 3862.52 48.6 3864.62 48.6C3869.82 48.8 3869.22 54.5 3869.12 58.1C3869.12 64.9 3869.12 71.9 3868.82 78.7C3878.52 68.2 3888.22 57 3900.02 49.2C3902.22 48.8 3904.82 50.6 3905.22 53.1C3905.72 57.2 3900.92 59.4 3898.52 61.9C3893.02 66.3 3888.02 71.6 3883.12 76.6C3885.82 79.7 3888.52 83.2 3890.12 87C3896.02 94.9 3901.22 103.5 3907.92 110.8C3911.52 115.4 3904.02 121.1 3900.72 116.3ZM3942.49 115.9C3934.89 115.6 3926.79 116.9 3919.19 115.3C3914.89 113.8 3914.79 108.6 3915.29 104.7C3914.99 99.6 3915.09 94.4 3915.39 89.2C3915.19 76.7 3913.69 63.9 3916.99 52.1C3919.69 44.9 3949.89 48.8 3957.59 48.8C3961.39 49.1 3962.89 54.8 3959.89 56.9C3956.49 58.7 3952.09 56.9 3948.19 57.3C3940.59 57 3932.69 56.4 3924.89 57.5C3924.29 63.9 3923.69 70.2 3923.99 76.5C3933.69 76.5 3943.69 75.8 3953.39 76.7C3959.29 77.8 3957.89 86.6 3952.29 85.7C3948.79 85.1 3945.49 85.3 3942.09 85.6C3936.29 85.7 3930.29 85.1 3924.19 85.7C3924.09 92.8 3924.29 99.8 3924.39 107.1C3932.29 107.1 3940.19 106.5 3948.09 106.8C3951.59 107.2 3955.19 105.3 3958.29 107.5C3960.19 109 3960.69 112 3959.19 114C3954.89 117.4 3947.89 115.3 3942.49 115.9Z" fill="black"/>
<path d="M15.1436 123.03H21.0408" stroke="#2B1C1C" stroke-width="3" stroke-linecap="round"/>
<path d="M26.938 62.0915C35.7605 60.3839 42.0501 54.1189 48.5612 48.3313" stroke="#2B1C1C" stroke-width="3" stroke-linecap="round"/>
<path d="M103.602 34.5711C106.129 34.0097 108.96 31.6416 111.465 30.6396" stroke="#2B1C1C" stroke-width="3" stroke-linecap="round"/>
<path d="M203.855 42.4341H209.752" stroke="#2B1C1C" stroke-width="3" stroke-linecap="round"/>
<path d="M424.018 124.995C425.78 128.871 430.572 130.566 433.847 132.858" stroke="#2B1C1C" stroke-width="3" stroke-linecap="round"/>
<path d="M427.949 95.509C444.1 89.6843 464.668 85.4457 479.059 75.8516" stroke="#2B1C1C" stroke-width="3" stroke-linecap="round"/>
<path d="M449.573 42.4341C455.867 42.5426 461.216 43.3001 467.264 44.3998" stroke="#2B1C1C" stroke-width="3" stroke-linecap="round"/>
<path d="M506.579 126.961L508.545 124.995" stroke="#2B1C1C" stroke-width="3" stroke-linecap="round"/>
<path d="M526.237 34.571C530.118 34.571 532.596 33.9928 536.065 32.6052" stroke="#2B1C1C" stroke-width="3" stroke-linecap="round"/>
<path d="M673.667 24.7424H687.427" stroke="#2B1C1C" stroke-width="3" stroke-linecap="round"/>
<path d="M826.995 32.6054C833.528 32.6054 842.029 30.8335 832.892 24.7424" stroke="#2B1C1C" stroke-width="3" stroke-linecap="round"/>
<path d="M923.316 40.4683C928.76 40.4683 929.993 40.1966 933.145 44.3998" stroke="#2B1C1C" stroke-width="3" stroke-linecap="round"/>
<path d="M941.008 95.509C938.508 98.6341 939.441 100.238 941.008 103.372" stroke="#2B1C1C" stroke-width="3" stroke-linecap="round"/>
<path d="M1035.36 103.372C1033.66 106.26 1031.98 107.26 1029.47 109.269" stroke="#2B1C1C" stroke-width="3" stroke-linecap="round"/>
<path d="M1017.67 66.0229C1017.37 61.7287 1015.08 66.2074 1013.74 67.9887" stroke="#2B1C1C" stroke-width="3" stroke-linecap="round"/>
<path d="M1212.28 24.7423C1216.03 20.9881 1218.83 20.8108 1224.08 20.8108" stroke="#2B1C1C" stroke-width="3" stroke-linecap="round"/>
<path d="M1098.27 26.7081C1098.27 24.1384 1098.38 23.8161 1096.3 22.7766" stroke="#2B1C1C" stroke-width="3" stroke-linecap="round"/>
<path d="M1410.82 140.721H1420.65" stroke="#2B1C1C" stroke-width="3" stroke-linecap="round"/>
<path d="M1459.96 111.235C1464.92 111.235 1468.91 110.894 1471.76 115.166" stroke="#2B1C1C" stroke-width="3" stroke-linecap="round"/>
<path d="M1479.62 85.6803C1484.39 81.4389 1490.16 81.0371 1495.35 75.8516" stroke="#2B1C1C" stroke-width="3" stroke-linecap="round"/>
<path d="M1554.32 58.1599H1566.11" stroke="#2B1C1C" stroke-width="3" stroke-linecap="round"/>
<path d="M1656.54 42.4341H1666.37" stroke="#2B1C1C" stroke-width="3" stroke-linecap="round"/>
<path d="M1731.24 28.6738L1733.2 26.708" stroke="#2B1C1C" stroke-width="3" stroke-linecap="round"/>
<path d="M1414.75 28.6738L1416.72 26.708" stroke="#2B1C1C" stroke-width="3" stroke-linecap="round"/>
<path d="M954.768 136.79C952.055 138.226 949.752 139.772 946.906 140.721" stroke="#2B1C1C" stroke-width="3" stroke-linecap="round"/>
<path d="M1526.8 134.824C1527.09 132.497 1528.77 132.858 1530.73 132.858" stroke="#2B1C1C" stroke-width="3" stroke-linecap="round"/>
<path d="M1493.38 16.8794V30.6396" stroke="#2B1C1C" stroke-width="3" stroke-linecap="round"/>
<path d="M1599.53 24.7423C1602.97 21.6872 1609.1 21.239 1613.29 18.8451" stroke="#2B1C1C" stroke-width="3" stroke-linecap="round"/>
<path d="M516.408 87.6461C517.819 88.9006 518.667 89.0544 520.339 89.6119" stroke="#2B1C1C" stroke-width="3" stroke-linecap="round"/>
<path d="M1675.83 73.886C1673.99 74.0899 1673.36 74.8752 1671.9 75.8517" stroke="#2B1C1C" stroke-width="3" stroke-linecap="round"/>
<path d="M1683.69 30.6395C1677.74 27.4875 1671.94 24.0101 1666 20.8108" stroke="#2B1C1C" stroke-width="3" stroke-linecap="round"/>
<path d="M1715.14 123.03H1721.04" stroke="#2B1C1C" stroke-width="3" stroke-linecap="round"/>
<path d="M1726.94 62.0915C1735.76 60.3839 1742.05 54.1189 1748.56 48.3313" stroke="#2B1C1C" stroke-width="3" stroke-linecap="round"/>
<path d="M1803.6 34.5711C1806.13 34.0097 1808.96 31.6416 1811.47 30.6396" stroke="#2B1C1C" stroke-width="3" stroke-linecap="round"/>
<path d="M1903.85 42.4341H1909.75" stroke="#2B1C1C" stroke-width="3" stroke-linecap="round"/>
<path d="M2124.02 124.995C2125.78 128.871 2130.57 130.566 2133.85 132.858" stroke="#2B1C1C" stroke-width="3" stroke-linecap="round"/>
<path d="M2127.95 95.509C2144.1 89.6843 2164.67 85.4457 2179.06 75.8516" stroke="#2B1C1C" stroke-width="3" stroke-linecap="round"/>
<path d="M2149.57 42.4341C2155.87 42.5426 2161.22 43.3001 2167.26 44.3998" stroke="#2B1C1C" stroke-width="3" stroke-linecap="round"/>
<path d="M2206.58 126.961L2208.54 124.995" stroke="#2B1C1C" stroke-width="3" stroke-linecap="round"/>
<path d="M2226.24 34.571C2230.12 34.571 2232.6 33.9928 2236.07 32.6052" stroke="#2B1C1C" stroke-width="3" stroke-linecap="round"/>
<path d="M2373.67 24.7424H2387.43" stroke="#2B1C1C" stroke-width="3" stroke-linecap="round"/>
<path d="M2527 32.6054C2533.53 32.6054 2542.03 30.8335 2532.89 24.7424" stroke="#2B1C1C" stroke-width="3" stroke-linecap="round"/>
<path d="M2623.32 40.4683C2628.76 40.4683 2629.99 40.1966 2633.15 44.3998" stroke="#2B1C1C" stroke-width="3" stroke-linecap="round"/>
<path d="M2641.01 95.509C2638.51 98.6341 2639.44 100.238 2641.01 103.372" stroke="#2B1C1C" stroke-width="3" stroke-linecap="round"/>
<path d="M2735.36 103.372C2733.66 106.26 2731.98 107.26 2729.47 109.269" stroke="#2B1C1C" stroke-width="3" stroke-linecap="round"/>
<path d="M2717.67 66.0229C2717.37 61.7287 2715.08 66.2074 2713.74 67.9887" stroke="#2B1C1C" stroke-width="3" stroke-linecap="round"/>
<path d="M2912.28 24.7423C2916.03 20.9881 2918.83 20.8108 2924.08 20.8108" stroke="#2B1C1C" stroke-width="3" stroke-linecap="round"/>
<path d="M2798.27 26.7081C2798.27 24.1384 2798.38 23.8161 2796.3 22.7766" stroke="#2B1C1C" stroke-width="3" stroke-linecap="round"/>
<path d="M3110.82 140.721H3120.65" stroke="#2B1C1C" stroke-width="3" stroke-linecap="round"/>
<path d="M3159.96 111.235C3164.92 111.235 3168.91 110.894 3171.76 115.166" stroke="#2B1C1C" stroke-width="3" stroke-linecap="round"/>
<path d="M3179.62 85.6803C3184.39 81.4389 3190.16 81.0371 3195.35 75.8516" stroke="#2B1C1C" stroke-width="3" stroke-linecap="round"/>
<path d="M3254.32 58.1599H3266.11" stroke="#2B1C1C" stroke-width="3" stroke-linecap="round"/>
<path d="M3356.54 42.4341H3366.37" stroke="#2B1C1C" stroke-width="3" stroke-linecap="round"/>
<path d="M3431.24 28.6738L3433.2 26.708" stroke="#2B1C1C" stroke-width="3" stroke-linecap="round"/>
<path d="M3114.75 28.6738L3116.72 26.708" stroke="#2B1C1C" stroke-width="3" stroke-linecap="round"/>
<path d="M2654.77 136.79C2652.05 138.226 2649.75 139.772 2646.91 140.721" stroke="#2B1C1C" stroke-width="3" stroke-linecap="round"/>
<path d="M3226.8 134.824C3227.09 132.497 3228.77 132.858 3230.73 132.858" stroke="#2B1C1C" stroke-width="3" stroke-linecap="round"/>
<path d="M3193.38 16.8794V30.6396" stroke="#2B1C1C" stroke-width="3" stroke-linecap="round"/>
<path d="M3299.53 24.7423C3302.97 21.6872 3309.1 21.239 3313.29 18.8451" stroke="#2B1C1C" stroke-width="3" stroke-linecap="round"/>
<path d="M2216.41 87.6461C2217.82 88.9006 2218.67 89.0544 2220.34 89.6119" stroke="#2B1C1C" stroke-width="3" stroke-linecap="round"/>
<path d="M3440.83 73.886C3438.99 74.0899 3438.36 74.8752 3436.9 75.8517" stroke="#2B1C1C" stroke-width="3" stroke-linecap="round"/>
<path d="M3448.69 30.6395C3442.74 27.4875 3436.94 24.0101 3431 20.8108" stroke="#2B1C1C" stroke-width="3" stroke-linecap="round"/>
<path d="M3480.14 123.03H3486.04" stroke="#2B1C1C" stroke-width="3" stroke-linecap="round"/>
<path d="M3491.94 62.0915C3500.76 60.3839 3507.05 54.1189 3513.56 48.3313" stroke="#2B1C1C" stroke-width="3" stroke-linecap="round"/>
<path d="M3568.6 34.5711C3571.13 34.0097 3573.96 31.6416 3576.46 30.6396" stroke="#2B1C1C" stroke-width="3" stroke-linecap="round"/>
<path d="M3668.85 42.4341H3674.75" stroke="#2B1C1C" stroke-width="3" stroke-linecap="round"/>
<path d="M3889.02 124.995C3890.78 128.871 3895.57 130.566 3898.85 132.858" stroke="#2B1C1C" stroke-width="3" stroke-linecap="round"/>
<path d="M3892.95 95.509C3909.1 89.6843 3929.67 85.4457 3944.06 75.8516" stroke="#2B1C1C" stroke-width="3" stroke-linecap="round"/>
<path d="M3914.57 42.4341C3920.87 42.5426 3926.22 43.3001 3932.26 44.3998" stroke="#2B1C1C" stroke-width="3" stroke-linecap="round"/>
<path d="M3971.58 126.961L3973.54 124.995" stroke="#2B1C1C" stroke-width="3" stroke-linecap="round"/>
<path d="M3991.24 34.571C3995.12 34.571 3997.6 33.9928 4001.07 32.6052" stroke="#2B1C1C" stroke-width="3" stroke-linecap="round"/>
<path d="M4138.67 24.7424H4152.43" stroke="#2B1C1C" stroke-width="3" stroke-linecap="round"/>
<path d="M4292 32.6054C4298.53 32.6054 4307.03 30.8335 4297.89 24.7424" stroke="#2B1C1C" stroke-width="3" stroke-linecap="round"/>
<path d="M4388.32 40.4683C4393.76 40.4683 4394.99 40.1966 4398.15 44.3998" stroke="#2B1C1C" stroke-width="3" stroke-linecap="round"/>
<path d="M4406.01 95.509C4403.51 98.6341 4404.44 100.238 4406.01 103.372" stroke="#2B1C1C" stroke-width="3" stroke-linecap="round"/>
<path d="M4500.36 103.372C4498.66 106.26 4496.98 107.26 4494.47 109.269" stroke="#2B1C1C" stroke-width="3" stroke-linecap="round"/>
<path d="M4482.67 66.0229C4482.37 61.7287 4480.08 66.2074 4478.74 67.9887" stroke="#2B1C1C" stroke-width="3" stroke-linecap="round"/>
<path d="M4677.28 24.7423C4681.03 20.9881 4683.83 20.8108 4689.08 20.8108" stroke="#2B1C1C" stroke-width="3" stroke-linecap="round"/>
<path d="M4563.27 26.7081C4563.27 24.1384 4563.38 23.8161 4561.3 22.7766" stroke="#2B1C1C" stroke-width="3" stroke-linecap="round"/>
<path d="M4875.82 140.721H4885.65" stroke="#2B1C1C" stroke-width="3" stroke-linecap="round"/>
<path d="M4924.96 111.235C4929.92 111.235 4933.91 110.894 4936.76 115.166" stroke="#2B1C1C" stroke-width="3" stroke-linecap="round"/>
<path d="M4944.62 85.6803C4949.39 81.4389 4955.16 81.0371 4960.35 75.8516" stroke="#2B1C1C" stroke-width="3" stroke-linecap="round"/>
<path d="M5019.32 58.1599H5031.11" stroke="#2B1C1C" stroke-width="3" stroke-linecap="round"/>
<path d="M4879.75 28.6738L4881.72 26.708" stroke="#2B1C1C" stroke-width="3" stroke-linecap="round"/>
<path d="M4419.77 136.79C4417.06 138.226 4414.75 139.772 4411.91 140.721" stroke="#2B1C1C" stroke-width="3" stroke-linecap="round"/>
<path d="M4991.8 134.824C4992.09 132.497 4993.77 132.858 4995.73 132.858" stroke="#2B1C1C" stroke-width="3" stroke-linecap="round"/>
<path d="M4958.38 16.8794V30.6396" stroke="#2B1C1C" stroke-width="3" stroke-linecap="round"/>
<path d="M5064.53 24.7423C5067.97 21.6872 5074.1 21.239 5078.29 18.8451" stroke="#2B1C1C" stroke-width="3" stroke-linecap="round"/>
<path d="M3981.41 87.6461C3982.82 88.9006 3983.67 89.0544 3985.34 89.6119" stroke="#2B1C1C" stroke-width="3" stroke-linecap="round"/>
</g>
<rect x="2" y="2" width="5094" height="146" stroke="black" stroke-width="4"/>
<defs>
<clipPath id="clip0_4084_3256">
<rect width="5098" height="150" fill="white"/>
</clipPath>
</defs>
</svg>
