<svg width="89" height="93" viewBox="0 0 89 93" fill="none" xmlns="http://www.w3.org/2000/svg">
<g filter="url(#filter0_d_4058_9038)">
<circle cx="46.5" cy="42.5" r="42.5" fill="#FADF9A"/>
<circle cx="46.5" cy="42.5" r="41" stroke="black" stroke-width="3"/>
</g>
<path fill-rule="evenodd" clip-rule="evenodd" d="M25.9142 19.2533C31.3225 25.8732 37.2606 34.1896 38.2212 35.5348C38.2724 35.6066 38.3091 35.6584 38.3315 35.6893C38.8434 36.4029 39.2661 36.9334 39.587 37.3362C40.2997 38.2307 40.511 38.4959 40.0859 38.7398C39.7431 38.9364 39.389 39.0012 39.036 39.0012C38.6368 39.0012 38.1869 38.8076 37.8594 38.4941C37.6278 38.2725 36.0436 35.952 33.8862 32.5764C32.2355 29.9933 30.8541 27.8505 30.8166 27.8147C30.7294 27.7316 30.7309 27.7345 33.7179 33.1244C35.5935 36.5089 36.8765 39.0102 36.8765 39.1701C36.8765 39.4957 36.7886 39.6669 36.3903 40.1145C35.7265 40.8615 35.43 41.7005 35.2157 43.4368C34.9757 45.3833 34.3005 46.7585 32.4294 49.1116C31.3342 50.4893 31.1549 50.7417 30.8787 51.297C30.5304 51.9962 30.4348 52.3878 30.396 53.2707C30.355 54.2043 30.4348 54.8074 30.7176 55.6998C30.9653 56.4811 31.2235 56.9973 31.8843 58.0293C32.4545 58.9196 32.7826 59.5814 32.7826 59.8404C32.7826 60.0464 32.8216 60.0467 33.7051 59.8456C35.8195 59.3639 37.5362 58.5172 38.5018 57.4794C39.0994 56.8369 39.2397 56.4823 39.2442 55.602C39.2474 55.0262 39.2271 54.9058 39.0728 54.5745C38.8216 54.0352 38.3644 53.5871 37.3565 52.8922C36.0355 51.9816 35.4715 51.2486 35.3156 50.2405C35.1877 49.4134 35.3359 48.8297 36.0666 47.2854C36.8231 45.6869 37.0105 45.0057 37.1373 43.3943C37.2191 42.3533 37.3324 41.9428 37.6289 41.6133C37.9384 41.2697 38.2169 41.1533 38.9821 41.0477C40.2303 40.8759 41.0248 40.55 41.6782 39.9432C42.2447 39.4167 42.4818 38.9091 42.5183 38.1453L42.5458 37.5666L42.2292 37.1941C41.0826 35.8458 25.1462 18.1934 25.0756 18.1934C25.0605 18.1934 25.4378 18.6703 25.9142 19.2533ZM33.4265 54.3271C33.6859 53.8639 33.5479 53.2687 33.1142 52.9778C32.7044 52.7031 32.0679 52.8325 32.0679 53.1906C32.0679 53.2998 32.1279 53.3793 32.2628 53.4495C32.4903 53.5675 32.5068 53.7002 32.3279 53.9713C32.1466 54.246 32.1613 54.4874 32.369 54.6513C32.7039 54.9159 33.1782 54.7704 33.4265 54.3271ZM41.2303 29.0752C40.7188 28.9951 40.6971 28.9856 40.938 28.9485C41.3992 28.8769 42.4885 28.9744 43.2393 29.1543C44.992 29.5745 46.5867 30.6508 48.2891 32.5622L48.7413 33.07L49.3883 32.9652C52.1139 32.5234 54.8867 32.8745 57.2059 33.9549C57.8439 34.2522 58.8498 34.8439 58.9754 34.9959C59.0153 35.0443 59.0891 35.3562 59.1387 35.6893C59.311 36.8406 59.2248 37.7233 58.8755 38.3827C58.6856 38.7414 58.675 38.8551 58.8026 39.1622C58.9046 39.4072 59.189 39.5885 59.4707 39.5881C60.0469 39.5874 60.6671 38.6477 60.9547 37.3405L61.0688 36.8212L61.295 37.0795C62.5355 38.497 63.51 40.4302 63.6774 41.8061L63.7209 42.1648L63.5125 41.8387C63.1534 41.2776 62.793 40.8955 62.3311 40.5874C61.4989 40.0319 60.6186 39.843 58.288 39.7191C56.1828 39.6072 54.9915 39.4259 53.8102 39.0373C51.8 38.3764 50.7869 37.4961 48.3991 34.337C47.3387 32.9339 46.6833 32.1573 46.031 31.5322C44.5497 30.1117 43.0939 29.3666 41.2303 29.0752ZM59.4501 32.2082C59.5032 31.2678 59.6297 30.6477 59.8839 30.0814C59.9844 29.8571 60.0787 29.6738 60.0932 29.6738C60.1078 29.6738 60.0641 29.8391 59.9959 30.0413C59.8112 30.5909 59.7808 31.3428 59.9082 32.2174C60.0697 33.3276 60.1617 33.4874 61.3248 34.6865C61.8704 35.2488 62.505 35.9579 62.7351 36.2626L63.1534 36.8161L62.7351 36.4204C62.2236 35.9365 61.0472 34.9928 60.7873 34.8581C60.613 34.7676 60.5871 34.7692 60.4797 34.877C60.3807 34.9763 60.3597 35.1259 60.346 35.8318C60.3246 36.9325 60.1759 37.6391 59.8169 38.3453C59.6227 38.7274 59.592 38.6459 59.7677 38.2147C59.899 37.8927 59.9123 37.751 59.9114 36.6857C59.9093 34.5449 59.6572 34.0304 58.1793 33.1488C57.8051 32.9254 57.188 32.6032 56.8085 32.4327C56.4291 32.2625 56.1276 32.1141 56.1384 32.103C56.1803 32.0609 57.6217 32.4852 58.2018 32.7103C59.0647 33.045 59.207 33.0884 59.3119 33.0481C59.382 33.0211 59.4161 32.8146 59.4501 32.2082ZM40.682 30.5646C40.5428 32.2174 41.1854 34.4282 42.224 35.8703C43.0292 36.9881 44.2773 37.8569 45.1988 37.9406C45.8019 37.9956 45.9832 37.8051 45.7103 37.4031C45.3314 36.8451 44.8652 35.9858 44.7419 35.6179C44.6652 35.3893 44.499 34.7142 44.372 34.1177C43.9387 32.081 43.5127 31.2876 42.5294 30.6853C42.1708 30.4657 41.4053 30.1784 40.9614 30.0967L40.7251 30.0532L40.682 30.5646ZM58.1905 46.6024C53.3368 44.6317 51.6272 42.921 51.6272 40.0346C51.6272 39.6097 51.6419 39.2622 51.6595 39.2622C51.6773 39.2622 51.8649 39.4025 52.0767 39.5739C53.061 40.3699 54.1632 40.7099 57.2144 41.1587C59.0097 41.4231 60.0201 41.6363 60.9522 41.9482C63.9146 42.939 65.7475 44.9496 66.1846 47.6885C66.3116 48.4843 66.2372 49.9766 66.0313 50.7631C65.8687 51.3844 65.3725 52.504 65.241 52.547C65.2045 52.5589 65.1686 52.418 65.1594 52.2261C65.1095 51.1977 64.5942 50.1966 63.7288 49.4465C62.7448 48.5937 61.4227 47.915 58.1905 46.6024ZM54.5486 46.3856C54.6167 46.5903 54.7223 47.0562 54.7829 47.4212C55.1717 49.7545 53.9572 51.6397 51.5948 52.3702C51.3446 52.4475 50.3595 52.642 49.4055 52.8021C47.4742 53.1264 46.6125 53.3561 45.7466 53.7767C45.1325 54.0751 44.3889 54.5218 44.4331 54.5662C44.4473 54.5806 44.5876 54.5468 44.7446 54.4912C45.8366 54.1046 47.0518 53.9044 48.898 53.8076C49.6308 53.7693 50.4641 53.708 50.7501 53.6718C52.395 53.4628 53.535 52.9589 54.4216 52.0489C54.9149 51.5425 55.209 51.0707 55.446 50.4055C55.5962 49.9835 55.6165 49.8268 55.6176 49.0792C55.619 48.3174 55.6007 48.178 55.4379 47.7094C55.2247 47.0951 54.9733 46.6342 54.6548 46.2737L54.4248 46.0134L54.5486 46.3856ZM57.0081 51.4062C56.363 50.0081 56.2151 48.6583 56.5683 47.3996C56.6062 47.2649 56.6668 47.1548 56.7036 47.1548C56.7401 47.1548 56.8921 47.2379 57.0417 47.3392C57.3387 47.541 57.9348 47.8808 59.5225 48.7538C61.5041 49.8433 62.6338 50.6868 63.402 51.6508C64.0748 52.4948 64.4911 53.4561 64.6914 54.6284C64.805 55.2924 64.7385 56.8903 64.5696 57.5589C64.0369 59.6672 62.7987 61.3232 61.0327 62.2897C60.774 62.4311 60.5417 62.5473 60.5165 62.548C60.4915 62.5484 60.5857 62.3068 60.726 62.0107C61.3201 60.7582 61.3877 59.54 60.9387 58.1842C60.6635 57.3539 60.1029 56.3409 58.9707 54.6286C57.6544 52.638 57.3317 52.1081 57.0081 51.4062ZM44.8607 55.9918C42.8196 56.3262 40.5783 57.4156 38.7771 58.9494L38.241 59.406L38.7124 59.4803C41.1714 59.8674 41.8338 60.2108 43.5395 61.983C44.5211 63.0026 44.8526 63.2296 45.667 63.4392C46.8628 63.7471 48.0417 63.1814 48.4461 62.1055C48.6267 61.6247 48.6026 60.8287 48.3953 60.429C47.9023 59.4772 46.4659 59.1696 45.7714 59.8667C45.1927 60.4475 45.3614 61.3223 46.0809 61.4727C46.2455 61.5074 46.241 61.5 46.0389 61.4079C45.7241 61.2642 45.5872 61.0652 45.5856 60.7483C45.5815 60.0055 46.4246 59.5884 47.2085 59.9451C47.7828 60.2065 48.0108 60.5479 48.0108 61.1464C48.0108 62.0681 47.2329 62.7626 46.3278 62.6491C45.8438 62.5883 45.252 62.2762 44.9349 61.9145C44.1365 61.0041 44.4475 59.5675 45.5621 59.0162C46.4108 58.5967 47.539 58.7001 48.4136 59.2777C49.4186 59.9415 49.846 60.5481 50.7116 62.5392C50.9935 63.1875 51.3561 63.9173 51.5174 64.1609C52.3374 65.3988 53.3199 66.0059 54.5033 66.0059C55.156 66.0059 55.6469 65.8856 56.2647 65.5746C56.7237 65.3434 57.3743 64.904 57.3274 64.857C57.3141 64.8437 57.1238 64.9034 56.9043 64.9896C55.6122 65.4978 54.2987 65.4629 53.5359 64.8998C53.0556 64.5453 52.6681 63.8392 52.4689 62.956C52.4344 62.8031 52.3208 62.128 52.2161 61.4556C51.9509 59.7514 51.6962 58.9854 51.1024 58.1063C50.4948 57.2069 49.3268 56.4521 48.0209 56.115C47.2063 55.9047 45.7408 55.8475 44.8607 55.9918ZM42.0018 42.8158C42.178 42.1592 42.7475 41.5329 43.3334 41.3514C43.706 41.2362 44.476 41.3098 44.8382 41.4953C45.5396 41.8552 46.0493 42.6746 45.9388 43.2662C45.8037 43.9874 44.644 44.5646 43.3097 44.574C42.6281 44.5787 42.3767 44.4864 42.1164 44.136C41.9552 43.919 41.8943 43.2164 42.0018 42.8158ZM44.6589 41.7525C45.0089 41.968 45.0987 42.2866 44.8932 42.5814C44.7513 42.7845 44.3127 42.9775 43.992 42.9775C43.5102 42.9775 42.9847 42.6325 42.9847 42.3166C42.9847 41.6818 43.9926 41.342 44.6589 41.7525Z" fill="black"/>
<defs>
<filter id="filter0_d_4058_9038" x="0" y="0" width="89" height="93" filterUnits="userSpaceOnUse" color-interpolation-filters="sRGB">
<feFlood flood-opacity="0" result="BackgroundImageFix"/>
<feColorMatrix in="SourceAlpha" type="matrix" values="0 0 0 0 0 0 0 0 0 0 0 0 0 0 0 0 0 0 127 0" result="hardAlpha"/>
<feOffset dx="-4" dy="8"/>
<feComposite in2="hardAlpha" operator="out"/>
<feColorMatrix type="matrix" values="0 0 0 0 0 0 0 0 0 0 0 0 0 0 0 0 0 0 1 0"/>
<feBlend mode="normal" in2="BackgroundImageFix" result="effect1_dropShadow_4058_9038"/>
<feBlend mode="normal" in="SourceGraphic" in2="effect1_dropShadow_4058_9038" result="shape"/>
</filter>
</defs>
</svg>
